M48
; DRILL file {KiCad 8.0.4} date 2024-08-20T00:23:37+0300
; FORMAT={-:-/ absolute / metric / decimal}
; #@! TF.CreationDate,2024-08-20T00:23:37+03:00
; #@! TF.GenerationSoftware,Kicad,Pcbnew,8.0.4
; #@! TF.FileFunction,Plated,1,4,PTH
FMAT,2
METRIC
; #@! TA.AperFunction,Plated,PTH,ViaDrill
T1C0.300
; #@! TA.AperFunction,Plated,PTH,ComponentDrill
T2C0.600
; #@! TA.AperFunction,Plated,PTH,ComponentDrill
T3C0.650
; #@! TA.AperFunction,Plated,PTH,ComponentDrill
T4C0.800
; #@! TA.AperFunction,Plated,PTH,ComponentDrill
T5C1.000
%
G90
G05
T1
X2.8Y-31.4
X2.85Y-7.55
X3.05Y-6.15
X3.2Y-24.8
X3.2Y-27.5
X3.45Y-2.3
X3.998Y-3.159
X4.2Y-24.65
X4.4Y-20.8
X4.55Y-25.8
X4.7Y-7.0
X5.0Y-30.8
X5.2Y-32.8
X5.25Y-7.7
X5.25Y-25.0
X5.35Y-1.75
X5.35Y-24.3
X5.4Y-21.2
X5.65Y-7.2
X5.7Y-26.3
X6.096Y-2.38
X6.8Y-27.45
X6.8Y-28.65
X6.8Y-29.85
X7.142Y-21.9
X7.15Y-22.8
X7.168Y-2.415
X7.2Y-7.0
X7.2Y-20.8
X7.2Y-24.15
X7.25Y-25.9
X7.8Y-21.9
X7.873Y-7.277
X8.0Y-30.6
X8.0Y-31.4
X8.0Y-32.2
X8.1Y-29.8
X8.4Y-6.7
X8.4Y-25.8
X8.4Y-26.6
X8.4Y-27.8
X8.7Y-2.25
X9.123Y-7.25
X9.4Y-25.0
X9.6Y-21.2
X10.05Y-9.4
X10.05Y-25.0
X10.19Y-2.155
X10.2Y-1.0
X10.3Y-5.25
X10.3Y-7.95
X10.35Y-6.85
X10.4Y-18.2
X10.4Y-19.2
X10.5Y-32.2
X10.6Y-24.6
X10.8Y-9.9
X10.85Y-1.85
X10.95Y-6.15
X11.2Y-29.2
X11.9Y-20.0
X12.0Y-3.0
X12.05Y-7.3
X12.2Y-0.9
X12.2Y-27.4
X12.25Y-17.9
X12.375Y-13.9
X12.4Y-25.0
X12.4Y-30.8
X12.45Y-12.35
X12.595Y-11.382
X12.6Y-6.2
X12.6Y-20.85
X12.6Y-22.6
X12.6Y-29.3
X12.6Y-31.8
X12.6Y-32.6
X12.65Y-19.3
X12.75Y-9.6
X12.8Y-3.2
X13.0Y-23.45
X13.0Y-28.1
X13.05Y-7.6
X13.3Y-10.3
X13.5Y-1.1
X13.575Y-31.175
X14.0Y-23.45
X14.1Y-25.5
X14.5Y-21.8
X14.5Y-21.8
X14.6Y-14.8
X14.6Y-15.6
X14.7Y-8.3
X14.7Y-9.1
X14.7Y-17.15
X14.8Y-29.0
X14.85Y-9.8
X14.95Y-27.9
X15.0Y-30.0
X15.2Y-3.2
X15.2Y-14.023
X15.2Y-31.2
X15.3Y-0.95
X15.5Y-22.8
X15.538Y-17.227
X15.6Y-14.75
X15.7Y-21.0
X15.7Y-26.8
X15.75Y-19.0
X15.888Y-17.903
X16.0Y-7.2
X16.0Y-16.175
X16.4Y-32.6
X16.5Y-7.8
X16.5Y-9.4
X16.6Y-31.2
X16.8Y-3.4
X16.8Y-30.2
X16.9Y-1.1
X17.1Y-22.3
X17.3Y-29.2
X17.65Y-21.4
X17.8Y-1.1
X17.8Y-2.4
X17.8Y-6.0
X17.8Y-11.8
X17.8Y-12.6
X17.9Y-7.1
X18.0Y-5.0
X18.0Y-31.1
X18.027Y-13.9
X18.2Y-16.8
X18.4Y-14.75
X18.592Y-1.092
X18.6Y-11.0
X18.775Y-17.175
X18.8Y-23.1
X18.8Y-26.6
X18.85Y-14.2
X18.85Y-25.15
X18.9Y-23.9
X19.0Y-9.0
X19.0Y-28.6
X19.1Y-7.9
X19.1Y-30.1
X19.2Y-2.5
X19.2Y-6.05
X19.25Y-7.1
X19.4Y-32.6
X19.45Y-22.55
X19.49Y-14.885
X19.577Y-13.709
X19.6Y-1.8
X19.6Y-18.8
X19.6Y-19.6
X19.6Y-20.6
X19.7Y-17.6
X19.8Y-29.4
X20.2Y-2.4
X20.4Y-4.1
X20.6Y-6.4
X20.6Y-13.6
X20.7Y-17.7
X20.7Y-19.2
X20.7Y-22.7
X20.7Y-28.4
X20.75Y-5.4
X20.8Y-7.8
X20.8Y-20.8
X20.8Y-24.9
X20.8Y-26.5
X21.4Y-29.6
X21.534Y-13.6
X21.8Y-21.3
X21.9Y-8.1
X22.0Y-26.2
X22.0Y-30.4
X22.3Y-22.3
X22.4Y-23.8
X22.548Y-13.645
X23.0Y-14.8
X23.0Y-16.0
X23.1Y-7.45
X23.2Y-3.0
X23.2Y-14.0
X23.25Y-4.25
X23.25Y-4.9
X23.45Y-18.55
X23.5Y-5.8
X23.6Y-9.9
X23.6Y-11.25
X23.7Y-8.6
X24.05Y-29.8
X24.6Y-1.1
X24.75Y-2.55
X24.8Y-3.45
X24.8Y-4.55
X24.8Y-11.8
X24.8Y-26.6
X24.9Y-8.6
X24.9Y-9.9
X25.0Y-11.2
X25.0Y-18.6
X25.0Y-21.0
X25.0Y-32.8
X25.15Y-6.6
X25.2Y-23.6
T2
X9.3Y-28.4
X9.95Y-27.65
X10.6Y-28.4
X11.25Y-27.65
X11.9Y-28.4
X14.0Y-2.35
X14.65Y-1.6
X15.3Y-2.35
X15.95Y-1.6
X16.0Y-27.65
X16.5Y-10.4
X16.5Y-21.4
X16.6Y-2.35
X16.65Y-28.4
X17.3Y-27.65
X17.95Y-28.4
X18.6Y-27.65
X20.7Y-1.6
X21.35Y-2.35
X22.0Y-1.6
X22.65Y-2.35
X23.3Y-1.6
T3
X3.4Y-8.6
X3.45Y-1.0
X4.67Y-8.6
X4.72Y-1.0
X5.94Y-8.6
X5.99Y-1.0
X7.21Y-8.6
X7.26Y-1.0
X8.48Y-8.6
X8.53Y-1.0
T4
X24.6Y-13.0
X24.6Y-15.0
T5
X20.86Y-31.6
X23.4Y-31.6
X24.225Y-17.2
X24.225Y-19.74
X24.225Y-22.28
X24.225Y-24.82
T4
G00X13.73Y-11.24
M15
G01X13.73Y-12.36
M16
G05
G00X13.73Y-19.44
M15
G01X13.73Y-20.56
M16
G05
G00X16.67Y-11.24
M15
G01X16.67Y-12.36
M16
G05
G00X16.67Y-19.44
M15
G01X16.67Y-20.56
M16
G05
M30
