%TF.GenerationSoftware,KiCad,Pcbnew,8.0.4*%
%TF.CreationDate,2024-08-20T00:23:40+03:00*%
%TF.ProjectId,Shield_Emergent_4,53686965-6c64-45f4-956d-657267656e74,rev?*%
%TF.SameCoordinates,Original*%
%TF.FileFunction,Soldermask,Bot*%
%TF.FilePolarity,Negative*%
%FSLAX46Y46*%
G04 Gerber Fmt 4.6, Leading zero omitted, Abs format (unit mm)*
G04 Created by KiCad (PCBNEW 8.0.4) date 2024-08-20 00:23:40*
%MOMM*%
%LPD*%
G01*
G04 APERTURE LIST*
G04 Aperture macros list*
%AMRoundRect*
0 Rectangle with rounded corners*
0 $1 Rounding radius*
0 $2 $3 $4 $5 $6 $7 $8 $9 X,Y pos of 4 corners*
0 Add a 4 corners polygon primitive as box body*
4,1,4,$2,$3,$4,$5,$6,$7,$8,$9,$2,$3,0*
0 Add four circle primitives for the rounded corners*
1,1,$1+$1,$2,$3*
1,1,$1+$1,$4,$5*
1,1,$1+$1,$6,$7*
1,1,$1+$1,$8,$9*
0 Add four rect primitives between the rounded corners*
20,1,$1+$1,$2,$3,$4,$5,0*
20,1,$1+$1,$4,$5,$6,$7,0*
20,1,$1+$1,$6,$7,$8,$9,0*
20,1,$1+$1,$8,$9,$2,$3,0*%
G04 Aperture macros list end*
%ADD10R,1.000000X1.000000*%
%ADD11O,1.000000X1.000000*%
%ADD12C,0.900000*%
%ADD13O,1.100000X2.220000*%
%ADD14R,1.700000X1.700000*%
%ADD15O,1.700000X1.700000*%
%ADD16RoundRect,0.135000X-0.185000X0.135000X-0.185000X-0.135000X0.185000X-0.135000X0.185000X0.135000X0*%
%ADD17RoundRect,0.162500X0.617500X0.162500X-0.617500X0.162500X-0.617500X-0.162500X0.617500X-0.162500X0*%
%ADD18RoundRect,0.150000X0.200000X-0.150000X0.200000X0.150000X-0.200000X0.150000X-0.200000X-0.150000X0*%
%ADD19RoundRect,0.237500X0.237500X-0.250000X0.237500X0.250000X-0.237500X0.250000X-0.237500X-0.250000X0*%
%ADD20R,1.350000X1.350000*%
%ADD21O,1.350000X1.350000*%
%ADD22RoundRect,0.100000X0.100000X-0.217500X0.100000X0.217500X-0.100000X0.217500X-0.100000X-0.217500X0*%
%ADD23RoundRect,0.237500X-0.237500X0.300000X-0.237500X-0.300000X0.237500X-0.300000X0.237500X0.300000X0*%
%ADD24RoundRect,0.075000X-0.075000X0.350000X-0.075000X-0.350000X0.075000X-0.350000X0.075000X0.350000X0*%
%ADD25RoundRect,0.162500X0.162500X-0.617500X0.162500X0.617500X-0.162500X0.617500X-0.162500X-0.617500X0*%
%ADD26RoundRect,0.100000X-0.100000X0.217500X-0.100000X-0.217500X0.100000X-0.217500X0.100000X0.217500X0*%
%ADD27RoundRect,0.075000X0.075000X-0.350000X0.075000X0.350000X-0.075000X0.350000X-0.075000X-0.350000X0*%
%ADD28RoundRect,0.237500X0.250000X0.237500X-0.250000X0.237500X-0.250000X-0.237500X0.250000X-0.237500X0*%
%ADD29RoundRect,0.150000X-0.150000X-0.200000X0.150000X-0.200000X0.150000X0.200000X-0.150000X0.200000X0*%
G04 APERTURE END LIST*
D10*
%TO.C,J4*%
X3400000Y-8600000D03*
D11*
X4670000Y-8600000D03*
X5940000Y-8600000D03*
X7210000Y-8600000D03*
X8480000Y-8600000D03*
%TD*%
D12*
%TO.C,X1*%
X16500000Y-10400000D03*
X16500000Y-21400000D03*
D13*
X16670000Y-11800000D03*
X13730000Y-11800000D03*
X16670000Y-20000000D03*
X13730000Y-20000000D03*
%TD*%
D14*
%TO.C,J2*%
X24225000Y-17200000D03*
D15*
X24225000Y-19740000D03*
X24225000Y-22280000D03*
X24225000Y-24820000D03*
%TD*%
D14*
%TO.C,J6*%
X23400000Y-31600000D03*
D15*
X20860000Y-31600000D03*
%TD*%
D10*
%TO.C,J7*%
X3450000Y-1000000D03*
D11*
X4720000Y-1000000D03*
X5990000Y-1000000D03*
X7260000Y-1000000D03*
X8530000Y-1000000D03*
%TD*%
D16*
%TO.C,R6*%
X18750000Y-12090000D03*
X18750000Y-13110000D03*
%TD*%
D17*
%TO.C,U2*%
X9350000Y-30850000D03*
X9350000Y-31800000D03*
X9350000Y-32750000D03*
X6650000Y-32750000D03*
X6650000Y-31800000D03*
X6650000Y-30850000D03*
%TD*%
D18*
%TO.C,D1*%
X24400000Y-5900000D03*
X24400000Y-7300000D03*
%TD*%
D19*
%TO.C,R8*%
X3600000Y-32512500D03*
X3600000Y-30687500D03*
%TD*%
D20*
%TO.C,J5*%
X24600000Y-15000000D03*
D21*
X24600000Y-13000000D03*
%TD*%
D12*
%TO.C,J3*%
X9300000Y-28400000D03*
X9950000Y-27650000D03*
X10600000Y-28400000D03*
X11250000Y-27650000D03*
X11900000Y-28400000D03*
X16000000Y-27650000D03*
X16650000Y-28400000D03*
X17300000Y-27650000D03*
X17950000Y-28400000D03*
X18600000Y-27650000D03*
%TD*%
D22*
%TO.C,R2*%
X17500000Y-10507500D03*
X17500000Y-9692500D03*
%TD*%
D23*
%TO.C,C3*%
X11400000Y-30737500D03*
X11400000Y-32462500D03*
%TD*%
D24*
%TO.C,U5*%
X3700000Y-4975000D03*
X4200000Y-4975000D03*
X4700000Y-4975000D03*
X5200000Y-4975000D03*
X5700000Y-4975000D03*
X6200000Y-4975000D03*
X6700000Y-4975000D03*
X6700000Y-6225000D03*
X6200000Y-6225000D03*
X5700000Y-6225000D03*
X5200000Y-6225000D03*
X4700000Y-6225000D03*
X4200000Y-6225000D03*
X3700000Y-6225000D03*
%TD*%
D12*
%TO.C,J1*%
X23300000Y-1600000D03*
X22650000Y-2350000D03*
X22000000Y-1600000D03*
X21350000Y-2350000D03*
X20700000Y-1600000D03*
X16600000Y-2350000D03*
X15950000Y-1600000D03*
X15300000Y-2350000D03*
X14650000Y-1600000D03*
X14000000Y-2350000D03*
%TD*%
D25*
%TO.C,U1*%
X22054522Y-14750000D03*
X21104522Y-14750000D03*
X20154522Y-14750000D03*
X20154522Y-12050000D03*
X21104522Y-12050000D03*
X22054522Y-12050000D03*
%TD*%
D26*
%TO.C,R3*%
X13550000Y-21792500D03*
X13550000Y-22607500D03*
%TD*%
D23*
%TO.C,C2*%
X22250000Y-17337500D03*
X22250000Y-19062500D03*
%TD*%
D27*
%TO.C,U6*%
X10700000Y-4225000D03*
X10200000Y-4225000D03*
X9700000Y-4225000D03*
X9200000Y-4225000D03*
X8700000Y-4225000D03*
X8200000Y-4225000D03*
X7700000Y-4225000D03*
X7700000Y-2975000D03*
X8200000Y-2975000D03*
X8700000Y-2975000D03*
X9200000Y-2975000D03*
X9700000Y-2975000D03*
X10200000Y-2975000D03*
X10700000Y-2975000D03*
%TD*%
D28*
%TO.C,R4*%
X21217022Y-10200000D03*
X19392022Y-10200000D03*
%TD*%
D22*
%TO.C,R5*%
X17800000Y-20107500D03*
X17800000Y-19292500D03*
%TD*%
D29*
%TO.C,D2*%
X8500000Y-25000000D03*
X7100000Y-25000000D03*
%TD*%
M02*
