%TF.GenerationSoftware,KiCad,Pcbnew,8.0.4*%
%TF.CreationDate,2024-08-19T21:40:42+03:00*%
%TF.ProjectId,Shield_Emergent_4,53686965-6c64-45f4-956d-657267656e74,rev?*%
%TF.SameCoordinates,Original*%
%TF.FileFunction,Copper,L1,Top*%
%TF.FilePolarity,Positive*%
%FSLAX46Y46*%
G04 Gerber Fmt 4.6, Leading zero omitted, Abs format (unit mm)*
G04 Created by KiCad (PCBNEW 8.0.4) date 2024-08-19 21:40:42*
%MOMM*%
%LPD*%
G01*
G04 APERTURE LIST*
G04 Aperture macros list*
%AMRoundRect*
0 Rectangle with rounded corners*
0 $1 Rounding radius*
0 $2 $3 $4 $5 $6 $7 $8 $9 X,Y pos of 4 corners*
0 Add a 4 corners polygon primitive as box body*
4,1,4,$2,$3,$4,$5,$6,$7,$8,$9,$2,$3,0*
0 Add four circle primitives for the rounded corners*
1,1,$1+$1,$2,$3*
1,1,$1+$1,$4,$5*
1,1,$1+$1,$6,$7*
1,1,$1+$1,$8,$9*
0 Add four rect primitives between the rounded corners*
20,1,$1+$1,$2,$3,$4,$5,0*
20,1,$1+$1,$4,$5,$6,$7,0*
20,1,$1+$1,$6,$7,$8,$9,0*
20,1,$1+$1,$8,$9,$2,$3,0*%
G04 Aperture macros list end*
%TA.AperFunction,ComponentPad*%
%ADD10R,1.000000X1.000000*%
%TD*%
%TA.AperFunction,ComponentPad*%
%ADD11O,1.000000X1.000000*%
%TD*%
%TA.AperFunction,SMDPad,CuDef*%
%ADD12RoundRect,0.075000X0.075000X-0.350000X0.075000X0.350000X-0.075000X0.350000X-0.075000X-0.350000X0*%
%TD*%
%TA.AperFunction,ComponentPad*%
%ADD13C,0.900000*%
%TD*%
%TA.AperFunction,SMDPad,CuDef*%
%ADD14R,1.300000X0.270000*%
%TD*%
%TA.AperFunction,ComponentPad*%
%ADD15O,1.100000X2.220000*%
%TD*%
%TA.AperFunction,SMDPad,CuDef*%
%ADD16R,1.800000X2.000000*%
%TD*%
%TA.AperFunction,SMDPad,CuDef*%
%ADD17R,0.400000X1.524000*%
%TD*%
%TA.AperFunction,SMDPad,CuDef*%
%ADD18RoundRect,0.075000X-0.075000X0.350000X-0.075000X-0.350000X0.075000X-0.350000X0.075000X0.350000X0*%
%TD*%
%TA.AperFunction,ComponentPad*%
%ADD19R,1.700000X1.700000*%
%TD*%
%TA.AperFunction,ComponentPad*%
%ADD20O,1.700000X1.700000*%
%TD*%
%TA.AperFunction,SMDPad,CuDef*%
%ADD21RoundRect,0.100000X0.100000X-0.217500X0.100000X0.217500X-0.100000X0.217500X-0.100000X-0.217500X0*%
%TD*%
%TA.AperFunction,SMDPad,CuDef*%
%ADD22RoundRect,0.250000X1.500000X0.550000X-1.500000X0.550000X-1.500000X-0.550000X1.500000X-0.550000X0*%
%TD*%
%TA.AperFunction,SMDPad,CuDef*%
%ADD23RoundRect,0.135000X0.135000X0.185000X-0.135000X0.185000X-0.135000X-0.185000X0.135000X-0.185000X0*%
%TD*%
%TA.AperFunction,SMDPad,CuDef*%
%ADD24RoundRect,0.250000X-0.550000X1.500000X-0.550000X-1.500000X0.550000X-1.500000X0.550000X1.500000X0*%
%TD*%
%TA.AperFunction,ComponentPad*%
%ADD25R,1.350000X1.350000*%
%TD*%
%TA.AperFunction,ComponentPad*%
%ADD26O,1.350000X1.350000*%
%TD*%
%TA.AperFunction,ViaPad*%
%ADD27C,0.600000*%
%TD*%
%TA.AperFunction,Conductor*%
%ADD28C,0.800000*%
%TD*%
%TA.AperFunction,Conductor*%
%ADD29C,1.000000*%
%TD*%
%TA.AperFunction,Conductor*%
%ADD30C,0.500000*%
%TD*%
%TA.AperFunction,Conductor*%
%ADD31C,0.400000*%
%TD*%
%TA.AperFunction,Conductor*%
%ADD32C,0.200000*%
%TD*%
%TA.AperFunction,Conductor*%
%ADD33C,0.600000*%
%TD*%
%TA.AperFunction,Conductor*%
%ADD34C,0.250000*%
%TD*%
%TA.AperFunction,Conductor*%
%ADD35C,0.112000*%
%TD*%
G04 APERTURE END LIST*
D10*
%TO.P,J4,1,Pin_1*%
%TO.N,K1*%
X3400000Y-8600000D03*
D11*
%TO.P,J4,2,Pin_2*%
%TO.N,K3*%
X4670000Y-8600000D03*
%TO.P,J4,3,Pin_3*%
%TO.N,K5*%
X5940000Y-8600000D03*
%TO.P,J4,4,Pin_4*%
%TO.N,K7*%
X7210000Y-8600000D03*
%TO.P,J4,5,Pin_5*%
%TO.N,K9*%
X8480000Y-8600000D03*
%TD*%
D12*
%TO.P,U3,1,1*%
%TO.N,RX1+*%
X13900000Y-6225000D03*
%TO.P,U3,2,2*%
%TO.N,RX1-*%
X14400000Y-6225000D03*
%TO.P,U3,3,3*%
%TO.N,TX1+*%
X14900000Y-6225000D03*
%TO.P,U3,4,4*%
%TO.N,TX1-*%
X15400000Y-6225000D03*
%TO.P,U3,5,5*%
%TO.N,GND*%
X15900000Y-6225000D03*
%TO.P,U3,6,6*%
%TO.N,D+*%
X16400000Y-6225000D03*
%TO.P,U3,7,7*%
%TO.N,D-*%
X16900000Y-6225000D03*
%TO.P,U3,8,8*%
X16900000Y-4975000D03*
%TO.P,U3,9,9*%
%TO.N,D+*%
X16400000Y-4975000D03*
%TO.P,U3,10,10*%
%TO.N,GND*%
X15900000Y-4975000D03*
%TO.P,U3,11,11*%
%TO.N,TX1-*%
X15400000Y-4975000D03*
%TO.P,U3,12,12*%
%TO.N,TX1+*%
X14900000Y-4975000D03*
%TO.P,U3,13,13*%
%TO.N,RX1-*%
X14400000Y-4975000D03*
%TO.P,U3,14,14*%
%TO.N,RX1+*%
X13900000Y-4975000D03*
%TD*%
D13*
%TO.P,X1,*%
%TO.N,*%
X16500000Y-10400000D03*
X16500000Y-21400000D03*
D14*
%TO.P,X1,A1,GND*%
%TO.N,GND*%
X16950000Y-13150000D03*
%TO.P,X1,A2,TX1+*%
%TO.N,TX1-*%
X16950000Y-13650000D03*
%TO.P,X1,A3,TX1-*%
%TO.N,TX1+*%
X16950000Y-14150000D03*
%TO.P,X1,A4,VBUS*%
%TO.N,VBUS*%
X16950000Y-14650000D03*
%TO.P,X1,A5,CC1*%
%TO.N,unconnected-(X1-CC1-PadA5)*%
X16950000Y-15150000D03*
%TO.P,X1,A6,D+*%
%TO.N,D+*%
X16950000Y-15650000D03*
%TO.P,X1,A7,D-*%
%TO.N,D-*%
X16950000Y-16150000D03*
%TO.P,X1,A8,SBU1*%
%TO.N,unconnected-(X1-SBU1-PadA8)*%
X16950000Y-16650000D03*
%TO.P,X1,A9,VBUS*%
%TO.N,VBUS*%
X16950000Y-17150000D03*
%TO.P,X1,A10,RX2-*%
%TO.N,RX2+*%
X16950000Y-17650000D03*
%TO.P,X1,A11,RX2+*%
%TO.N,RX2-*%
X16950000Y-18150000D03*
%TO.P,X1,A12,GND*%
%TO.N,GND*%
X16950000Y-18650000D03*
%TO.P,X1,B1,GND*%
X13450000Y-18650000D03*
%TO.P,X1,B2,TX2+*%
%TO.N,TX2+*%
X13450000Y-18150000D03*
%TO.P,X1,B3,TX2-*%
%TO.N,TX2-*%
X13450000Y-17650000D03*
%TO.P,X1,B4,VBUS*%
%TO.N,VBUS*%
X13450000Y-17150000D03*
%TO.P,X1,B5,CC2*%
%TO.N,unconnected-(X1-CC2-PadB5)*%
X13450000Y-16650000D03*
%TO.P,X1,B6,D+*%
%TO.N,D+*%
X13450000Y-16150000D03*
%TO.P,X1,B7,D-*%
%TO.N,D-*%
X13450000Y-15650000D03*
%TO.P,X1,B8,SBU2*%
%TO.N,unconnected-(X1-SBU2-PadB8)*%
X13450000Y-15150000D03*
%TO.P,X1,B9,VBUS*%
%TO.N,VBUS*%
X13450000Y-14650000D03*
%TO.P,X1,B10,RX1-*%
%TO.N,RX1-*%
X13450000Y-14150000D03*
%TO.P,X1,B11,RX1+*%
%TO.N,RX1+*%
X13450000Y-13650000D03*
%TO.P,X1,B12,GND*%
%TO.N,GND*%
X13450000Y-13150000D03*
D15*
%TO.P,X1,S1,SHIELD*%
%TO.N,Shield*%
X16670000Y-11800000D03*
X13730000Y-11800000D03*
X16670000Y-20000000D03*
X13730000Y-20000000D03*
%TD*%
D16*
%TO.P,J8,0*%
%TO.N,GND*%
X3600000Y-4600000D03*
X11700000Y-4600000D03*
D17*
%TO.P,J8,1,Pin_1*%
%TO.N,K1*%
X5400000Y-5600000D03*
%TO.P,J8,2,Pin_2*%
%TO.N,K2*%
X5900000Y-3600000D03*
%TO.P,J8,3,Pin_3*%
%TO.N,K3*%
X6400000Y-5600000D03*
%TO.P,J8,4,Pin_4*%
%TO.N,K4*%
X6900000Y-3600000D03*
%TO.P,J8,5,Pin_5*%
%TO.N,K5*%
X7400000Y-5600000D03*
%TO.P,J8,6,Pin_6*%
%TO.N,K6*%
X7900000Y-3600000D03*
%TO.P,J8,7,Pin_7*%
%TO.N,K7*%
X8400000Y-5600000D03*
%TO.P,J8,8,Pin_8*%
%TO.N,K8*%
X8900000Y-3600000D03*
%TO.P,J8,9,Pin_9*%
%TO.N,K9*%
X9400000Y-5600000D03*
%TO.P,J8,10,Pin_10*%
%TO.N,GND*%
X9900000Y-3600000D03*
%TD*%
D18*
%TO.P,U4,1,1*%
%TO.N,RX2+*%
X17900000Y-23675000D03*
%TO.P,U4,2,2*%
%TO.N,RX2-*%
X17400000Y-23675000D03*
%TO.P,U4,3,3*%
%TO.N,TX2-*%
X16900000Y-23675000D03*
%TO.P,U4,4,4*%
%TO.N,TX2+*%
X16400000Y-23675000D03*
%TO.P,U4,5,5*%
%TO.N,GND*%
X15900000Y-23675000D03*
%TO.P,U4,6,6*%
%TO.N,2_D+*%
X15400000Y-23675000D03*
%TO.P,U4,7,7*%
%TO.N,2_D-*%
X14900000Y-23675000D03*
%TO.P,U4,8,8*%
X14900000Y-24925000D03*
%TO.P,U4,9,9*%
%TO.N,2_D+*%
X15400000Y-24925000D03*
%TO.P,U4,10,10*%
%TO.N,GND*%
X15900000Y-24925000D03*
%TO.P,U4,11,11*%
%TO.N,TX2+*%
X16400000Y-24925000D03*
%TO.P,U4,12,12*%
%TO.N,TX2-*%
X16900000Y-24925000D03*
%TO.P,U4,13,13*%
%TO.N,RX2-*%
X17400000Y-24925000D03*
%TO.P,U4,14,14*%
%TO.N,RX2+*%
X17900000Y-24925000D03*
%TD*%
D19*
%TO.P,J2,1,Pin_1*%
%TO.N,GND*%
X24225000Y-17200000D03*
D20*
%TO.P,J2,2,Pin_2*%
%TO.N,D+*%
X24225000Y-19740000D03*
%TO.P,J2,3,Pin_3*%
%TO.N,D-*%
X24225000Y-22280000D03*
%TO.P,J2,4,Pin_4*%
%TO.N,VBUS*%
X24225000Y-24820000D03*
%TD*%
D19*
%TO.P,J6,1,Pin_1*%
%TO.N,EN2*%
X23400000Y-31600000D03*
D20*
%TO.P,J6,2,Pin_2*%
%TO.N,nFLT2*%
X20860000Y-31600000D03*
%TD*%
D21*
%TO.P,R1,1*%
%TO.N,Shield*%
X11700000Y-10657500D03*
%TO.P,R1,2*%
%TO.N,GND*%
X11700000Y-9842500D03*
%TD*%
D22*
%TO.P,C4,1*%
%TO.N,VOUT2*%
X9700000Y-23000000D03*
%TO.P,C4,2*%
%TO.N,GND*%
X4300000Y-23000000D03*
%TD*%
D23*
%TO.P,R7,1*%
%TO.N,nFLT2*%
X14710000Y-32400000D03*
%TO.P,R7,2*%
%TO.N,VBUS*%
X13690000Y-32400000D03*
%TD*%
D10*
%TO.P,J7,1,Pin_1*%
%TO.N,K2*%
X3450000Y-1000000D03*
D11*
%TO.P,J7,2,Pin_2*%
%TO.N,K4*%
X4720000Y-1000000D03*
%TO.P,J7,3,Pin_3*%
%TO.N,K6*%
X5990000Y-1000000D03*
%TO.P,J7,4,Pin_4*%
%TO.N,K8*%
X7260000Y-1000000D03*
%TO.P,J7,5,Pin_5*%
%TO.N,GND*%
X8530000Y-1000000D03*
%TD*%
D24*
%TO.P,C1,1*%
%TO.N,VOUT1*%
X22000000Y-5300000D03*
%TO.P,C1,2*%
%TO.N,GND*%
X22000000Y-10700000D03*
%TD*%
D25*
%TO.P,J5,1,Pin_1*%
%TO.N,EN1*%
X24600000Y-15000000D03*
D26*
%TO.P,J5,2,Pin_2*%
%TO.N,nFLT1*%
X24600000Y-13000000D03*
%TD*%
D13*
%TO.P,J3,1,VBUS*%
%TO.N,VOUT2*%
X9300000Y-28400000D03*
%TO.P,J3,2,D-*%
%TO.N,2_D-*%
X9950000Y-27650000D03*
%TO.P,J3,3,D+*%
%TO.N,2_D+*%
X10600000Y-28400000D03*
%TO.P,J3,4,ID*%
%TO.N,unconnected-(J3-ID-Pad4)*%
X11250000Y-27650000D03*
%TO.P,J3,5,GND*%
%TO.N,GND*%
X11900000Y-28400000D03*
%TO.P,J3,6,SSTX-*%
%TO.N,TX2+*%
X16000000Y-27650000D03*
%TO.P,J3,7,SSTX+*%
%TO.N,TX2-*%
X16650000Y-28400000D03*
%TO.P,J3,8,DRAIN*%
%TO.N,GND*%
X17300000Y-27650000D03*
%TO.P,J3,9,SSRX-*%
%TO.N,RX2-*%
X17950000Y-28400000D03*
%TO.P,J3,10,SSRX+*%
%TO.N,RX2+*%
X18600000Y-27650000D03*
%TD*%
%TO.P,J1,1,VBUS*%
%TO.N,VOUT1*%
X23300000Y-1600000D03*
%TO.P,J1,2,D-*%
%TO.N,D-*%
X22650000Y-2350000D03*
%TO.P,J1,3,D+*%
%TO.N,D+*%
X22000000Y-1600000D03*
%TO.P,J1,4,ID*%
%TO.N,unconnected-(J1-ID-Pad4)*%
X21350000Y-2350000D03*
%TO.P,J1,5,GND*%
%TO.N,GND*%
X20700000Y-1600000D03*
%TO.P,J1,6,SSTX-*%
%TO.N,TX1-*%
X16600000Y-2350000D03*
%TO.P,J1,7,SSTX+*%
%TO.N,TX1+*%
X15950000Y-1600000D03*
%TO.P,J1,8,DRAIN*%
%TO.N,GND*%
X15300000Y-2350000D03*
%TO.P,J1,9,SSRX-*%
%TO.N,RX1-*%
X14650000Y-1600000D03*
%TO.P,J1,10,SSRX+*%
%TO.N,RX1+*%
X14000000Y-2350000D03*
%TD*%
D27*
%TO.N,VOUT1*%
X23500000Y-5800000D03*
X24200000Y-2450000D03*
X20750000Y-5400000D03*
X21900000Y-8100000D03*
X24200000Y-3450000D03*
X20600000Y-6400000D03*
X20800000Y-7800000D03*
%TO.N,GND*%
X8000000Y-31400000D03*
X14100000Y-25500000D03*
X19250000Y-7100000D03*
X25000000Y-11200000D03*
X22000000Y-30400000D03*
X5350000Y-24300000D03*
X12750000Y-9600000D03*
X21534403Y-13600000D03*
X19450000Y-22550000D03*
X3200000Y-24800000D03*
X15200000Y-3200000D03*
X23000000Y-16000000D03*
X18850000Y-25150000D03*
X11200000Y-29200000D03*
X13050000Y-7600000D03*
X17800000Y-12600000D03*
X15750000Y-19000000D03*
X18592203Y-1092203D03*
X12450000Y-12350000D03*
X24600000Y-1200000D03*
X8100000Y-29800000D03*
X16400000Y-32600000D03*
X15000000Y-30000000D03*
X12600000Y-29300000D03*
X23100000Y-7450000D03*
X12400000Y-25000000D03*
X18800000Y-23100000D03*
X23600000Y-11250000D03*
X13300000Y-10300000D03*
X19000000Y-28600000D03*
X16800000Y-3400000D03*
X22548427Y-13644951D03*
X15500000Y-22800000D03*
X20400000Y-4100000D03*
X12600000Y-32600000D03*
X25000000Y-32800000D03*
X5400000Y-21200000D03*
X19200000Y-2500000D03*
X18800000Y-26600000D03*
X20600000Y-13600000D03*
X15700000Y-26800000D03*
X12800000Y-3200000D03*
X12650000Y-19300000D03*
X16500000Y-9400000D03*
X10850000Y-1850000D03*
X24900000Y-8600000D03*
X19100000Y-7900000D03*
X25200000Y-23600000D03*
X11900000Y-20000000D03*
X22000000Y-26200000D03*
X21800000Y-21300000D03*
X5350000Y-1750000D03*
X21400000Y-29600000D03*
X14700000Y-8300000D03*
X24800000Y-26600000D03*
X23700000Y-8600000D03*
X23200000Y-3000000D03*
X14950000Y-27900000D03*
X12250000Y-17900000D03*
X5000000Y-30800000D03*
X12595144Y-11381856D03*
X3200000Y-27500000D03*
X23200000Y-14000000D03*
X13000000Y-28100000D03*
X10350000Y-6850000D03*
X15300000Y-950000D03*
X17650000Y-21400000D03*
X19577000Y-13709395D03*
X8000000Y-30600000D03*
X5250000Y-25000000D03*
X8700000Y-2250000D03*
X19600000Y-19600000D03*
X14500000Y-21800000D03*
X12375000Y-13900000D03*
X10400000Y-19200000D03*
X10300000Y-7950000D03*
X18000000Y-5000000D03*
X15200000Y-14000000D03*
X13500000Y-1100000D03*
X12200000Y-27400000D03*
X24900000Y-9900000D03*
X12600000Y-22600000D03*
X16500000Y-7800000D03*
X23450000Y-18550000D03*
X16800000Y-30200000D03*
X2850000Y-7550000D03*
X20200000Y-2400000D03*
X12000000Y-3000000D03*
X13000000Y-23450000D03*
X10400000Y-18200000D03*
X10300000Y-5250000D03*
X19600000Y-1800000D03*
X25000000Y-18600000D03*
X14000000Y-23450000D03*
X22400000Y-23800000D03*
X7200000Y-20800000D03*
X16000000Y-7200000D03*
X10500000Y-32200000D03*
X12600000Y-6200000D03*
X19600000Y-18800000D03*
X17800000Y-2400000D03*
X19400000Y-32600000D03*
X14800000Y-29000000D03*
X25150000Y-6600000D03*
X9123000Y-7250000D03*
X18026999Y-13900000D03*
X25000000Y-21000000D03*
X7200000Y-24150000D03*
X17800000Y-11800000D03*
X14700000Y-9100000D03*
X10200000Y-1000000D03*
X24050000Y-29800000D03*
X4400000Y-20800000D03*
X7873000Y-7277354D03*
X23600000Y-9900000D03*
X17900000Y-7100000D03*
X12600000Y-31800000D03*
X19000000Y-9000000D03*
X12200000Y-900000D03*
X12050000Y-7300000D03*
X17300000Y-29200000D03*
X7250000Y-25900000D03*
X14850000Y-9800000D03*
X12600000Y-20850000D03*
X5250000Y-7700000D03*
X10050000Y-9400000D03*
X9600000Y-21200000D03*
X19600000Y-20600000D03*
X2800000Y-31400000D03*
X24800000Y-11800000D03*
X17800000Y-6000000D03*
X19200000Y-6050000D03*
X14500000Y-21800000D03*
X23000000Y-14800000D03*
X18900000Y-23900000D03*
X17800000Y-1100000D03*
X8000000Y-32200000D03*
X3450000Y-2300000D03*
X16900000Y-1100000D03*
X18600000Y-11000000D03*
X5650000Y-7200000D03*
X17100000Y-22300000D03*
X15700000Y-21000000D03*
X22300000Y-22300000D03*
X15888069Y-17902560D03*
X10800000Y-9900000D03*
%TO.N,VBUS*%
X14700000Y-17150000D03*
X14600000Y-14800000D03*
X20800000Y-24900000D03*
X19800000Y-29400000D03*
X20800000Y-26500000D03*
X20700000Y-28400000D03*
X12400000Y-30800000D03*
X18775000Y-17175000D03*
X20800000Y-20800000D03*
X18000000Y-31100000D03*
X18200000Y-16800000D03*
X20700000Y-22700000D03*
X20700000Y-19200000D03*
X15200000Y-31200000D03*
X18850000Y-14200000D03*
X15537961Y-17227000D03*
X21000000Y-17400000D03*
X13575000Y-31175000D03*
X16600000Y-31200000D03*
X19100000Y-30100000D03*
%TO.N,VOUT2*%
X7200000Y-22800000D03*
X8400000Y-25800000D03*
X4550000Y-25800000D03*
X6800000Y-27450000D03*
X5700000Y-26300000D03*
X10600000Y-24600000D03*
X8400000Y-26600000D03*
X8400000Y-27800000D03*
X6800000Y-29850000D03*
X4200000Y-24650000D03*
%TO.N,D-*%
X14600000Y-15600000D03*
X16000000Y-16175000D03*
%TO.N,EN1*%
X19489714Y-14885039D03*
%TO.N,nFLT2*%
X5200000Y-32800000D03*
%TO.N,K5*%
X7200000Y-7000000D03*
%TO.N,K3*%
X4700000Y-7000000D03*
%TO.N,K1*%
X3050000Y-6150000D03*
%TO.N,K9*%
X10950000Y-6150000D03*
%TO.N,K7*%
X8400000Y-6700000D03*
%TO.N,K6*%
X7167574Y-2414817D03*
%TO.N,K8*%
X10189912Y-2154657D03*
%TO.N,K2*%
X3998000Y-3158831D03*
%TO.N,K4*%
X6095654Y-2380083D03*
%TD*%
D28*
%TO.N,VOUT1*%
X24200000Y-2450000D02*
X24200000Y-3450000D01*
X21000000Y-7800000D02*
X21300000Y-8100000D01*
X22000000Y-5300000D02*
X20900000Y-5300000D01*
D29*
X22500000Y-5800000D02*
X23500000Y-5800000D01*
D28*
X20750000Y-5400000D02*
X20750000Y-5450000D01*
X23300000Y-1600000D02*
X23350000Y-1600000D01*
X20600000Y-5600000D02*
X20600000Y-6400000D01*
X20600000Y-6400000D02*
X20600000Y-7600000D01*
X21300000Y-8100000D02*
X21900000Y-8100000D01*
X20900000Y-5300000D02*
X20800000Y-5400000D01*
X20750000Y-5450000D02*
X20600000Y-5600000D01*
X20800000Y-5400000D02*
X20750000Y-5400000D01*
X20800000Y-7800000D02*
X21000000Y-7800000D01*
X23350000Y-1600000D02*
X24200000Y-2450000D01*
X20600000Y-7600000D02*
X20800000Y-7800000D01*
D30*
%TO.N,VBUS*%
X13710000Y-31310000D02*
X13575000Y-31175000D01*
D28*
X18775000Y-17175000D02*
X19000000Y-17400000D01*
D31*
X14450000Y-14650000D02*
X13450000Y-14650000D01*
D30*
X14700000Y-17150000D02*
X14800000Y-17050000D01*
D29*
X20800000Y-19100000D02*
X20700000Y-19200000D01*
D28*
X19200000Y-17600000D02*
X20800000Y-17600000D01*
D29*
X20800000Y-17600000D02*
X20800000Y-19100000D01*
X13200000Y-30800000D02*
X13575000Y-31175000D01*
D32*
X13575000Y-31175000D02*
X13575000Y-32285000D01*
D31*
X15800000Y-17150000D02*
X16950000Y-17150000D01*
D29*
X20700000Y-22700000D02*
X20800000Y-22800000D01*
X20800000Y-19300000D02*
X20800000Y-20800000D01*
D31*
X16950000Y-14650000D02*
X16075000Y-14650000D01*
D29*
X20800000Y-28000000D02*
X20800000Y-28400000D01*
X20700000Y-28500000D02*
X19800000Y-29400000D01*
X16600000Y-31200000D02*
X16575000Y-31175000D01*
X15200000Y-31200000D02*
X15175000Y-31175000D01*
X20800000Y-20800000D02*
X20800000Y-22600000D01*
X20800000Y-26500000D02*
X20800000Y-28000000D01*
D31*
X18200000Y-16800000D02*
X17850000Y-17150000D01*
D29*
X20800000Y-24900000D02*
X20800000Y-26500000D01*
D32*
X13575000Y-32285000D02*
X13690000Y-32400000D01*
D33*
X19000000Y-17400000D02*
X19200000Y-17600000D01*
D31*
X15000000Y-17150000D02*
X14700000Y-17150000D01*
D29*
X20700000Y-19200000D02*
X20800000Y-19300000D01*
D31*
X15752000Y-17150000D02*
X16950000Y-17150000D01*
D30*
X18575000Y-17175000D02*
X18775000Y-17175000D01*
D29*
X15225000Y-31175000D02*
X15200000Y-31200000D01*
D30*
X17900000Y-14700000D02*
X17990065Y-14700000D01*
D29*
X18025000Y-31175000D02*
X16625000Y-31175000D01*
D34*
X14675000Y-14725000D02*
X14600000Y-14800000D01*
D29*
X24225000Y-24820000D02*
X20880000Y-24820000D01*
D31*
X17850000Y-17150000D02*
X16950000Y-17150000D01*
D33*
X21000000Y-17400000D02*
X20800000Y-17600000D01*
D31*
X16075000Y-14650000D02*
X16000000Y-14725000D01*
X18050577Y-16949423D02*
X18200000Y-16800000D01*
D30*
X14777000Y-17227000D02*
X14700000Y-17150000D01*
D29*
X20800000Y-28400000D02*
X20700000Y-28400000D01*
D30*
X15537961Y-17227000D02*
X14777000Y-17227000D01*
D31*
X15537961Y-17227000D02*
X15675000Y-17227000D01*
X16950000Y-14650000D02*
X17950000Y-14650000D01*
D30*
X18200000Y-16800000D02*
X18400000Y-16800000D01*
D29*
X18000000Y-31100000D02*
X18000000Y-31200000D01*
X20880000Y-24820000D02*
X20800000Y-24900000D01*
X20800000Y-22600000D02*
X20700000Y-22700000D01*
D30*
X18250000Y-16850000D02*
X18575000Y-17175000D01*
D29*
X19800000Y-29400000D02*
X19100000Y-30100000D01*
D31*
X15537961Y-17227000D02*
X15460961Y-17150000D01*
D29*
X12400000Y-30800000D02*
X13200000Y-30800000D01*
X20800000Y-22800000D02*
X20800000Y-24900000D01*
D30*
X15460961Y-17150000D02*
X15000000Y-17150000D01*
D33*
X18850000Y-14200000D02*
X18350000Y-14700000D01*
D31*
X16000000Y-14725000D02*
X14675000Y-14725000D01*
D29*
X19100000Y-30100000D02*
X18100000Y-31100000D01*
D33*
X20800000Y-18100000D02*
X20800000Y-17600000D01*
D34*
X14600000Y-14800000D02*
X14450000Y-14650000D01*
D30*
X14700000Y-17150000D02*
X15800000Y-17150000D01*
X18400000Y-16800000D02*
X18775000Y-17175000D01*
D31*
X15460961Y-17150000D02*
X14700000Y-17150000D01*
D29*
X16625000Y-31175000D02*
X16600000Y-31200000D01*
D31*
X15675000Y-17227000D02*
X15752000Y-17150000D01*
X15752000Y-17150000D02*
X15800000Y-17150000D01*
D29*
X15175000Y-31175000D02*
X13575000Y-31175000D01*
X20800000Y-28400000D02*
X20800000Y-28400000D01*
D34*
X17950000Y-14650000D02*
X17900000Y-14700000D01*
D30*
X18250000Y-16850000D02*
X18200000Y-16800000D01*
D29*
X16575000Y-31175000D02*
X15225000Y-31175000D01*
D30*
X18350000Y-14700000D02*
X17990065Y-14700000D01*
D29*
X18100000Y-31100000D02*
X18000000Y-31100000D01*
X20700000Y-28400000D02*
X20700000Y-28500000D01*
X18000000Y-31200000D02*
X18025000Y-31175000D01*
D31*
X13450000Y-17150000D02*
X14700000Y-17150000D01*
D28*
%TO.N,VOUT2*%
X5700000Y-26300000D02*
X5783352Y-26300000D01*
X4200000Y-24650000D02*
X4200000Y-25450000D01*
D33*
X8400000Y-27800000D02*
X8400000Y-26600000D01*
X8400000Y-26600000D02*
X8400000Y-25800000D01*
D28*
X6800000Y-27450000D02*
X6800000Y-29850000D01*
X4900000Y-26150000D02*
X5550000Y-26150000D01*
D29*
X9700000Y-23000000D02*
X10600000Y-23900000D01*
D28*
X4550000Y-25800000D02*
X4900000Y-26150000D01*
X5783352Y-26300000D02*
X6800000Y-27316648D01*
D33*
X9000000Y-28400000D02*
X8400000Y-27800000D01*
D28*
X6800000Y-27316648D02*
X6800000Y-27450000D01*
X4200000Y-25450000D02*
X4550000Y-25800000D01*
D33*
X9300000Y-28400000D02*
X9000000Y-28400000D01*
D28*
X7200000Y-22800000D02*
X7400000Y-23000000D01*
X5550000Y-26150000D02*
X5700000Y-26300000D01*
X7400000Y-23000000D02*
X9700000Y-23000000D01*
D29*
X10600000Y-23900000D02*
X10600000Y-24600000D01*
D35*
%TO.N,RX1-*%
X14269500Y-4844500D02*
X14400000Y-4975000D01*
X14400000Y-4975000D02*
X14269500Y-5105500D01*
X14482384Y-14019500D02*
X14919500Y-13582384D01*
X14650000Y-1600000D02*
X14650000Y-3119000D01*
X14400000Y-6500000D02*
X14400000Y-6225000D01*
X14269500Y-7699500D02*
X14269500Y-6630500D01*
X13580500Y-14019500D02*
X14482384Y-14019500D01*
X14269500Y-6094500D02*
X14400000Y-6225000D01*
X14019500Y-7949500D02*
X14269500Y-7699500D01*
X14019500Y-9950500D02*
X14019500Y-7949500D01*
X14269500Y-6630500D02*
X14400000Y-6500000D01*
X14919500Y-10850500D02*
X14019500Y-9950500D01*
X13450000Y-14150000D02*
X13580500Y-14019500D01*
X14269500Y-3499500D02*
X14269500Y-4844500D01*
X14919500Y-13582384D02*
X14919500Y-10850500D01*
X14269500Y-5105500D02*
X14269500Y-6094500D01*
X14650000Y-3119000D02*
X14269500Y-3499500D01*
%TO.N,RX1+*%
X13780500Y-8200000D02*
X13685250Y-8295250D01*
X14030500Y-4271500D02*
X14030500Y-4844500D01*
X13900000Y-4975000D02*
X14030500Y-5105500D01*
X14410999Y-2760999D02*
X14410999Y-3020001D01*
X13629029Y-4081000D02*
X13724279Y-4176250D01*
X13470916Y-8581000D02*
X13566166Y-8676250D01*
X14030500Y-6094500D02*
X13900000Y-6225000D01*
X13780500Y-7850500D02*
X13780500Y-8200000D01*
X13780500Y-8771500D02*
X13780500Y-9202357D01*
X13724279Y-4176250D02*
X13935250Y-4176250D01*
X14030500Y-5105500D02*
X14030500Y-6094500D01*
X14680500Y-10949500D02*
X14680500Y-13483384D01*
X14030500Y-3700000D02*
X13935250Y-3795250D01*
X13629029Y-3890500D02*
X13629029Y-4081000D01*
X13566166Y-8295250D02*
X13470916Y-8390500D01*
X14030500Y-4844500D02*
X13900000Y-4975000D01*
X13685250Y-8295250D02*
X13566166Y-8295250D01*
X13566166Y-8676250D02*
X13685250Y-8676250D01*
X13935250Y-4176250D02*
X14030500Y-4271500D01*
X14383384Y-13780500D02*
X13580500Y-13780500D01*
X13780500Y-10049500D02*
X14680500Y-10949500D01*
X13935250Y-3795250D02*
X13724279Y-3795250D01*
X13580500Y-13780500D02*
X13450000Y-13650000D01*
X14030500Y-3400500D02*
X14030500Y-3700000D01*
X14030500Y-7600500D02*
X13780500Y-7850500D01*
X14030500Y-6630500D02*
X14030500Y-7600500D01*
X14000000Y-2350000D02*
X14410999Y-2760999D01*
X13900000Y-6500000D02*
X14030500Y-6630500D01*
X14410999Y-3020001D02*
X14030500Y-3400500D01*
X13780500Y-9202357D02*
X13780500Y-10049500D01*
X13900000Y-6225000D02*
X13900000Y-6500000D01*
X13470916Y-8390500D02*
X13470916Y-8581000D01*
X13685250Y-8676250D02*
X13780500Y-8771500D01*
X13724279Y-3795250D02*
X13629029Y-3890500D01*
X14680500Y-13483384D02*
X14383384Y-13780500D01*
%TO.N,TX1+*%
X15030500Y-6630500D02*
X14900000Y-6500000D01*
X15030500Y-4844500D02*
X14900000Y-4975000D01*
X15030500Y-7599500D02*
X15030500Y-6630500D01*
X15030500Y-4231502D02*
X15030500Y-4844500D01*
X15480500Y-13587119D02*
X15480500Y-8049500D01*
X15912881Y-14019500D02*
X15480500Y-13587119D01*
X15030500Y-5105500D02*
X15030500Y-6094500D01*
X15030500Y-6094500D02*
X14900000Y-6225000D01*
X14900000Y-6500000D02*
X14900000Y-6225000D01*
X14900000Y-4975000D02*
X15030500Y-5105500D01*
X15950000Y-1600000D02*
X15950000Y-3312002D01*
X16950000Y-14150000D02*
X16819500Y-14019500D01*
X16819500Y-14019500D02*
X15912881Y-14019500D01*
X15950000Y-3312002D02*
X15030500Y-4231502D01*
X15480500Y-8049500D02*
X15030500Y-7599500D01*
%TO.N,D+*%
X14850000Y-16150000D02*
X13450000Y-16150000D01*
D34*
X16950000Y-15650000D02*
X16750000Y-15650000D01*
D35*
X16530500Y-4569500D02*
X16530500Y-4552554D01*
X15350000Y-15650000D02*
X14850000Y-16150000D01*
X17465000Y-15650000D02*
X16950000Y-15650000D01*
X16400000Y-6225000D02*
X16400000Y-4975000D01*
X16400000Y-4975000D02*
X16400000Y-4700000D01*
X22931806Y-18769000D02*
X22836556Y-18673750D01*
X16950000Y-15650000D02*
X15350000Y-15650000D01*
X19600000Y-800000D02*
X21800000Y-800000D01*
X22836556Y-18673750D02*
X22414750Y-18673750D01*
X22414750Y-18673750D02*
X22319500Y-18578500D01*
X22836556Y-19054750D02*
X22931806Y-18959500D01*
X17354500Y-3845500D02*
X18354500Y-3845500D01*
X22000000Y-1000000D02*
X22000000Y-1600000D01*
X22609500Y-20890500D02*
X22319500Y-20600500D01*
X16530500Y-4552554D02*
X16716054Y-4367000D01*
X22319500Y-17500000D02*
X22319500Y-16900500D01*
X24225000Y-19740000D02*
X23074500Y-20890500D01*
X19549500Y-16380500D02*
X18949500Y-15780500D01*
X22319500Y-16900500D02*
X21799500Y-16380500D01*
X18354500Y-3845500D02*
X18600000Y-3600000D01*
X16400000Y-4700000D02*
X16530500Y-4569500D01*
X22319500Y-18578500D02*
X22319500Y-17500000D01*
X22414750Y-19054750D02*
X22836556Y-19054750D01*
X23074500Y-20890500D02*
X22609500Y-20890500D01*
X18949500Y-15780500D02*
X17595500Y-15780500D01*
X16716054Y-4367000D02*
X16833000Y-4367000D01*
X22319500Y-19150000D02*
X22414750Y-19054750D01*
X18600000Y-3600000D02*
X18600000Y-1800000D01*
X21799500Y-16380500D02*
X19549500Y-16380500D01*
X17595500Y-15780500D02*
X17465000Y-15650000D01*
X16725000Y-15625000D02*
X16650000Y-15700000D01*
X22319500Y-20600500D02*
X22319500Y-19150000D01*
X16833000Y-4367000D02*
X17354500Y-3845500D01*
X21800000Y-800000D02*
X22000000Y-1000000D01*
X22931806Y-18959500D02*
X22931806Y-18769000D01*
X18600000Y-1800000D02*
X19600000Y-800000D01*
%TO.N,TX1-*%
X15511184Y-4088817D02*
X15500000Y-4100000D01*
X15269500Y-6094500D02*
X15400000Y-6225000D01*
X16600000Y-2350000D02*
X16189001Y-2760999D01*
X15933837Y-8661459D02*
X15814750Y-8661459D01*
X15814750Y-8661459D02*
X15719500Y-8756709D01*
X15400000Y-4975000D02*
X15269500Y-5105500D01*
X15500000Y-4100000D02*
X15269500Y-4330500D01*
X15814750Y-8280459D02*
X15933837Y-8280459D01*
X16029087Y-8566209D02*
X15933837Y-8661459D01*
X15780593Y-3954113D02*
X15645889Y-3954114D01*
X15645889Y-3954114D02*
X15511184Y-4088817D01*
X16050000Y-3550000D02*
X16050000Y-3684704D01*
X15269500Y-5105500D02*
X15269500Y-6094500D01*
X15400000Y-6500000D02*
X15269500Y-6630500D01*
X15400000Y-6225000D02*
X15400000Y-6500000D01*
X16011881Y-13780500D02*
X16819500Y-13780500D01*
X15269500Y-6630500D02*
X15269500Y-7500500D01*
X16199186Y-3968595D02*
X16064483Y-4103299D01*
X16029087Y-8375709D02*
X16029087Y-8566209D01*
X15269500Y-7500500D02*
X15719500Y-7950500D01*
X16064483Y-4103299D02*
X15929779Y-4103299D01*
X15929779Y-4103299D02*
X15780593Y-3954113D01*
X16189001Y-3410999D02*
X16050000Y-3550000D01*
X16189001Y-2760999D02*
X16189001Y-3410999D01*
X15719500Y-9900000D02*
X15719500Y-13488119D01*
X16819500Y-13780500D02*
X16950000Y-13650000D01*
X15269500Y-4330500D02*
X15269500Y-4844500D01*
X15269500Y-4844500D02*
X15400000Y-4975000D01*
X15719500Y-7950500D02*
X15719500Y-8185209D01*
X16199187Y-3833891D02*
X16199186Y-3968595D01*
X15933837Y-8280459D02*
X16029087Y-8375709D01*
X15719500Y-13488119D02*
X16011881Y-13780500D01*
X16050000Y-3684704D02*
X16199187Y-3833891D01*
X15719500Y-8756709D02*
X15719500Y-9900000D01*
X15719500Y-8185209D02*
X15814750Y-8280459D01*
%TO.N,D-*%
X16900000Y-4975000D02*
X16900000Y-4700000D01*
X22550000Y-2350000D02*
X22650000Y-2350000D01*
X16900000Y-4700000D02*
X17515500Y-4084500D01*
X13450000Y-15650000D02*
X14550000Y-15650000D01*
X17515500Y-4084500D02*
X18515500Y-4084500D01*
X18850500Y-16019500D02*
X19450500Y-16619500D01*
X18515500Y-4084500D02*
X19600000Y-3000000D01*
X22080500Y-20699500D02*
X22510500Y-21129500D01*
X19600000Y-3000000D02*
X21900000Y-3000000D01*
X21900000Y-3000000D02*
X22550000Y-2350000D01*
X17465000Y-16150000D02*
X17595500Y-16019500D01*
X22510500Y-21129500D02*
X23074500Y-21129500D01*
X22080500Y-16999500D02*
X22080500Y-20699500D01*
X14550000Y-15650000D02*
X14600000Y-15600000D01*
X16950000Y-16150000D02*
X17465000Y-16150000D01*
X16900000Y-6225000D02*
X16900000Y-4975000D01*
D34*
X16000000Y-16175000D02*
X16025000Y-16150000D01*
D35*
X23074500Y-21129500D02*
X24225000Y-22280000D01*
D34*
X16025000Y-16150000D02*
X16950000Y-16150000D01*
D35*
X21700500Y-16619500D02*
X22080500Y-16999500D01*
X19450500Y-16619500D02*
X21700500Y-16619500D01*
X17595500Y-16019500D02*
X18850500Y-16019500D01*
D32*
%TO.N,EN1*%
X19931675Y-15327000D02*
X24073000Y-15327000D01*
X24073000Y-15327000D02*
X24400000Y-15000000D01*
X19489714Y-14885039D02*
X19931675Y-15327000D01*
%TO.N,nFLT2*%
X15037000Y-32073000D02*
X14710000Y-32400000D01*
X20860000Y-31600000D02*
X20387000Y-32073000D01*
X5527000Y-33127000D02*
X5200000Y-32800000D01*
X13983000Y-33127000D02*
X5527000Y-33127000D01*
X14710000Y-32400000D02*
X13983000Y-33127000D01*
X20387000Y-32073000D02*
X15037000Y-32073000D01*
D35*
%TO.N,2_D-*%
X10950500Y-26280500D02*
X10360999Y-26870001D01*
X12449500Y-26280500D02*
X10950500Y-26280500D01*
X14900000Y-23875000D02*
X14900000Y-26531000D01*
X14350500Y-27080500D02*
X13249500Y-27080500D01*
X13249500Y-27080500D02*
X12449500Y-26280500D01*
X10360999Y-27239001D02*
X9950000Y-27650000D01*
X14900000Y-26531000D02*
X14350500Y-27080500D01*
X10360999Y-26870001D02*
X10360999Y-27239001D01*
%TO.N,TX2+*%
X16435250Y-26376250D02*
X16530500Y-26471500D01*
X16129026Y-26090500D02*
X16129026Y-26281000D01*
X14880500Y-21318498D02*
X15331001Y-21768999D01*
X15869816Y-22307814D02*
X15974691Y-22412689D01*
X15246793Y-21987909D02*
X15246793Y-22122613D01*
X16435250Y-25995250D02*
X16224276Y-25995250D01*
X16530500Y-22968498D02*
X16530500Y-23544500D01*
X15735111Y-22173108D02*
X15869816Y-22307814D01*
X15600407Y-22173108D02*
X15735111Y-22173108D01*
X16530500Y-26869500D02*
X16410999Y-26989001D01*
X16530500Y-25900000D02*
X16435250Y-25995250D01*
X15516200Y-22257316D02*
X15600407Y-22173108D01*
X16400000Y-24925000D02*
X16530500Y-24794500D01*
X14450500Y-18019500D02*
X14880500Y-18449500D01*
X13580500Y-18019500D02*
X14450500Y-18019500D01*
X16224276Y-25995250D02*
X16129026Y-26090500D01*
X16530500Y-23544500D02*
X16400000Y-23675000D01*
X15331001Y-21903702D02*
X15246793Y-21987909D01*
X16530500Y-26471500D02*
X16530500Y-26700000D01*
X16530500Y-24794500D02*
X16530500Y-23805500D01*
X15381496Y-22257316D02*
X15516200Y-22257316D01*
X13450000Y-18150000D02*
X13580500Y-18019500D01*
X14880500Y-18449500D02*
X14880500Y-21318498D01*
X16410999Y-26989001D02*
X16410999Y-27239001D01*
X16129026Y-26281000D02*
X16224276Y-26376250D01*
X16530500Y-23805500D02*
X16400000Y-23675000D01*
X16410999Y-27239001D02*
X16000000Y-27650000D01*
X16224276Y-26376250D02*
X16435250Y-26376250D01*
X16530500Y-26700000D02*
X16530500Y-26869500D01*
X16530500Y-25055500D02*
X16530500Y-25900000D01*
X16400000Y-24925000D02*
X16530500Y-25055500D01*
X15246793Y-22122613D02*
X15381496Y-22257316D01*
X15331001Y-21768999D02*
X15331001Y-21903702D01*
X15974691Y-22412689D02*
X16530500Y-22968498D01*
%TO.N,2_D+*%
X12350500Y-26519500D02*
X11049500Y-26519500D01*
X14449500Y-27319500D02*
X13150500Y-27319500D01*
X13150500Y-27319500D02*
X12350500Y-26519500D01*
X10600000Y-26969000D02*
X10600000Y-28400000D01*
X15233000Y-26536000D02*
X14449500Y-27319500D01*
X15233000Y-25792000D02*
X15233000Y-26536000D01*
X15400000Y-25625000D02*
X15233000Y-25792000D01*
X15400000Y-23875000D02*
X15400000Y-25125000D01*
X15400000Y-25125000D02*
X15400000Y-25625000D01*
X11049500Y-26519500D02*
X10600000Y-26969000D01*
%TO.N,RX2+*%
X17864750Y-25780459D02*
X18075718Y-25780459D01*
X17769500Y-22799500D02*
X19027000Y-21542000D01*
X18189001Y-26904251D02*
X18189001Y-27239001D01*
X17864750Y-26161459D02*
X17769500Y-26256709D01*
X17900000Y-24925000D02*
X17900000Y-24650000D01*
X18170968Y-25875709D02*
X18170968Y-26066209D01*
X17769500Y-23805500D02*
X17900000Y-23675000D01*
X17900000Y-24925000D02*
X17900000Y-25200000D01*
X17769500Y-26484750D02*
X17842375Y-26557625D01*
X17842375Y-26557625D02*
X18189001Y-26904251D01*
X18149500Y-17780500D02*
X17595500Y-17780500D01*
X17769500Y-25685209D02*
X17864750Y-25780459D01*
X18075718Y-25780459D02*
X18170968Y-25875709D01*
X17900000Y-24650000D02*
X17769500Y-24519500D01*
X17769500Y-25330500D02*
X17769500Y-25685209D01*
X19027000Y-18658000D02*
X18149500Y-17780500D01*
X17900000Y-23675000D02*
X17769500Y-23544500D01*
X17769500Y-26256709D02*
X17769500Y-26484750D01*
X17465000Y-17650000D02*
X16950000Y-17650000D01*
X19027000Y-21542000D02*
X19027000Y-18658000D01*
X17900000Y-25200000D02*
X17769500Y-25330500D01*
X17769500Y-24519500D02*
X17769500Y-23805500D01*
X18170968Y-26066209D02*
X18075718Y-26161459D01*
X18189001Y-27239001D02*
X18600000Y-27650000D01*
X17769500Y-23544500D02*
X17769500Y-22799500D01*
X18075718Y-26161459D02*
X17864750Y-26161459D01*
X17595500Y-17780500D02*
X17465000Y-17650000D01*
%TO.N,RX2-*%
X17595500Y-18019500D02*
X18050500Y-18019500D01*
X16950000Y-18150000D02*
X17465000Y-18150000D01*
X17400000Y-24925000D02*
X17400000Y-24650000D01*
X17530500Y-23544500D02*
X17400000Y-23675000D01*
X17530500Y-24519500D02*
X17530500Y-23805500D01*
X18677750Y-20876250D02*
X18773000Y-20971500D01*
X18552442Y-20876250D02*
X18677750Y-20876250D01*
X18773000Y-20971500D02*
X18773000Y-21300000D01*
X18773000Y-21300000D02*
X18773000Y-21458000D01*
X17465000Y-18150000D02*
X17595500Y-18019500D01*
X18552442Y-20495250D02*
X18457192Y-20590500D01*
X18457192Y-20781000D02*
X18552442Y-20876250D01*
X17530500Y-22700500D02*
X17530500Y-23544500D01*
X17950000Y-27050000D02*
X17530500Y-26630500D01*
X18773000Y-20400000D02*
X18677750Y-20495250D01*
X18050500Y-18019500D02*
X18773000Y-18742000D01*
X17400000Y-24650000D02*
X17530500Y-24519500D01*
X17950000Y-28400000D02*
X17950000Y-27050000D01*
X17530500Y-23805500D02*
X17400000Y-23675000D01*
X18457192Y-20590500D02*
X18457192Y-20781000D01*
X17950000Y-28400000D02*
X18000000Y-28350000D01*
X17530500Y-25330500D02*
X17400000Y-25200000D01*
X18677750Y-20495250D02*
X18552442Y-20495250D01*
X18773000Y-18742000D02*
X18773000Y-20400000D01*
X17530500Y-26630500D02*
X17530500Y-25330500D01*
X18773000Y-21458000D02*
X17530500Y-22700500D01*
X17400000Y-25200000D02*
X17400000Y-24925000D01*
%TO.N,TX2-*%
X16769500Y-22869500D02*
X15119500Y-21219500D01*
X16769500Y-24794500D02*
X16769500Y-23805500D01*
X16769500Y-23805500D02*
X16900000Y-23675000D01*
X16769500Y-25055500D02*
X16900000Y-24925000D01*
X14549500Y-17780500D02*
X13580500Y-17780500D01*
X15119500Y-21219500D02*
X15119500Y-18350500D01*
X16650000Y-27150000D02*
X16769500Y-27030500D01*
X13580500Y-17780500D02*
X13450000Y-17650000D01*
X16900000Y-24925000D02*
X16769500Y-24794500D01*
X16900000Y-23675000D02*
X16769500Y-23544500D01*
X16769500Y-27030500D02*
X16769500Y-25055500D01*
X15119500Y-18350500D02*
X14549500Y-17780500D01*
X16650000Y-28400000D02*
X16650000Y-27150000D01*
X16769500Y-23544500D02*
X16769500Y-22869500D01*
D31*
%TO.N,Shield*%
X13730000Y-11630000D02*
X13730000Y-11687423D01*
X12880423Y-10780423D02*
X13730000Y-11630000D01*
X11860000Y-10750000D02*
X12823000Y-10750000D01*
D30*
X13730000Y-11687423D02*
X13730000Y-11800000D01*
D31*
X12823000Y-10780423D02*
X12880423Y-10780423D01*
D32*
%TO.N,K5*%
X7300000Y-7000000D02*
X7300000Y-7000000D01*
X7200000Y-7000000D02*
X7300000Y-7000000D01*
X7050000Y-7550000D02*
X7200000Y-7400000D01*
X7300000Y-6700000D02*
X7300000Y-5675000D01*
X5940000Y-7710000D02*
X6100000Y-7550000D01*
X5940000Y-8600000D02*
X5940000Y-7710000D01*
X7300000Y-7000000D02*
X7300000Y-6700000D01*
X7200000Y-7400000D02*
X7200000Y-7000000D01*
X6100000Y-7550000D02*
X7050000Y-7550000D01*
%TO.N,K3*%
X5100000Y-6600000D02*
X5816000Y-6600000D01*
X5816000Y-6600000D02*
X6350000Y-6066000D01*
X4300000Y-7000000D02*
X4000000Y-7300000D01*
X4700000Y-7000000D02*
X5100000Y-6600000D01*
X4700000Y-7000000D02*
X4300000Y-7000000D01*
X4000000Y-7300000D02*
X4000000Y-7873000D01*
X4000000Y-7873000D02*
X4670000Y-8543000D01*
X6350000Y-6066000D02*
X6350000Y-5600000D01*
X4670000Y-8543000D02*
X4670000Y-8600000D01*
%TO.N,K1*%
X3050000Y-6150000D02*
X3100000Y-6200000D01*
X5400000Y-5600000D02*
X5400000Y-5398000D01*
X5100000Y-6200000D02*
X5400000Y-5900000D01*
X5400000Y-5398000D02*
X5350000Y-5348000D01*
X5400000Y-5900000D02*
X5400000Y-5600000D01*
X3400000Y-6500000D02*
X3400000Y-8600000D01*
X3050000Y-6150000D02*
X3400000Y-6500000D01*
X3100000Y-6200000D02*
X5100000Y-6200000D01*
%TO.N,K9*%
X10950000Y-6150000D02*
X10950000Y-8250000D01*
X9600000Y-5850000D02*
X9350000Y-5600000D01*
X10950000Y-8250000D02*
X10600000Y-8600000D01*
X10650000Y-5850000D02*
X9600000Y-5850000D01*
X10950000Y-6150000D02*
X10650000Y-5850000D01*
X10600000Y-8600000D02*
X8480000Y-8600000D01*
%TO.N,K7*%
X7350000Y-7850000D02*
X7210000Y-7990000D01*
X8400000Y-6700000D02*
X9500000Y-6700000D01*
X7210000Y-7990000D02*
X7210000Y-8600000D01*
X9500000Y-7850000D02*
X7350000Y-7850000D01*
X8400000Y-5650000D02*
X8350000Y-5600000D01*
X9700000Y-7650000D02*
X9500000Y-7850000D01*
X8400000Y-6700000D02*
X8400000Y-5650000D01*
X9700000Y-6900000D02*
X9700000Y-7650000D01*
X9500000Y-6700000D02*
X9700000Y-6900000D01*
%TO.N,K6*%
X7167574Y-2414817D02*
X7212054Y-2370337D01*
X7212054Y-2222054D02*
X7167574Y-2266534D01*
X7212054Y-2222054D02*
X6872054Y-2222054D01*
X5990000Y-1740000D02*
X5990000Y-1000000D01*
X7850000Y-3097243D02*
X7850000Y-3600000D01*
X7212054Y-2370337D02*
X7212054Y-2222054D01*
X6872054Y-2222054D02*
X6500000Y-1850000D01*
X7167574Y-2266534D02*
X7167574Y-2414817D01*
X6100000Y-1850000D02*
X5990000Y-1740000D01*
X7167574Y-2414817D02*
X7850000Y-3097243D01*
X6500000Y-1850000D02*
X6100000Y-1850000D01*
D35*
%TO.N,K8*%
X8850000Y-3350000D02*
X8850000Y-3600000D01*
X10045343Y-2154657D02*
X8850000Y-3350000D01*
X10189912Y-2154657D02*
X10045343Y-2154657D01*
X7350000Y-1700000D02*
X7260000Y-1610000D01*
X9735255Y-1700000D02*
X7350000Y-1700000D01*
X7260000Y-1610000D02*
X7260000Y-1000000D01*
X10189912Y-2154657D02*
X9735255Y-1700000D01*
D34*
%TO.N,K2*%
X4106831Y-3050000D02*
X5430646Y-3050000D01*
X3998000Y-3158831D02*
X4106831Y-3050000D01*
X2750000Y-1100000D02*
X2850000Y-1000000D01*
X2750000Y-3150000D02*
X2750000Y-1100000D01*
X2850000Y-1000000D02*
X3450000Y-1000000D01*
X2758831Y-3158831D02*
X2750000Y-3150000D01*
X3998000Y-3158831D02*
X2758831Y-3158831D01*
X5430646Y-3050000D02*
X5915323Y-3534677D01*
D32*
%TO.N,K4*%
X6095654Y-2380083D02*
X6100083Y-2380083D01*
X4177000Y-2077000D02*
X4177000Y-1543000D01*
X6100083Y-2380083D02*
X6850000Y-3130000D01*
X6083737Y-2392000D02*
X5960000Y-2392000D01*
X4480083Y-2380083D02*
X4177000Y-2077000D01*
X6095654Y-2380083D02*
X4480083Y-2380083D01*
X6095654Y-2380083D02*
X6083737Y-2392000D01*
X4177000Y-1543000D02*
X4720000Y-1000000D01*
%TD*%
%TA.AperFunction,Conductor*%
%TO.N,GND*%
G36*
X19572959Y-514352D02*
G01*
X19587311Y-549000D01*
X19572959Y-583648D01*
X19557062Y-594270D01*
X19514463Y-611914D01*
X19514464Y-611915D01*
X19483027Y-624936D01*
X19453982Y-653981D01*
X19424937Y-683027D01*
X18424937Y-1683026D01*
X18424936Y-1683027D01*
X18421978Y-1690171D01*
X18421978Y-1690172D01*
X18393499Y-1758922D01*
X18393499Y-1846776D01*
X18393500Y-1846785D01*
X18393500Y-3494169D01*
X18379148Y-3528817D01*
X18283317Y-3624648D01*
X18248669Y-3639000D01*
X17313422Y-3639000D01*
X17296192Y-3646138D01*
X17296191Y-3646138D01*
X17245451Y-3667155D01*
X17237527Y-3670437D01*
X17179437Y-3728527D01*
X17179436Y-3728528D01*
X16761818Y-4146147D01*
X16727170Y-4160499D01*
X16674976Y-4160499D01*
X16639742Y-4175095D01*
X16599080Y-4191937D01*
X16577643Y-4213375D01*
X16540991Y-4250027D01*
X16413526Y-4377492D01*
X16405867Y-4385150D01*
X16371222Y-4399500D01*
X16302792Y-4399500D01*
X16237013Y-4412583D01*
X16176772Y-4452835D01*
X16139989Y-4460151D01*
X16122326Y-4452835D01*
X16062792Y-4413055D01*
X16050000Y-4410510D01*
X16050000Y-5539488D01*
X16062791Y-5536944D01*
X16117277Y-5500538D01*
X16154059Y-5493221D01*
X16185242Y-5514057D01*
X16193500Y-5541280D01*
X16193500Y-5658718D01*
X16179148Y-5693366D01*
X16144500Y-5707718D01*
X16117278Y-5699460D01*
X16062794Y-5663056D01*
X16050000Y-5660510D01*
X16050000Y-6789488D01*
X16062790Y-6786944D01*
X16122325Y-6747164D01*
X16159107Y-6739847D01*
X16176770Y-6747163D01*
X16237014Y-6787417D01*
X16302789Y-6800500D01*
X16497210Y-6800499D01*
X16562986Y-6787417D01*
X16622777Y-6747465D01*
X16659560Y-6740150D01*
X16677222Y-6747465D01*
X16737014Y-6787417D01*
X16802789Y-6800500D01*
X16997210Y-6800499D01*
X17062986Y-6787417D01*
X17137577Y-6737577D01*
X17187417Y-6662986D01*
X17200500Y-6597211D01*
X17200499Y-5852790D01*
X17187417Y-5787014D01*
X17137577Y-5712423D01*
X17137576Y-5712421D01*
X17128276Y-5706207D01*
X17107441Y-5675024D01*
X17106500Y-5665466D01*
X17106500Y-5534532D01*
X17120852Y-5499884D01*
X17128276Y-5493791D01*
X17137577Y-5487577D01*
X17187417Y-5412986D01*
X17200500Y-5347211D01*
X17200499Y-4711830D01*
X17214851Y-4677183D01*
X17586683Y-4305352D01*
X17621331Y-4291000D01*
X18468715Y-4291000D01*
X18468723Y-4291001D01*
X18474424Y-4291001D01*
X18556574Y-4291001D01*
X18556576Y-4291001D01*
X18601051Y-4272578D01*
X18632473Y-4259563D01*
X18690563Y-4201473D01*
X18690563Y-4201472D01*
X18697452Y-4194583D01*
X18697453Y-4194580D01*
X19671183Y-3220852D01*
X19705831Y-3206500D01*
X21853215Y-3206500D01*
X21853223Y-3206501D01*
X21858924Y-3206501D01*
X21941074Y-3206501D01*
X21941076Y-3206501D01*
X21991186Y-3185744D01*
X22016973Y-3175063D01*
X22075063Y-3116973D01*
X22075063Y-3116972D01*
X22081952Y-3110083D01*
X22081954Y-3110080D01*
X22303035Y-2888998D01*
X22337682Y-2874647D01*
X22356430Y-2878376D01*
X22493238Y-2935044D01*
X22650000Y-2955682D01*
X22806762Y-2935044D01*
X22952841Y-2874536D01*
X23078282Y-2778282D01*
X23174536Y-2652841D01*
X23235044Y-2506762D01*
X23250367Y-2390371D01*
X23269117Y-2357894D01*
X23305342Y-2348187D01*
X23333595Y-2362120D01*
X23635148Y-2663672D01*
X23649500Y-2698320D01*
X23649500Y-3522477D01*
X23687015Y-3662483D01*
X23687016Y-3662487D01*
X23751126Y-3773526D01*
X23759491Y-3788015D01*
X23861985Y-3890509D01*
X23907930Y-3917035D01*
X23987512Y-3962983D01*
X23987514Y-3962983D01*
X23987515Y-3962984D01*
X24014867Y-3970313D01*
X24127522Y-4000500D01*
X24127525Y-4000500D01*
X24272477Y-4000500D01*
X24342480Y-3981742D01*
X24412485Y-3962984D01*
X24538015Y-3890509D01*
X24640509Y-3788015D01*
X24712984Y-3662485D01*
X24740001Y-3561657D01*
X24750500Y-3522477D01*
X24750500Y-2377522D01*
X24716827Y-2251857D01*
X24712984Y-2237515D01*
X24711072Y-2234204D01*
X24682055Y-2183945D01*
X24640510Y-2111986D01*
X24232681Y-1704157D01*
X23823020Y-1294495D01*
X23818794Y-1289676D01*
X23728282Y-1171718D01*
X23728281Y-1171717D01*
X23602841Y-1075464D01*
X23602836Y-1075461D01*
X23456761Y-1014955D01*
X23300000Y-994318D01*
X23143238Y-1014955D01*
X22997163Y-1075461D01*
X22997158Y-1075464D01*
X22871718Y-1171717D01*
X22871717Y-1171718D01*
X22775464Y-1297158D01*
X22775461Y-1297163D01*
X22714955Y-1443238D01*
X22698581Y-1567619D01*
X22679829Y-1600097D01*
X22643604Y-1609804D01*
X22611126Y-1591052D01*
X22601419Y-1567619D01*
X22585044Y-1443238D01*
X22524538Y-1297163D01*
X22524535Y-1297158D01*
X22509950Y-1278151D01*
X22428282Y-1171718D01*
X22302841Y-1075464D01*
X22302834Y-1075461D01*
X22236749Y-1048087D01*
X22210231Y-1021568D01*
X22206501Y-1002817D01*
X22206501Y-958924D01*
X22188084Y-914465D01*
X22188083Y-914462D01*
X22175063Y-883027D01*
X22116973Y-824937D01*
X22116971Y-824936D01*
X22114180Y-822145D01*
X22114180Y-822144D01*
X22114176Y-822141D01*
X21981955Y-689920D01*
X21981955Y-689919D01*
X21916975Y-624938D01*
X21916973Y-624937D01*
X21885535Y-611915D01*
X21842937Y-594270D01*
X21816419Y-567751D01*
X21816419Y-530248D01*
X21842938Y-503730D01*
X21861689Y-500000D01*
X25500500Y-500000D01*
X25535148Y-514352D01*
X25549500Y-549000D01*
X25549500Y-33300500D01*
X25535148Y-33335148D01*
X25500500Y-33349500D01*
X14233058Y-33349500D01*
X14198410Y-33335148D01*
X14184058Y-33300500D01*
X14198410Y-33265852D01*
X14579409Y-32884851D01*
X14614057Y-32870499D01*
X14887618Y-32870499D01*
X14887622Y-32870499D01*
X14911498Y-32867730D01*
X15009141Y-32824616D01*
X15084616Y-32749141D01*
X15127730Y-32651498D01*
X15127730Y-32651496D01*
X15127731Y-32651494D01*
X15130498Y-32627640D01*
X15130497Y-32627640D01*
X15130500Y-32627623D01*
X15130499Y-32372499D01*
X15144851Y-32337852D01*
X15179499Y-32323500D01*
X20146959Y-32323500D01*
X20178043Y-32334622D01*
X20181979Y-32337852D01*
X20301455Y-32435905D01*
X20301458Y-32435907D01*
X20301462Y-32435910D01*
X20475273Y-32528814D01*
X20663868Y-32586024D01*
X20860000Y-32605341D01*
X21056132Y-32586024D01*
X21244727Y-32528814D01*
X21418538Y-32435910D01*
X21570883Y-32310883D01*
X21695910Y-32158538D01*
X21788814Y-31984727D01*
X21846024Y-31796132D01*
X21865341Y-31600000D01*
X21846024Y-31403868D01*
X21788814Y-31215273D01*
X21695910Y-31041462D01*
X21695907Y-31041458D01*
X21695905Y-31041455D01*
X21642537Y-30976427D01*
X21570883Y-30889117D01*
X21499227Y-30830310D01*
X21418544Y-30764094D01*
X21418541Y-30764092D01*
X21418539Y-30764091D01*
X21418538Y-30764090D01*
X21364444Y-30735176D01*
X22399500Y-30735176D01*
X22399500Y-32464823D01*
X22408232Y-32508721D01*
X22441495Y-32558504D01*
X22467594Y-32575942D01*
X22491278Y-32591767D01*
X22535180Y-32600500D01*
X24264820Y-32600500D01*
X24308722Y-32591767D01*
X24358504Y-32558504D01*
X24391767Y-32508722D01*
X24400500Y-32464820D01*
X24400500Y-30735180D01*
X24391767Y-30691278D01*
X24378342Y-30671186D01*
X24358504Y-30641495D01*
X24308721Y-30608232D01*
X24264823Y-30599500D01*
X24264820Y-30599500D01*
X22535180Y-30599500D01*
X22535176Y-30599500D01*
X22491278Y-30608232D01*
X22441495Y-30641495D01*
X22408232Y-30691278D01*
X22399500Y-30735176D01*
X21364444Y-30735176D01*
X21338592Y-30721358D01*
X21244726Y-30671185D01*
X21056132Y-30613976D01*
X20860000Y-30594659D01*
X20663867Y-30613976D01*
X20663866Y-30613976D01*
X20475273Y-30671185D01*
X20301458Y-30764092D01*
X20301455Y-30764094D01*
X20149117Y-30889117D01*
X20024094Y-31041455D01*
X20024092Y-31041458D01*
X19931185Y-31215273D01*
X19873976Y-31403866D01*
X19873976Y-31403867D01*
X19854659Y-31599999D01*
X19854659Y-31600000D01*
X19871274Y-31768697D01*
X19860387Y-31804585D01*
X19827313Y-31822264D01*
X19822510Y-31822500D01*
X18400763Y-31822500D01*
X18366115Y-31808148D01*
X18351763Y-31773500D01*
X18366115Y-31738852D01*
X18373540Y-31732758D01*
X18414669Y-31705277D01*
X18530276Y-31589670D01*
X18530277Y-31589669D01*
X19605277Y-30514669D01*
X20305276Y-29814670D01*
X20305276Y-29814669D01*
X21205276Y-28914669D01*
X21205281Y-28914660D01*
X21206436Y-28913254D01*
X21213254Y-28906436D01*
X21214660Y-28905281D01*
X21214669Y-28905276D01*
X21305276Y-28814669D01*
X21376465Y-28708127D01*
X21425501Y-28589744D01*
X21450500Y-28464069D01*
X21450500Y-28335931D01*
X21450500Y-28000000D01*
X21644341Y-28000000D01*
X21664937Y-28235410D01*
X21664938Y-28235416D01*
X21726094Y-28463655D01*
X21726095Y-28463660D01*
X21825963Y-28677828D01*
X21825970Y-28677840D01*
X21961500Y-28871395D01*
X21961506Y-28871402D01*
X22128597Y-29038493D01*
X22128604Y-29038499D01*
X22322159Y-29174029D01*
X22322171Y-29174036D01*
X22536339Y-29273904D01*
X22536344Y-29273905D01*
X22764583Y-29335061D01*
X22764587Y-29335061D01*
X22764592Y-29335063D01*
X23000000Y-29355659D01*
X23235408Y-29335063D01*
X23235414Y-29335061D01*
X23235416Y-29335061D01*
X23349535Y-29304483D01*
X23463657Y-29273904D01*
X23463660Y-29273904D01*
X23463660Y-29273903D01*
X23463663Y-29273903D01*
X23677830Y-29174035D01*
X23677831Y-29174034D01*
X23677840Y-29174029D01*
X23871395Y-29038499D01*
X23871401Y-29038495D01*
X24038495Y-28871401D01*
X24082943Y-28807923D01*
X24174029Y-28677840D01*
X24174036Y-28677828D01*
X24215111Y-28589742D01*
X24273903Y-28463663D01*
X24308128Y-28335931D01*
X24335061Y-28235416D01*
X24335062Y-28235410D01*
X24335063Y-28235408D01*
X24355659Y-28000000D01*
X24335063Y-27764592D01*
X24328474Y-27740002D01*
X24273905Y-27536344D01*
X24273904Y-27536339D01*
X24174036Y-27322172D01*
X24174028Y-27322160D01*
X24038499Y-27128604D01*
X24038493Y-27128597D01*
X23871402Y-26961506D01*
X23871395Y-26961500D01*
X23677840Y-26825970D01*
X23677828Y-26825963D01*
X23463660Y-26726095D01*
X23463655Y-26726094D01*
X23235416Y-26664938D01*
X23235410Y-26664937D01*
X23000000Y-26644341D01*
X22764589Y-26664937D01*
X22764583Y-26664938D01*
X22536344Y-26726094D01*
X22536339Y-26726095D01*
X22322172Y-26825963D01*
X22322160Y-26825971D01*
X22128604Y-26961500D01*
X22128597Y-26961506D01*
X21961506Y-27128597D01*
X21961500Y-27128604D01*
X21825971Y-27322160D01*
X21825963Y-27322172D01*
X21726095Y-27536339D01*
X21726094Y-27536344D01*
X21664938Y-27764583D01*
X21664937Y-27764589D01*
X21644341Y-28000000D01*
X21450500Y-28000000D01*
X21450500Y-27935931D01*
X21450500Y-26435931D01*
X21450500Y-25519500D01*
X21464852Y-25484852D01*
X21499500Y-25470500D01*
X23441387Y-25470500D01*
X23476035Y-25484852D01*
X23479264Y-25488415D01*
X23514114Y-25530880D01*
X23514115Y-25530881D01*
X23514117Y-25530883D01*
X23542212Y-25553940D01*
X23666455Y-25655905D01*
X23666458Y-25655907D01*
X23666462Y-25655910D01*
X23840273Y-25748814D01*
X24028868Y-25806024D01*
X24225000Y-25825341D01*
X24421132Y-25806024D01*
X24609727Y-25748814D01*
X24783538Y-25655910D01*
X24935883Y-25530883D01*
X25060910Y-25378538D01*
X25153814Y-25204727D01*
X25211024Y-25016132D01*
X25230341Y-24820000D01*
X25211024Y-24623868D01*
X25153814Y-24435273D01*
X25060910Y-24261462D01*
X25060907Y-24261458D01*
X25060905Y-24261455D01*
X24985393Y-24169445D01*
X24935883Y-24109117D01*
X24860446Y-24047207D01*
X24783544Y-23984094D01*
X24783541Y-23984092D01*
X24783539Y-23984091D01*
X24783538Y-23984090D01*
X24674923Y-23926034D01*
X24609726Y-23891185D01*
X24421132Y-23833976D01*
X24225000Y-23814659D01*
X24028867Y-23833976D01*
X24028866Y-23833976D01*
X23840273Y-23891185D01*
X23666458Y-23984092D01*
X23666455Y-23984094D01*
X23514114Y-24109119D01*
X23479264Y-24151585D01*
X23446190Y-24169264D01*
X23441387Y-24169500D01*
X21499500Y-24169500D01*
X21464852Y-24155148D01*
X21450500Y-24120500D01*
X21450500Y-22735931D01*
X21445254Y-22709560D01*
X21445254Y-22690439D01*
X21450500Y-22664069D01*
X21450500Y-20735931D01*
X21450500Y-19235931D01*
X21445254Y-19209560D01*
X21445254Y-19190439D01*
X21447040Y-19181462D01*
X21450500Y-19164069D01*
X21450500Y-17535931D01*
X21443981Y-17503158D01*
X21444708Y-17480917D01*
X21450499Y-17459309D01*
X21450499Y-17435732D01*
X21450998Y-17428758D01*
X21455133Y-17400000D01*
X21455133Y-17399998D01*
X21450998Y-17371239D01*
X21450499Y-17364266D01*
X21450499Y-17340690D01*
X21447912Y-17331037D01*
X21442848Y-17312137D01*
X21441684Y-17306465D01*
X21436697Y-17271774D01*
X21427110Y-17250783D01*
X21424355Y-17243118D01*
X21419799Y-17226113D01*
X21402032Y-17195341D01*
X21399904Y-17191211D01*
X21382882Y-17153937D01*
X21371698Y-17141029D01*
X21366296Y-17133443D01*
X21360489Y-17123385D01*
X21331169Y-17094065D01*
X21328785Y-17091505D01*
X21298048Y-17056031D01*
X21288735Y-17050047D01*
X21280577Y-17043473D01*
X21276614Y-17039510D01*
X21269059Y-17035148D01*
X21235555Y-17015805D01*
X21233573Y-17014597D01*
X21189069Y-16985996D01*
X21189066Y-16985995D01*
X21189063Y-16985993D01*
X21189064Y-16985993D01*
X21184217Y-16984570D01*
X21176857Y-16981419D01*
X21176853Y-16981430D01*
X21173888Y-16980201D01*
X21173887Y-16980201D01*
X21173885Y-16980200D01*
X21173884Y-16980200D01*
X21122372Y-16966397D01*
X21121251Y-16966082D01*
X21064778Y-16949500D01*
X21064772Y-16949500D01*
X20935228Y-16949500D01*
X20935221Y-16949500D01*
X20918042Y-16954545D01*
X20894679Y-16955588D01*
X20864069Y-16949500D01*
X20735931Y-16949500D01*
X20735927Y-16949500D01*
X20610262Y-16974497D01*
X20610253Y-16974499D01*
X20491875Y-17023533D01*
X20465373Y-17041242D01*
X20438150Y-17049500D01*
X19448321Y-17049500D01*
X19413673Y-17035148D01*
X19113017Y-16734492D01*
X19113015Y-16734490D01*
X19113012Y-16734488D01*
X19113008Y-16734485D01*
X18987487Y-16662016D01*
X18987483Y-16662015D01*
X18847477Y-16624500D01*
X18847474Y-16624500D01*
X18811189Y-16624500D01*
X18776541Y-16610148D01*
X18645913Y-16479520D01*
X18554589Y-16426793D01*
X18554587Y-16426792D01*
X18452730Y-16399500D01*
X18452727Y-16399500D01*
X18424470Y-16399500D01*
X18397980Y-16391722D01*
X18389069Y-16385995D01*
X18264776Y-16349500D01*
X18264772Y-16349500D01*
X18135228Y-16349500D01*
X18135223Y-16349500D01*
X18010933Y-16385995D01*
X18010931Y-16385995D01*
X18010931Y-16385996D01*
X17995458Y-16395940D01*
X17901950Y-16456033D01*
X17836532Y-16531531D01*
X17802996Y-16548318D01*
X17767412Y-16536475D01*
X17750625Y-16502939D01*
X17750541Y-16500599D01*
X17750500Y-16500186D01*
X17750500Y-16500180D01*
X17741767Y-16456278D01*
X17722352Y-16427222D01*
X17715037Y-16390440D01*
X17722353Y-16372777D01*
X17733228Y-16356501D01*
X17741767Y-16343722D01*
X17750500Y-16299820D01*
X17750500Y-16275000D01*
X17764852Y-16240352D01*
X17799500Y-16226000D01*
X18744669Y-16226000D01*
X18779317Y-16240352D01*
X19272641Y-16733676D01*
X19272644Y-16733680D01*
X19272645Y-16733680D01*
X19275436Y-16736471D01*
X19275437Y-16736473D01*
X19333527Y-16794563D01*
X19361219Y-16806033D01*
X19409424Y-16826001D01*
X19409426Y-16826001D01*
X19497277Y-16826001D01*
X19497285Y-16826000D01*
X21594669Y-16826000D01*
X21629317Y-16840352D01*
X21859648Y-17070683D01*
X21874000Y-17105331D01*
X21874000Y-20654467D01*
X21873999Y-20654481D01*
X21873999Y-20658424D01*
X21873999Y-20740576D01*
X21883839Y-20764329D01*
X21888492Y-20775562D01*
X21888492Y-20775564D01*
X21905437Y-20816473D01*
X21905438Y-20816475D01*
X21970418Y-20881454D01*
X21970420Y-20881455D01*
X22332641Y-21243676D01*
X22332644Y-21243680D01*
X22332645Y-21243680D01*
X22335436Y-21246471D01*
X22335437Y-21246473D01*
X22393527Y-21304563D01*
X22424962Y-21317583D01*
X22424964Y-21317585D01*
X22424964Y-21317584D01*
X22469424Y-21336001D01*
X22469425Y-21336001D01*
X22557277Y-21336001D01*
X22557285Y-21336000D01*
X22968669Y-21336000D01*
X23003317Y-21350352D01*
X23358285Y-21705320D01*
X23372637Y-21739968D01*
X23366851Y-21763066D01*
X23296186Y-21895271D01*
X23238976Y-22083866D01*
X23238976Y-22083867D01*
X23219659Y-22279999D01*
X23219659Y-22280000D01*
X23238976Y-22476132D01*
X23238976Y-22476133D01*
X23296185Y-22664726D01*
X23312066Y-22694437D01*
X23383684Y-22828425D01*
X23389092Y-22838541D01*
X23389094Y-22838544D01*
X23443905Y-22905330D01*
X23514117Y-22990883D01*
X23591065Y-23054033D01*
X23666455Y-23115905D01*
X23666458Y-23115907D01*
X23666462Y-23115910D01*
X23840273Y-23208814D01*
X24028868Y-23266024D01*
X24225000Y-23285341D01*
X24421132Y-23266024D01*
X24609727Y-23208814D01*
X24783538Y-23115910D01*
X24935883Y-22990883D01*
X25060910Y-22838538D01*
X25153814Y-22664727D01*
X25211024Y-22476132D01*
X25230341Y-22280000D01*
X25211024Y-22083868D01*
X25153814Y-21895273D01*
X25060910Y-21721462D01*
X25060907Y-21721458D01*
X25060905Y-21721455D01*
X24983827Y-21627537D01*
X24935883Y-21569117D01*
X24852790Y-21500924D01*
X24783544Y-21444094D01*
X24783541Y-21444092D01*
X24783539Y-21444091D01*
X24783538Y-21444090D01*
X24703592Y-21401358D01*
X24609726Y-21351185D01*
X24421132Y-21293976D01*
X24225000Y-21274659D01*
X24028867Y-21293976D01*
X24028866Y-21293976D01*
X23840271Y-21351186D01*
X23708066Y-21421851D01*
X23670744Y-21425527D01*
X23650320Y-21413285D01*
X23281682Y-21044647D01*
X23267330Y-21009999D01*
X23281681Y-20975352D01*
X23650320Y-20606713D01*
X23684967Y-20592362D01*
X23708065Y-20598148D01*
X23840263Y-20668809D01*
X23840265Y-20668810D01*
X23840273Y-20668814D01*
X24028868Y-20726024D01*
X24225000Y-20745341D01*
X24421132Y-20726024D01*
X24609727Y-20668814D01*
X24783538Y-20575910D01*
X24935883Y-20450883D01*
X25060910Y-20298538D01*
X25153814Y-20124727D01*
X25211024Y-19936132D01*
X25230341Y-19740000D01*
X25211024Y-19543868D01*
X25153814Y-19355273D01*
X25060910Y-19181462D01*
X25060907Y-19181458D01*
X25060905Y-19181455D01*
X25007537Y-19116427D01*
X24935883Y-19029117D01*
X24864227Y-18970310D01*
X24783544Y-18904094D01*
X24783541Y-18904092D01*
X24783539Y-18904091D01*
X24783538Y-18904090D01*
X24683278Y-18850500D01*
X24609726Y-18811185D01*
X24421132Y-18753976D01*
X24225000Y-18734659D01*
X24028867Y-18753976D01*
X24028866Y-18753976D01*
X23840273Y-18811185D01*
X23666458Y-18904092D01*
X23666455Y-18904094D01*
X23514117Y-19029117D01*
X23389094Y-19181455D01*
X23389092Y-19181458D01*
X23296185Y-19355273D01*
X23238976Y-19543866D01*
X23238976Y-19543867D01*
X23219659Y-19739999D01*
X23219659Y-19740000D01*
X23238976Y-19936132D01*
X23238976Y-19936133D01*
X23296186Y-20124728D01*
X23366851Y-20256932D01*
X23370527Y-20294254D01*
X23358285Y-20314678D01*
X23003317Y-20669648D01*
X22968669Y-20684000D01*
X22715331Y-20684000D01*
X22680683Y-20669648D01*
X22540352Y-20529317D01*
X22526000Y-20494669D01*
X22526000Y-19310250D01*
X22540352Y-19275602D01*
X22575000Y-19261250D01*
X22789771Y-19261250D01*
X22789779Y-19261251D01*
X22795480Y-19261251D01*
X22877631Y-19261251D01*
X22877632Y-19261251D01*
X22922091Y-19242834D01*
X22953529Y-19229813D01*
X23011619Y-19171723D01*
X23011619Y-19171722D01*
X23018508Y-19164833D01*
X23018510Y-19164830D01*
X23041886Y-19141454D01*
X23041889Y-19141452D01*
X23048778Y-19134563D01*
X23048779Y-19134563D01*
X23106869Y-19076473D01*
X23123662Y-19035931D01*
X23138307Y-19000576D01*
X23138307Y-18918424D01*
X23138307Y-18914481D01*
X23138306Y-18914467D01*
X23138306Y-18815785D01*
X23138307Y-18815776D01*
X23138307Y-18727926D01*
X23138306Y-18727922D01*
X23116177Y-18674499D01*
X23106869Y-18652027D01*
X23048779Y-18593937D01*
X23048777Y-18593936D01*
X23045986Y-18591145D01*
X23045986Y-18591144D01*
X23045982Y-18591141D01*
X23018511Y-18563670D01*
X23018511Y-18563669D01*
X22953531Y-18498688D01*
X22953529Y-18498687D01*
X22915504Y-18482937D01*
X22877633Y-18467249D01*
X22877632Y-18467249D01*
X22795480Y-18467249D01*
X22789779Y-18467249D01*
X22789771Y-18467250D01*
X22575000Y-18467250D01*
X22540352Y-18452898D01*
X22526000Y-18418250D01*
X22526000Y-16947285D01*
X22526001Y-16947276D01*
X22526001Y-16859426D01*
X22526000Y-16859422D01*
X22503079Y-16804088D01*
X22503078Y-16804086D01*
X22501345Y-16799901D01*
X22494563Y-16783527D01*
X22436473Y-16725437D01*
X22433683Y-16722647D01*
X22433676Y-16722641D01*
X22046256Y-16335221D01*
X23225000Y-16335221D01*
X23225000Y-17000000D01*
X23763120Y-17000000D01*
X23759075Y-17007007D01*
X23725000Y-17134174D01*
X23725000Y-17265826D01*
X23759075Y-17392993D01*
X23763120Y-17400000D01*
X23225001Y-17400000D01*
X23225001Y-18064772D01*
X23233703Y-18108527D01*
X23266855Y-18158144D01*
X23316474Y-18191297D01*
X23360223Y-18199999D01*
X24024999Y-18199999D01*
X24025000Y-18199998D01*
X24025000Y-17661879D01*
X24032007Y-17665925D01*
X24159174Y-17700000D01*
X24290826Y-17700000D01*
X24417993Y-17665925D01*
X24425000Y-17661879D01*
X24425000Y-18199999D01*
X25089772Y-18199999D01*
X25133527Y-18191296D01*
X25183144Y-18158144D01*
X25216297Y-18108525D01*
X25224999Y-18064778D01*
X25225000Y-18064775D01*
X25225000Y-17400000D01*
X24686880Y-17400000D01*
X24690925Y-17392993D01*
X24725000Y-17265826D01*
X24725000Y-17134174D01*
X24690925Y-17007007D01*
X24686880Y-17000000D01*
X25224999Y-17000000D01*
X25224999Y-16335227D01*
X25216296Y-16291472D01*
X25183144Y-16241855D01*
X25133525Y-16208702D01*
X25089778Y-16200000D01*
X24425000Y-16200000D01*
X24425000Y-16738120D01*
X24417993Y-16734075D01*
X24290826Y-16700000D01*
X24159174Y-16700000D01*
X24032007Y-16734075D01*
X24025000Y-16738120D01*
X24025000Y-16200000D01*
X23360227Y-16200000D01*
X23316472Y-16208703D01*
X23266855Y-16241855D01*
X23233702Y-16291474D01*
X23225000Y-16335221D01*
X22046256Y-16335221D01*
X21981455Y-16270420D01*
X21981455Y-16270419D01*
X21916475Y-16205438D01*
X21916473Y-16205437D01*
X21885035Y-16192415D01*
X21840577Y-16173999D01*
X21840576Y-16173999D01*
X21758424Y-16173999D01*
X21752723Y-16173999D01*
X21752715Y-16174000D01*
X19655331Y-16174000D01*
X19620683Y-16159648D01*
X19131455Y-15670420D01*
X19131455Y-15670419D01*
X19066475Y-15605438D01*
X19066473Y-15605437D01*
X19035035Y-15592415D01*
X18990577Y-15573999D01*
X18990576Y-15573999D01*
X18908424Y-15573999D01*
X18902723Y-15573999D01*
X18902715Y-15574000D01*
X17799500Y-15574000D01*
X17764852Y-15559648D01*
X17750500Y-15525000D01*
X17750500Y-15500180D01*
X17750499Y-15500176D01*
X17745478Y-15474937D01*
X17741767Y-15456278D01*
X17722352Y-15427222D01*
X17715037Y-15390440D01*
X17722353Y-15372777D01*
X17726028Y-15367277D01*
X17741767Y-15343722D01*
X17750500Y-15299820D01*
X17750500Y-15138427D01*
X17764852Y-15103779D01*
X17799500Y-15089427D01*
X17812176Y-15091096D01*
X17839974Y-15098544D01*
X17847272Y-15100500D01*
X17847273Y-15100500D01*
X17937338Y-15100500D01*
X18129557Y-15100500D01*
X18154056Y-15107064D01*
X18176113Y-15119799D01*
X18176115Y-15119799D01*
X18176116Y-15119800D01*
X18290687Y-15150498D01*
X18290688Y-15150499D01*
X18290691Y-15150499D01*
X18409312Y-15150499D01*
X18409312Y-15150498D01*
X18523887Y-15119799D01*
X18626614Y-15060489D01*
X18969525Y-14717577D01*
X19004172Y-14703226D01*
X19038820Y-14717578D01*
X19053172Y-14752226D01*
X19052673Y-14759199D01*
X19034581Y-14885036D01*
X19034581Y-14885041D01*
X19053015Y-15013262D01*
X19106832Y-15131102D01*
X19166531Y-15200000D01*
X19191665Y-15229006D01*
X19300645Y-15299043D01*
X19369807Y-15319350D01*
X19424937Y-15335538D01*
X19424942Y-15335539D01*
X19554479Y-15335539D01*
X19554486Y-15335539D01*
X19554492Y-15335537D01*
X19557708Y-15335074D01*
X19594048Y-15344341D01*
X19599340Y-15348926D01*
X19789775Y-15539362D01*
X19789776Y-15539362D01*
X19789778Y-15539364D01*
X19881847Y-15577500D01*
X19981503Y-15577500D01*
X23725500Y-15577500D01*
X23760148Y-15591852D01*
X23774500Y-15626500D01*
X23774500Y-15689823D01*
X23783232Y-15733721D01*
X23816495Y-15783504D01*
X23840919Y-15799823D01*
X23866278Y-15816767D01*
X23910180Y-15825500D01*
X25289820Y-15825500D01*
X25333722Y-15816767D01*
X25383504Y-15783504D01*
X25416767Y-15733722D01*
X25425500Y-15689820D01*
X25425500Y-14310180D01*
X25416767Y-14266278D01*
X25394017Y-14232230D01*
X25383504Y-14216495D01*
X25333721Y-14183232D01*
X25289823Y-14174500D01*
X25289820Y-14174500D01*
X23910180Y-14174500D01*
X23910176Y-14174500D01*
X23866278Y-14183232D01*
X23816495Y-14216495D01*
X23783232Y-14266278D01*
X23774500Y-14310176D01*
X23774500Y-15027500D01*
X23760148Y-15062148D01*
X23725500Y-15076500D01*
X20055732Y-15076500D01*
X20021084Y-15062148D01*
X19949509Y-14990573D01*
X19935157Y-14955925D01*
X19935654Y-14948966D01*
X19944847Y-14885039D01*
X19938907Y-14843722D01*
X19926412Y-14756815D01*
X19901938Y-14703226D01*
X19872596Y-14638976D01*
X19787763Y-14541072D01*
X19678783Y-14471035D01*
X19666022Y-14467288D01*
X19554490Y-14434539D01*
X19554486Y-14434539D01*
X19424942Y-14434539D01*
X19424935Y-14434539D01*
X19313401Y-14467288D01*
X19276113Y-14463279D01*
X19252582Y-14434077D01*
X19256591Y-14396789D01*
X19257131Y-14395826D01*
X19269799Y-14373887D01*
X19274357Y-14356871D01*
X19277107Y-14349222D01*
X19286697Y-14328226D01*
X19291685Y-14293530D01*
X19292846Y-14287868D01*
X19300499Y-14259309D01*
X19300499Y-14235732D01*
X19300998Y-14228758D01*
X19301395Y-14226001D01*
X19305133Y-14200000D01*
X19304351Y-14194564D01*
X19300998Y-14171239D01*
X19300499Y-14164266D01*
X19300499Y-14140690D01*
X19298619Y-14133676D01*
X19292848Y-14112137D01*
X19291684Y-14106465D01*
X19286697Y-14071774D01*
X19277110Y-14050783D01*
X19274355Y-14043118D01*
X19269799Y-14026113D01*
X19252032Y-13995341D01*
X19249904Y-13991211D01*
X19232882Y-13953937D01*
X19221698Y-13941029D01*
X19216296Y-13933443D01*
X19212705Y-13927223D01*
X19210490Y-13923386D01*
X19181163Y-13894059D01*
X19178785Y-13891505D01*
X19148048Y-13856031D01*
X19138735Y-13850047D01*
X19130577Y-13843473D01*
X19126614Y-13839510D01*
X19085564Y-13815810D01*
X19085562Y-13815809D01*
X19085555Y-13815805D01*
X19083573Y-13814597D01*
X19060584Y-13799823D01*
X19039069Y-13785996D01*
X19039066Y-13785995D01*
X19039063Y-13785993D01*
X19039064Y-13785993D01*
X19034217Y-13784570D01*
X19026857Y-13781419D01*
X19026853Y-13781430D01*
X19023888Y-13780201D01*
X19023887Y-13780201D01*
X19023885Y-13780200D01*
X19023884Y-13780200D01*
X18972372Y-13766397D01*
X18971251Y-13766082D01*
X18914778Y-13749500D01*
X18914772Y-13749500D01*
X18785228Y-13749500D01*
X18728757Y-13766080D01*
X18727637Y-13766394D01*
X18676108Y-13780202D01*
X18673142Y-13781431D01*
X18673138Y-13781421D01*
X18665785Y-13784570D01*
X18660933Y-13785995D01*
X18660931Y-13785995D01*
X18660931Y-13785996D01*
X18655600Y-13789422D01*
X18616424Y-13814597D01*
X18614435Y-13815809D01*
X18573383Y-13839511D01*
X18573382Y-13839511D01*
X18569418Y-13843476D01*
X18561267Y-13850045D01*
X18551951Y-13856032D01*
X18521218Y-13891500D01*
X18518835Y-13894059D01*
X18127749Y-14285148D01*
X18093101Y-14299500D01*
X17799500Y-14299500D01*
X17764852Y-14285148D01*
X17750500Y-14250500D01*
X17750500Y-14000180D01*
X17750499Y-14000176D01*
X17749540Y-13995357D01*
X17741767Y-13956278D01*
X17722352Y-13927222D01*
X17715037Y-13890440D01*
X17722353Y-13872777D01*
X17741767Y-13843722D01*
X17750500Y-13799820D01*
X17750500Y-13500180D01*
X17741767Y-13456278D01*
X17722051Y-13426771D01*
X17714736Y-13389991D01*
X17722053Y-13372326D01*
X17741297Y-13343525D01*
X17749999Y-13299778D01*
X17750000Y-13299775D01*
X17750000Y-13285000D01*
X16150001Y-13285000D01*
X16150001Y-13299772D01*
X16158703Y-13343527D01*
X16177947Y-13372327D01*
X16185263Y-13409109D01*
X16177948Y-13426772D01*
X16158232Y-13456280D01*
X16149500Y-13500176D01*
X16149500Y-13507788D01*
X16135148Y-13542436D01*
X16100500Y-13556788D01*
X16065852Y-13542436D01*
X15940352Y-13416936D01*
X15926000Y-13382288D01*
X15926000Y-12640658D01*
X15940352Y-12606010D01*
X15975000Y-12591658D01*
X16009648Y-12606010D01*
X16020269Y-12621906D01*
X16049225Y-12691811D01*
X16080137Y-12738074D01*
X16125883Y-12806539D01*
X16177177Y-12857833D01*
X16191529Y-12892481D01*
X16183271Y-12919703D01*
X16158702Y-12956473D01*
X16150000Y-13000221D01*
X16150000Y-13015000D01*
X16411069Y-13015000D01*
X16429820Y-13018730D01*
X16465664Y-13033577D01*
X16465666Y-13033577D01*
X16465672Y-13033580D01*
X16532378Y-13046848D01*
X16601001Y-13060499D01*
X16601007Y-13060500D01*
X16738993Y-13060500D01*
X16874328Y-13033580D01*
X16882667Y-13030125D01*
X16910180Y-13018730D01*
X16928931Y-13015000D01*
X17749999Y-13015000D01*
X17749999Y-13000227D01*
X17749954Y-13000000D01*
X23769953Y-13000000D01*
X23788092Y-13172576D01*
X23841714Y-13337611D01*
X23928478Y-13487889D01*
X24044590Y-13616845D01*
X24184976Y-13718842D01*
X24343501Y-13789422D01*
X24513236Y-13825500D01*
X24686764Y-13825500D01*
X24856499Y-13789422D01*
X25015024Y-13718842D01*
X25155410Y-13616845D01*
X25271522Y-13487889D01*
X25358286Y-13337611D01*
X25411908Y-13172576D01*
X25430047Y-13000000D01*
X25411908Y-12827424D01*
X25358286Y-12662389D01*
X25271522Y-12512111D01*
X25155410Y-12383155D01*
X25015024Y-12281158D01*
X24856499Y-12210578D01*
X24686764Y-12174500D01*
X24513236Y-12174500D01*
X24343507Y-12210576D01*
X24343498Y-12210579D01*
X24184975Y-12281159D01*
X24044588Y-12383156D01*
X24044585Y-12383158D01*
X23928481Y-12512107D01*
X23928475Y-12512115D01*
X23841716Y-12662385D01*
X23841713Y-12662391D01*
X23832154Y-12691811D01*
X23788092Y-12827424D01*
X23769953Y-13000000D01*
X17749954Y-13000000D01*
X17741296Y-12956472D01*
X17708144Y-12906855D01*
X17658525Y-12873702D01*
X17614778Y-12865000D01*
X17266727Y-12865000D01*
X17232079Y-12850648D01*
X17217727Y-12816000D01*
X17225985Y-12788777D01*
X17246518Y-12758046D01*
X17290775Y-12691811D01*
X17343580Y-12564328D01*
X17370500Y-12428993D01*
X17370500Y-12231479D01*
X21050001Y-12231479D01*
X21064834Y-12325147D01*
X21122354Y-12438038D01*
X21122359Y-12438045D01*
X21211954Y-12527640D01*
X21211961Y-12527645D01*
X21324849Y-12585163D01*
X21418519Y-12599999D01*
X21799999Y-12599999D01*
X22200000Y-12599999D01*
X22581479Y-12599999D01*
X22675147Y-12585165D01*
X22788038Y-12527645D01*
X22788045Y-12527640D01*
X22877640Y-12438045D01*
X22877645Y-12438038D01*
X22935163Y-12325150D01*
X22950000Y-12231480D01*
X22950000Y-10900000D01*
X22200000Y-10900000D01*
X22200000Y-12599999D01*
X21799999Y-12599999D01*
X21800000Y-12599998D01*
X21800000Y-10900000D01*
X21050001Y-10900000D01*
X21050001Y-12231479D01*
X17370500Y-12231479D01*
X17370500Y-11171007D01*
X17358118Y-11108758D01*
X17343582Y-11035681D01*
X17343579Y-11035670D01*
X17330714Y-11004611D01*
X17290775Y-10908189D01*
X17233151Y-10821949D01*
X17214116Y-10793460D01*
X17116539Y-10695883D01*
X17080172Y-10671584D01*
X17059337Y-10640402D01*
X17062124Y-10612092D01*
X17085044Y-10556762D01*
X17105682Y-10400000D01*
X17085044Y-10243238D01*
X17053247Y-10166473D01*
X17024538Y-10097163D01*
X17024535Y-10097158D01*
X17019484Y-10090576D01*
X16928282Y-9971718D01*
X16892435Y-9944212D01*
X16802841Y-9875464D01*
X16802836Y-9875461D01*
X16656761Y-9814955D01*
X16500000Y-9794318D01*
X16343238Y-9814955D01*
X16197163Y-9875461D01*
X16197158Y-9875464D01*
X16071718Y-9971717D01*
X16071717Y-9971718D01*
X16013874Y-10047102D01*
X15981396Y-10065854D01*
X15945171Y-10056147D01*
X15926419Y-10023669D01*
X15926000Y-10017273D01*
X15926000Y-9168519D01*
X21050000Y-9168519D01*
X21050000Y-10500000D01*
X21800000Y-10500000D01*
X22200000Y-10500000D01*
X22949999Y-10500000D01*
X22949999Y-9168520D01*
X22935165Y-9074852D01*
X22877645Y-8961961D01*
X22877640Y-8961954D01*
X22788045Y-8872359D01*
X22788038Y-8872354D01*
X22675150Y-8814836D01*
X22581480Y-8800000D01*
X22200000Y-8800000D01*
X22200000Y-10500000D01*
X21800000Y-10500000D01*
X21800000Y-8800000D01*
X21418520Y-8800000D01*
X21324852Y-8814834D01*
X21211961Y-8872354D01*
X21211954Y-8872359D01*
X21122359Y-8961954D01*
X21122354Y-8961961D01*
X21064836Y-9074849D01*
X21050000Y-9168519D01*
X15926000Y-9168519D01*
X15926000Y-8916960D01*
X15940352Y-8882312D01*
X15970374Y-8869875D01*
X15970181Y-8868901D01*
X15974907Y-8867960D01*
X15974913Y-8867960D01*
X16019372Y-8849543D01*
X16050810Y-8836522D01*
X16108900Y-8778432D01*
X16108900Y-8778431D01*
X16115789Y-8771542D01*
X16115791Y-8771539D01*
X16139167Y-8748163D01*
X16139170Y-8748161D01*
X16146059Y-8741272D01*
X16146060Y-8741272D01*
X16204150Y-8683182D01*
X16217965Y-8649828D01*
X16235588Y-8607285D01*
X16235588Y-8525133D01*
X16235588Y-8521190D01*
X16235587Y-8521176D01*
X16235587Y-8422494D01*
X16235588Y-8422485D01*
X16235588Y-8334635D01*
X16235587Y-8334631D01*
X16219367Y-8295475D01*
X16210276Y-8273527D01*
X16204150Y-8258736D01*
X16146060Y-8200646D01*
X16143270Y-8197856D01*
X16143263Y-8197850D01*
X16115792Y-8170379D01*
X16115792Y-8170378D01*
X16050812Y-8105397D01*
X16050810Y-8105396D01*
X16019372Y-8092374D01*
X15974914Y-8073958D01*
X15970180Y-8073017D01*
X15970373Y-8072041D01*
X15940352Y-8059606D01*
X15926000Y-8024958D01*
X15926000Y-7997285D01*
X15926001Y-7997276D01*
X15926001Y-7909426D01*
X15926000Y-7909422D01*
X15920972Y-7897285D01*
X15906507Y-7862364D01*
X15894563Y-7833527D01*
X15836473Y-7775437D01*
X15836471Y-7775436D01*
X15833680Y-7772645D01*
X15833680Y-7772644D01*
X15833676Y-7772641D01*
X15733510Y-7672475D01*
X20049499Y-7672475D01*
X20056829Y-7699828D01*
X20073484Y-7761985D01*
X20073586Y-7762363D01*
X20073586Y-7762364D01*
X20087015Y-7812484D01*
X20087016Y-7812487D01*
X20159485Y-7938008D01*
X20159488Y-7938012D01*
X20159490Y-7938015D01*
X20461985Y-8240510D01*
X20557192Y-8295477D01*
X20586650Y-8312485D01*
X20587515Y-8312984D01*
X20620592Y-8321847D01*
X20727522Y-8350500D01*
X20727525Y-8350500D01*
X20727526Y-8350500D01*
X20751679Y-8350500D01*
X20786327Y-8364852D01*
X20961985Y-8540510D01*
X20961988Y-8540511D01*
X20961991Y-8540514D01*
X21065026Y-8600000D01*
X21087515Y-8612984D01*
X21121443Y-8622075D01*
X21227522Y-8650500D01*
X21227525Y-8650500D01*
X21972477Y-8650500D01*
X22042480Y-8631742D01*
X22112485Y-8612984D01*
X22238015Y-8540509D01*
X22340509Y-8438015D01*
X22412696Y-8312984D01*
X22412983Y-8312487D01*
X22412983Y-8312486D01*
X22412984Y-8312485D01*
X22443079Y-8200172D01*
X22450500Y-8172477D01*
X22450500Y-8027522D01*
X22418855Y-7909426D01*
X22412984Y-7887515D01*
X22412983Y-7887514D01*
X22412983Y-7887512D01*
X22357779Y-7791897D01*
X22340509Y-7761985D01*
X22238015Y-7659491D01*
X22236167Y-7658424D01*
X22112487Y-7587016D01*
X22112483Y-7587015D01*
X21972478Y-7549500D01*
X21972475Y-7549500D01*
X21548321Y-7549500D01*
X21513673Y-7535148D01*
X21338017Y-7359492D01*
X21338015Y-7359490D01*
X21338012Y-7359488D01*
X21338008Y-7359485D01*
X21212487Y-7287017D01*
X21212484Y-7287015D01*
X21186816Y-7280137D01*
X21157064Y-7257305D01*
X21150500Y-7232807D01*
X21150500Y-7176849D01*
X21164852Y-7142201D01*
X21199500Y-7127849D01*
X21221745Y-7133189D01*
X21324696Y-7185646D01*
X21418481Y-7200500D01*
X22581518Y-7200499D01*
X22675304Y-7185646D01*
X22744284Y-7150499D01*
X22788335Y-7128054D01*
X22788337Y-7128052D01*
X22788342Y-7128050D01*
X22878050Y-7038342D01*
X22878054Y-7038335D01*
X22935644Y-6925309D01*
X22935644Y-6925307D01*
X22935646Y-6925304D01*
X22950500Y-6831519D01*
X22950500Y-6499500D01*
X22964852Y-6464852D01*
X22999500Y-6450500D01*
X23564069Y-6450500D01*
X23689744Y-6425501D01*
X23808127Y-6376465D01*
X23914669Y-6305276D01*
X24005276Y-6214669D01*
X24076465Y-6108127D01*
X24125501Y-5989744D01*
X24150500Y-5864069D01*
X24150500Y-5735931D01*
X24125501Y-5610256D01*
X24076465Y-5491873D01*
X24005276Y-5385331D01*
X23914669Y-5294724D01*
X23808127Y-5223535D01*
X23714722Y-5184845D01*
X23689742Y-5174498D01*
X23689737Y-5174497D01*
X23564072Y-5149500D01*
X23564069Y-5149500D01*
X22999499Y-5149500D01*
X22964851Y-5135148D01*
X22950499Y-5100500D01*
X22950499Y-3768482D01*
X22935646Y-3674696D01*
X22878054Y-3561664D01*
X22878049Y-3561657D01*
X22788342Y-3471950D01*
X22788335Y-3471945D01*
X22675308Y-3414355D01*
X22675305Y-3414354D01*
X22675304Y-3414354D01*
X22581519Y-3399500D01*
X22581517Y-3399500D01*
X21418482Y-3399500D01*
X21324696Y-3414353D01*
X21211664Y-3471945D01*
X21211657Y-3471950D01*
X21121950Y-3561657D01*
X21121945Y-3561664D01*
X21064355Y-3674690D01*
X21064355Y-3674692D01*
X21064354Y-3674694D01*
X21064354Y-3674696D01*
X21049500Y-3768481D01*
X21049500Y-3768482D01*
X21049500Y-4700500D01*
X21035148Y-4735148D01*
X21000500Y-4749500D01*
X20827522Y-4749500D01*
X20687516Y-4787015D01*
X20687512Y-4787016D01*
X20561984Y-4859489D01*
X20561983Y-4859490D01*
X20534842Y-4886630D01*
X20524695Y-4894416D01*
X20411991Y-4959487D01*
X20411981Y-4959494D01*
X20309494Y-5061981D01*
X20309487Y-5061991D01*
X20244415Y-5174697D01*
X20236628Y-5184845D01*
X20159490Y-5261985D01*
X20109730Y-5348173D01*
X20087016Y-5387512D01*
X20087015Y-5387516D01*
X20049500Y-5527522D01*
X20049500Y-7672475D01*
X20049499Y-7672475D01*
X15733510Y-7672475D01*
X15490352Y-7429317D01*
X15476000Y-7394669D01*
X15476000Y-6844931D01*
X15490352Y-6810283D01*
X15515439Y-6796873D01*
X15562986Y-6787417D01*
X15623227Y-6747164D01*
X15660010Y-6739849D01*
X15677672Y-6747165D01*
X15737206Y-6786943D01*
X15737208Y-6786944D01*
X15749999Y-6789488D01*
X15750000Y-6789488D01*
X15750000Y-5660510D01*
X15737205Y-5663056D01*
X15677672Y-5702834D01*
X15640890Y-5710150D01*
X15623228Y-5702834D01*
X15562985Y-5662582D01*
X15515441Y-5653125D01*
X15484258Y-5632290D01*
X15476000Y-5605067D01*
X15476000Y-5594931D01*
X15490352Y-5560283D01*
X15515439Y-5546873D01*
X15562986Y-5537417D01*
X15623227Y-5497164D01*
X15660010Y-5489849D01*
X15677672Y-5497165D01*
X15737206Y-5536943D01*
X15737208Y-5536944D01*
X15749999Y-5539488D01*
X15750000Y-5539488D01*
X15750000Y-4410510D01*
X15737205Y-4413056D01*
X15677672Y-4452834D01*
X15640890Y-4460150D01*
X15623227Y-4452834D01*
X15562554Y-4412294D01*
X15541719Y-4381112D01*
X15549035Y-4344329D01*
X15555124Y-4336909D01*
X15621263Y-4270771D01*
X15621266Y-4270769D01*
X15628155Y-4263880D01*
X15628156Y-4263880D01*
X15661720Y-4230316D01*
X15678595Y-4213442D01*
X15713242Y-4199092D01*
X15747889Y-4213444D01*
X15751920Y-4217475D01*
X15751923Y-4217479D01*
X15751924Y-4217479D01*
X15754715Y-4220270D01*
X15754716Y-4220272D01*
X15812806Y-4278362D01*
X15843318Y-4291000D01*
X15888703Y-4309800D01*
X15888705Y-4309800D01*
X15976556Y-4309800D01*
X15976564Y-4309799D01*
X16023406Y-4309799D01*
X16023408Y-4309800D01*
X16035768Y-4309799D01*
X16038066Y-4310751D01*
X16041204Y-4309799D01*
X16105560Y-4309799D01*
X16159394Y-4287500D01*
X16181456Y-4278362D01*
X16239546Y-4220272D01*
X16239546Y-4220271D01*
X16246433Y-4213384D01*
X16246434Y-4213381D01*
X16324643Y-4135174D01*
X16374248Y-4085569D01*
X16383919Y-4062223D01*
X16405687Y-4009670D01*
X16405687Y-3927518D01*
X16405687Y-3921818D01*
X16405686Y-3921808D01*
X16405687Y-3792818D01*
X16405687Y-3792815D01*
X16405686Y-3792813D01*
X16389681Y-3754174D01*
X16389680Y-3754172D01*
X16379059Y-3728528D01*
X16374251Y-3716919D01*
X16316161Y-3658829D01*
X16313371Y-3656039D01*
X16313364Y-3656033D01*
X16309331Y-3652000D01*
X16294979Y-3617352D01*
X16309330Y-3582705D01*
X16364064Y-3527972D01*
X16381008Y-3487065D01*
X16395502Y-3452075D01*
X16395502Y-3369923D01*
X16395502Y-3365980D01*
X16395501Y-3365966D01*
X16395501Y-2984633D01*
X16409853Y-2949985D01*
X16444501Y-2935633D01*
X16450892Y-2936051D01*
X16600000Y-2955682D01*
X16756762Y-2935044D01*
X16902841Y-2874536D01*
X17028282Y-2778282D01*
X17124536Y-2652841D01*
X17185044Y-2506762D01*
X17205682Y-2350000D01*
X17185044Y-2193238D01*
X17158677Y-2129583D01*
X17124538Y-2047163D01*
X17124535Y-2047158D01*
X17116061Y-2036115D01*
X17028282Y-1921718D01*
X17027153Y-1920852D01*
X16902841Y-1825464D01*
X16902836Y-1825461D01*
X16756761Y-1764955D01*
X16620637Y-1747034D01*
X16600000Y-1744318D01*
X16599999Y-1744318D01*
X16598875Y-1744466D01*
X16598323Y-1744318D01*
X16596789Y-1744318D01*
X16596789Y-1743906D01*
X16562650Y-1734758D01*
X16543900Y-1702279D01*
X16543900Y-1689489D01*
X16543900Y-1689488D01*
X16555682Y-1600000D01*
X16535044Y-1443238D01*
X16500541Y-1359940D01*
X16474538Y-1297163D01*
X16474535Y-1297158D01*
X16459950Y-1278151D01*
X16378282Y-1171718D01*
X16252841Y-1075464D01*
X16252839Y-1075463D01*
X16252836Y-1075461D01*
X16106761Y-1014955D01*
X15950000Y-994318D01*
X15793238Y-1014955D01*
X15647163Y-1075461D01*
X15647158Y-1075464D01*
X15521718Y-1171717D01*
X15521717Y-1171718D01*
X15425464Y-1297158D01*
X15425461Y-1297163D01*
X15364955Y-1443238D01*
X15348581Y-1567619D01*
X15329829Y-1600097D01*
X15293604Y-1609804D01*
X15261126Y-1591052D01*
X15251419Y-1567619D01*
X15235044Y-1443238D01*
X15174538Y-1297163D01*
X15174535Y-1297158D01*
X15159950Y-1278151D01*
X15078282Y-1171718D01*
X14952841Y-1075464D01*
X14952839Y-1075463D01*
X14952836Y-1075461D01*
X14806761Y-1014955D01*
X14650000Y-994318D01*
X14493238Y-1014955D01*
X14347163Y-1075461D01*
X14347158Y-1075464D01*
X14221718Y-1171717D01*
X14221717Y-1171718D01*
X14125464Y-1297158D01*
X14125461Y-1297163D01*
X14064955Y-1443238D01*
X14044318Y-1600000D01*
X14056099Y-1689488D01*
X14046392Y-1725714D01*
X14013914Y-1744465D01*
X14001134Y-1744466D01*
X14000008Y-1744318D01*
X14000001Y-1744318D01*
X14000000Y-1744318D01*
X13981763Y-1746718D01*
X13843238Y-1764955D01*
X13697163Y-1825461D01*
X13697158Y-1825464D01*
X13571718Y-1921717D01*
X13571717Y-1921718D01*
X13475464Y-2047158D01*
X13475461Y-2047163D01*
X13414955Y-2193238D01*
X13394318Y-2350000D01*
X13414955Y-2506761D01*
X13475461Y-2652836D01*
X13475464Y-2652841D01*
X13534282Y-2729495D01*
X13571718Y-2778282D01*
X13697159Y-2874536D01*
X13697161Y-2874536D01*
X13697163Y-2874538D01*
X13795499Y-2915270D01*
X13843238Y-2935044D01*
X14000000Y-2955682D01*
X14067957Y-2946735D01*
X14104181Y-2956442D01*
X14122933Y-2988920D01*
X14113226Y-3025145D01*
X14109000Y-3029964D01*
X13855439Y-3283524D01*
X13855436Y-3283529D01*
X13846106Y-3306056D01*
X13846105Y-3306058D01*
X13823999Y-3359422D01*
X13823999Y-3447276D01*
X13824000Y-3447285D01*
X13824000Y-3539750D01*
X13809648Y-3574398D01*
X13775000Y-3588750D01*
X13771064Y-3588750D01*
X13771056Y-3588749D01*
X13765355Y-3588749D01*
X13683203Y-3588749D01*
X13683201Y-3588749D01*
X13639141Y-3607001D01*
X13639140Y-3607001D01*
X13607306Y-3620187D01*
X13549216Y-3678277D01*
X13549215Y-3678278D01*
X13512057Y-3715436D01*
X13512056Y-3715437D01*
X13483011Y-3744482D01*
X13453966Y-3773526D01*
X13453965Y-3773528D01*
X13445978Y-3792813D01*
X13445977Y-3792815D01*
X13422528Y-3849422D01*
X13422528Y-3937276D01*
X13422529Y-3937285D01*
X13422529Y-4035967D01*
X13422528Y-4035981D01*
X13422528Y-4122077D01*
X13432499Y-4146147D01*
X13438491Y-4160613D01*
X13453966Y-4197973D01*
X13453967Y-4197974D01*
X13453967Y-4197975D01*
X13518947Y-4262954D01*
X13518949Y-4262955D01*
X13546420Y-4290426D01*
X13546423Y-4290430D01*
X13546424Y-4290430D01*
X13549215Y-4293221D01*
X13549216Y-4293223D01*
X13607306Y-4351313D01*
X13638741Y-4364333D01*
X13638742Y-4364334D01*
X13659287Y-4372844D01*
X13685806Y-4399362D01*
X13685806Y-4436865D01*
X13667763Y-4458854D01*
X13662422Y-4462422D01*
X13612583Y-4537013D01*
X13612583Y-4537014D01*
X13599500Y-4602789D01*
X13599500Y-4602790D01*
X13599500Y-4602792D01*
X13599500Y-5347208D01*
X13612583Y-5412986D01*
X13662422Y-5487577D01*
X13702053Y-5514057D01*
X13737014Y-5537417D01*
X13784561Y-5546874D01*
X13815742Y-5567708D01*
X13824000Y-5594932D01*
X13824000Y-5605068D01*
X13809648Y-5639716D01*
X13784559Y-5653127D01*
X13737013Y-5662583D01*
X13662422Y-5712422D01*
X13612583Y-5787013D01*
X13612583Y-5787014D01*
X13599500Y-5852789D01*
X13599500Y-5852790D01*
X13599500Y-5852792D01*
X13599500Y-6597208D01*
X13612583Y-6662986D01*
X13662422Y-6737577D01*
X13712262Y-6770878D01*
X13737014Y-6787417D01*
X13784561Y-6796874D01*
X13815742Y-6817708D01*
X13824000Y-6844932D01*
X13824000Y-7494668D01*
X13809648Y-7529316D01*
X13742749Y-7596215D01*
X13663528Y-7675436D01*
X13663527Y-7675437D01*
X13639140Y-7699824D01*
X13605437Y-7733526D01*
X13596115Y-7756033D01*
X13573999Y-7809422D01*
X13573999Y-7897276D01*
X13574000Y-7897285D01*
X13574000Y-8039749D01*
X13559648Y-8074397D01*
X13529628Y-8086831D01*
X13529823Y-8087808D01*
X13525088Y-8088749D01*
X13484900Y-8105397D01*
X13449192Y-8120187D01*
X13434345Y-8135035D01*
X13391103Y-8178277D01*
X13295855Y-8273524D01*
X13295852Y-8273529D01*
X13286489Y-8296136D01*
X13286488Y-8296138D01*
X13264415Y-8349422D01*
X13264415Y-8437276D01*
X13264416Y-8437285D01*
X13264416Y-8535967D01*
X13264415Y-8535981D01*
X13264415Y-8539924D01*
X13264415Y-8622076D01*
X13276190Y-8650500D01*
X13281202Y-8662600D01*
X13281202Y-8662602D01*
X13295853Y-8697973D01*
X13295854Y-8697975D01*
X13360834Y-8762954D01*
X13360836Y-8762955D01*
X13388307Y-8790426D01*
X13388310Y-8790430D01*
X13388311Y-8790430D01*
X13391102Y-8793221D01*
X13391103Y-8793223D01*
X13449193Y-8851313D01*
X13480628Y-8864333D01*
X13480630Y-8864335D01*
X13480630Y-8864334D01*
X13525090Y-8882751D01*
X13525095Y-8882751D01*
X13529822Y-8883692D01*
X13529627Y-8884667D01*
X13559648Y-8897103D01*
X13574000Y-8931751D01*
X13574000Y-10004467D01*
X13573999Y-10004481D01*
X13573999Y-10090575D01*
X13588492Y-10125562D01*
X13588492Y-10125564D01*
X13605437Y-10166473D01*
X13605438Y-10166475D01*
X13670418Y-10231454D01*
X13670420Y-10231455D01*
X13908808Y-10469843D01*
X13923160Y-10504491D01*
X13908808Y-10539139D01*
X13874160Y-10553491D01*
X13864601Y-10552550D01*
X13834510Y-10546564D01*
X13798993Y-10539500D01*
X13661007Y-10539500D01*
X13661001Y-10539500D01*
X13525681Y-10566417D01*
X13525670Y-10566420D01*
X13398191Y-10619223D01*
X13398187Y-10619225D01*
X13321754Y-10670296D01*
X13284972Y-10677612D01*
X13259884Y-10664202D01*
X13095635Y-10499953D01*
X13015713Y-10453809D01*
X13015710Y-10453808D01*
X13013114Y-10453113D01*
X13001298Y-10448218D01*
X12958289Y-10423386D01*
X12958286Y-10423385D01*
X12869147Y-10399500D01*
X12869144Y-10399500D01*
X12087565Y-10399500D01*
X12052917Y-10385148D01*
X12039506Y-10360060D01*
X12035966Y-10342260D01*
X11992207Y-10276769D01*
X11984892Y-10239990D01*
X11992208Y-10222326D01*
X12035496Y-10157542D01*
X12049999Y-10084629D01*
X12050000Y-10084624D01*
X12050000Y-10042500D01*
X11350000Y-10042500D01*
X11350000Y-10084629D01*
X11364503Y-10157542D01*
X11407790Y-10222326D01*
X11415106Y-10259109D01*
X11407791Y-10276771D01*
X11364033Y-10342262D01*
X11349500Y-10415322D01*
X11349500Y-10899677D01*
X11364033Y-10972739D01*
X11419398Y-11055601D01*
X11496375Y-11107034D01*
X11502260Y-11110966D01*
X11575326Y-11125500D01*
X11824674Y-11125500D01*
X11897740Y-11110966D01*
X11901045Y-11108757D01*
X11928267Y-11100500D01*
X12663260Y-11100500D01*
X12684574Y-11106211D01*
X12684742Y-11105807D01*
X12687705Y-11107034D01*
X12687708Y-11107034D01*
X12687712Y-11107037D01*
X12707329Y-11112292D01*
X12729294Y-11124975D01*
X13015148Y-11410829D01*
X13029500Y-11445477D01*
X13029500Y-12428998D01*
X13056417Y-12564318D01*
X13056420Y-12564329D01*
X13097036Y-12662385D01*
X13109225Y-12691811D01*
X13139308Y-12736834D01*
X13174015Y-12788777D01*
X13181331Y-12825560D01*
X13160496Y-12856742D01*
X13133273Y-12865000D01*
X12785227Y-12865000D01*
X12741472Y-12873703D01*
X12691855Y-12906855D01*
X12658702Y-12956474D01*
X12650000Y-13000221D01*
X12650000Y-13015000D01*
X13471069Y-13015000D01*
X13489820Y-13018730D01*
X13525664Y-13033577D01*
X13525666Y-13033577D01*
X13525672Y-13033580D01*
X13592378Y-13046848D01*
X13661001Y-13060499D01*
X13661007Y-13060500D01*
X13798993Y-13060500D01*
X13934328Y-13033580D01*
X13942667Y-13030125D01*
X13970180Y-13018730D01*
X13988931Y-13015000D01*
X14249999Y-13015000D01*
X14249999Y-13000227D01*
X14241296Y-12956472D01*
X14216728Y-12919703D01*
X14209412Y-12882920D01*
X14222818Y-12857837D01*
X14274114Y-12806542D01*
X14350775Y-12691811D01*
X14379730Y-12621906D01*
X14406248Y-12595388D01*
X14443751Y-12595388D01*
X14470270Y-12621906D01*
X14474000Y-12640658D01*
X14474000Y-13377553D01*
X14459648Y-13412201D01*
X14334148Y-13537701D01*
X14299500Y-13552053D01*
X14264852Y-13537701D01*
X14250500Y-13503053D01*
X14250500Y-13500180D01*
X14250499Y-13500176D01*
X14248055Y-13487892D01*
X14241767Y-13456278D01*
X14222051Y-13426771D01*
X14214736Y-13389991D01*
X14222053Y-13372326D01*
X14241297Y-13343525D01*
X14249999Y-13299778D01*
X14250000Y-13299775D01*
X14250000Y-13285000D01*
X12650001Y-13285000D01*
X12650001Y-13299772D01*
X12658703Y-13343527D01*
X12677947Y-13372327D01*
X12685263Y-13409109D01*
X12677948Y-13426772D01*
X12658232Y-13456280D01*
X12649500Y-13500176D01*
X12649500Y-13799823D01*
X12654608Y-13825500D01*
X12658233Y-13843722D01*
X12666459Y-13856033D01*
X12677647Y-13872778D01*
X12684962Y-13909561D01*
X12677647Y-13927222D01*
X12658232Y-13956280D01*
X12649500Y-14000176D01*
X12649500Y-14299823D01*
X12658076Y-14342935D01*
X12658233Y-14343722D01*
X12671718Y-14363905D01*
X12677647Y-14372778D01*
X12684962Y-14409561D01*
X12677647Y-14427222D01*
X12658232Y-14456280D01*
X12649500Y-14500176D01*
X12649500Y-14799823D01*
X12658232Y-14843719D01*
X12658233Y-14843722D01*
X12671718Y-14863905D01*
X12677647Y-14872778D01*
X12684962Y-14909561D01*
X12677647Y-14927222D01*
X12663130Y-14948950D01*
X12658232Y-14956280D01*
X12649500Y-15000176D01*
X12649500Y-15299823D01*
X12656605Y-15335538D01*
X12658233Y-15343722D01*
X12671718Y-15363905D01*
X12677647Y-15372778D01*
X12684962Y-15409561D01*
X12677647Y-15427222D01*
X12658232Y-15456280D01*
X12649500Y-15500176D01*
X12649500Y-15799823D01*
X12652871Y-15816767D01*
X12658233Y-15843722D01*
X12669848Y-15861105D01*
X12677647Y-15872778D01*
X12684962Y-15909561D01*
X12677647Y-15927222D01*
X12658232Y-15956280D01*
X12649500Y-16000176D01*
X12649500Y-16299823D01*
X12656542Y-16335221D01*
X12658233Y-16343722D01*
X12662094Y-16349500D01*
X12677647Y-16372778D01*
X12684962Y-16409561D01*
X12677647Y-16427222D01*
X12658232Y-16456280D01*
X12649500Y-16500176D01*
X12649500Y-16799823D01*
X12658232Y-16843719D01*
X12658233Y-16843722D01*
X12668725Y-16859424D01*
X12677647Y-16872778D01*
X12684962Y-16909561D01*
X12677647Y-16927222D01*
X12668056Y-16941576D01*
X12658674Y-16955619D01*
X12658232Y-16956280D01*
X12649500Y-17000176D01*
X12649500Y-17299823D01*
X12657630Y-17340691D01*
X12658233Y-17343722D01*
X12671718Y-17363905D01*
X12677647Y-17372778D01*
X12684962Y-17409561D01*
X12677647Y-17427222D01*
X12658232Y-17456280D01*
X12649500Y-17500176D01*
X12649500Y-17799823D01*
X12657593Y-17840507D01*
X12658233Y-17843722D01*
X12671718Y-17863905D01*
X12677647Y-17872778D01*
X12684962Y-17909561D01*
X12677647Y-17927222D01*
X12658232Y-17956280D01*
X12649500Y-18000176D01*
X12649500Y-18299823D01*
X12658232Y-18343720D01*
X12677947Y-18373226D01*
X12685263Y-18410009D01*
X12677947Y-18427671D01*
X12658702Y-18456473D01*
X12650000Y-18500221D01*
X12650000Y-18515000D01*
X14249999Y-18515000D01*
X14249999Y-18500227D01*
X14241296Y-18456472D01*
X14241295Y-18456470D01*
X14222053Y-18427671D01*
X14214737Y-18390889D01*
X14222053Y-18373226D01*
X14241767Y-18343722D01*
X14250500Y-18299820D01*
X14250500Y-18275000D01*
X14264852Y-18240352D01*
X14299500Y-18226000D01*
X14344669Y-18226000D01*
X14379317Y-18240352D01*
X14659648Y-18520683D01*
X14674000Y-18555331D01*
X14674000Y-21273465D01*
X14673999Y-21273479D01*
X14673999Y-21359573D01*
X14688493Y-21394563D01*
X14688492Y-21394563D01*
X14688493Y-21394564D01*
X14705437Y-21435471D01*
X14705438Y-21435473D01*
X14770418Y-21500452D01*
X14770420Y-21500453D01*
X15071668Y-21801701D01*
X15086020Y-21836349D01*
X15073585Y-21866373D01*
X15074411Y-21866925D01*
X15071729Y-21870938D01*
X15061651Y-21895271D01*
X15061650Y-21895273D01*
X15040292Y-21946832D01*
X15040292Y-22034684D01*
X15040293Y-22034693D01*
X15040293Y-22077580D01*
X15040292Y-22077594D01*
X15040292Y-22081537D01*
X15040292Y-22163689D01*
X15058708Y-22208148D01*
X15071730Y-22239586D01*
X15071731Y-22239587D01*
X15071731Y-22239588D01*
X15136711Y-22304567D01*
X15136713Y-22304568D01*
X15203637Y-22371492D01*
X15203640Y-22371496D01*
X15203641Y-22371496D01*
X15206432Y-22374287D01*
X15206433Y-22374289D01*
X15240310Y-22408166D01*
X15264522Y-22432378D01*
X15264525Y-22432380D01*
X15264670Y-22432440D01*
X15295958Y-22445399D01*
X15295960Y-22445401D01*
X15295960Y-22445400D01*
X15340420Y-22463817D01*
X15340421Y-22463817D01*
X15428273Y-22463817D01*
X15428281Y-22463816D01*
X15475123Y-22463816D01*
X15475125Y-22463817D01*
X15557277Y-22463816D01*
X15583320Y-22453028D01*
X15633173Y-22432379D01*
X15633175Y-22432377D01*
X15637189Y-22429696D01*
X15637742Y-22430525D01*
X15667744Y-22418088D01*
X15702395Y-22432428D01*
X15702407Y-22432440D01*
X16293582Y-23023615D01*
X16307934Y-23058263D01*
X16293582Y-23092911D01*
X16268493Y-23106321D01*
X16237018Y-23112581D01*
X16237013Y-23112583D01*
X16176772Y-23152835D01*
X16139989Y-23160151D01*
X16122326Y-23152835D01*
X16062792Y-23113055D01*
X16050000Y-23110510D01*
X16050000Y-24239488D01*
X16062790Y-24236944D01*
X16122325Y-24197164D01*
X16159107Y-24189847D01*
X16176770Y-24197163D01*
X16237014Y-24237417D01*
X16284561Y-24246874D01*
X16315742Y-24267708D01*
X16324000Y-24294932D01*
X16324000Y-24305068D01*
X16309648Y-24339716D01*
X16284559Y-24353127D01*
X16237013Y-24362583D01*
X16176772Y-24402835D01*
X16139989Y-24410151D01*
X16122326Y-24402835D01*
X16062792Y-24363055D01*
X16050000Y-24360510D01*
X16050000Y-25489488D01*
X16062790Y-25486944D01*
X16122325Y-25447164D01*
X16159107Y-25439847D01*
X16176770Y-25447163D01*
X16237014Y-25487417D01*
X16284561Y-25496874D01*
X16315742Y-25517708D01*
X16324000Y-25544932D01*
X16324000Y-25739750D01*
X16309648Y-25774398D01*
X16275000Y-25788750D01*
X16271061Y-25788750D01*
X16271053Y-25788749D01*
X16265352Y-25788749D01*
X16183200Y-25788749D01*
X16183198Y-25788749D01*
X16138740Y-25807165D01*
X16107303Y-25820186D01*
X16091765Y-25835725D01*
X16049213Y-25878277D01*
X15953965Y-25973524D01*
X15953962Y-25973529D01*
X15944599Y-25996136D01*
X15944598Y-25996138D01*
X15922525Y-26049422D01*
X15922525Y-26137276D01*
X15922526Y-26137285D01*
X15922526Y-26235967D01*
X15922525Y-26235981D01*
X15922525Y-26322078D01*
X15936552Y-26355939D01*
X15953963Y-26397973D01*
X15953964Y-26397975D01*
X16018944Y-26462954D01*
X16018946Y-26462955D01*
X16046417Y-26490426D01*
X16046420Y-26490430D01*
X16046421Y-26490430D01*
X16049212Y-26493221D01*
X16049213Y-26493223D01*
X16107303Y-26551313D01*
X16129665Y-26560575D01*
X16129666Y-26560576D01*
X16129667Y-26560576D01*
X16183200Y-26582751D01*
X16183202Y-26582751D01*
X16271053Y-26582751D01*
X16271061Y-26582750D01*
X16275000Y-26582750D01*
X16309648Y-26597102D01*
X16324000Y-26631750D01*
X16324000Y-26763667D01*
X16309648Y-26798315D01*
X16294031Y-26813931D01*
X16294027Y-26813936D01*
X16294027Y-26813937D01*
X16294026Y-26813938D01*
X16279041Y-26828923D01*
X16235936Y-26872027D01*
X16224557Y-26899500D01*
X16204498Y-26947923D01*
X16204498Y-27015366D01*
X16190146Y-27050014D01*
X16155498Y-27064366D01*
X16149102Y-27063947D01*
X16000000Y-27044318D01*
X15843238Y-27064955D01*
X15697163Y-27125461D01*
X15697158Y-27125464D01*
X15571718Y-27221717D01*
X15571717Y-27221718D01*
X15475464Y-27347158D01*
X15475461Y-27347163D01*
X15414955Y-27493238D01*
X15394318Y-27650000D01*
X15414955Y-27806761D01*
X15475461Y-27952836D01*
X15475464Y-27952841D01*
X15556898Y-28058969D01*
X15571718Y-28078282D01*
X15697159Y-28174536D01*
X15697161Y-28174536D01*
X15697163Y-28174538D01*
X15796767Y-28215795D01*
X15843238Y-28235044D01*
X16000000Y-28255682D01*
X16001122Y-28255534D01*
X16001673Y-28255682D01*
X16003212Y-28255682D01*
X16003212Y-28256094D01*
X16037346Y-28265240D01*
X16056099Y-28297718D01*
X16056099Y-28310510D01*
X16044318Y-28399999D01*
X16064955Y-28556761D01*
X16125461Y-28702836D01*
X16125464Y-28702841D01*
X16220185Y-28826285D01*
X16221718Y-28828282D01*
X16347159Y-28924536D01*
X16347161Y-28924536D01*
X16347163Y-28924538D01*
X16389470Y-28942062D01*
X16493238Y-28985044D01*
X16650000Y-29005682D01*
X16806762Y-28985044D01*
X16952841Y-28924536D01*
X17078282Y-28828282D01*
X17174536Y-28702841D01*
X17235044Y-28556762D01*
X17251419Y-28432379D01*
X17270171Y-28399902D01*
X17306396Y-28390195D01*
X17338874Y-28408947D01*
X17348581Y-28432380D01*
X17364955Y-28556761D01*
X17425461Y-28702836D01*
X17425464Y-28702841D01*
X17520185Y-28826285D01*
X17521718Y-28828282D01*
X17647159Y-28924536D01*
X17647161Y-28924536D01*
X17647163Y-28924538D01*
X17689470Y-28942062D01*
X17793238Y-28985044D01*
X17950000Y-29005682D01*
X18106762Y-28985044D01*
X18252841Y-28924536D01*
X18378282Y-28828282D01*
X18474536Y-28702841D01*
X18535044Y-28556762D01*
X18555682Y-28400000D01*
X18543900Y-28310510D01*
X18553607Y-28274286D01*
X18586085Y-28255534D01*
X18598876Y-28255534D01*
X18600000Y-28255682D01*
X18756762Y-28235044D01*
X18902841Y-28174536D01*
X19028282Y-28078282D01*
X19124536Y-27952841D01*
X19185044Y-27806762D01*
X19205682Y-27650000D01*
X19185044Y-27493238D01*
X19124536Y-27347159D01*
X19028282Y-27221718D01*
X19007228Y-27205563D01*
X18902841Y-27125464D01*
X18902836Y-27125461D01*
X18756761Y-27064955D01*
X18620637Y-27047034D01*
X18600000Y-27044318D01*
X18599999Y-27044318D01*
X18450896Y-27063947D01*
X18414671Y-27054240D01*
X18395920Y-27021761D01*
X18395501Y-27015366D01*
X18395501Y-26951036D01*
X18395502Y-26951027D01*
X18395502Y-26863177D01*
X18395501Y-26863173D01*
X18376364Y-26816973D01*
X18371638Y-26805563D01*
X18364064Y-26787278D01*
X18305974Y-26729188D01*
X18305972Y-26729187D01*
X18303181Y-26726396D01*
X18303181Y-26726395D01*
X18303177Y-26726392D01*
X18028393Y-26451608D01*
X18014041Y-26416960D01*
X18028393Y-26382312D01*
X18063041Y-26367960D01*
X18116792Y-26367960D01*
X18116794Y-26367960D01*
X18173579Y-26344438D01*
X18192691Y-26336522D01*
X18250781Y-26278432D01*
X18250781Y-26278431D01*
X18257670Y-26271542D01*
X18257672Y-26271539D01*
X18281048Y-26248163D01*
X18281051Y-26248161D01*
X18287940Y-26241272D01*
X18287941Y-26241272D01*
X18346031Y-26183182D01*
X18362274Y-26143967D01*
X18377469Y-26107285D01*
X18377469Y-26025133D01*
X18377469Y-26021190D01*
X18377468Y-26021176D01*
X18377468Y-25922494D01*
X18377469Y-25922485D01*
X18377469Y-25834633D01*
X18371484Y-25820186D01*
X18358158Y-25788015D01*
X18346031Y-25758736D01*
X18287941Y-25700646D01*
X18285151Y-25697856D01*
X18285144Y-25697850D01*
X18257673Y-25670379D01*
X18257673Y-25670378D01*
X18192693Y-25605397D01*
X18192691Y-25605396D01*
X18161253Y-25592374D01*
X18116795Y-25573958D01*
X18116794Y-25573958D01*
X18094999Y-25573958D01*
X18060351Y-25559606D01*
X18045999Y-25524958D01*
X18060351Y-25490310D01*
X18067773Y-25484218D01*
X18137577Y-25437577D01*
X18187417Y-25362986D01*
X18200500Y-25297211D01*
X18200499Y-24552790D01*
X18187417Y-24487014D01*
X18150000Y-24431015D01*
X18137577Y-24412422D01*
X18062983Y-24362581D01*
X18015441Y-24353125D01*
X17984258Y-24332290D01*
X17976000Y-24305067D01*
X17976000Y-24294931D01*
X17990352Y-24260283D01*
X18015439Y-24246873D01*
X18062986Y-24237417D01*
X18137577Y-24187577D01*
X18187417Y-24112986D01*
X18200500Y-24047211D01*
X18200499Y-23302790D01*
X18187417Y-23237014D01*
X18150000Y-23181015D01*
X18137577Y-23162422D01*
X18062983Y-23112581D01*
X18015441Y-23103125D01*
X17984258Y-23082290D01*
X17976000Y-23055067D01*
X17976000Y-22905330D01*
X17990351Y-22870683D01*
X19137080Y-21723953D01*
X19137083Y-21723952D01*
X19143972Y-21717063D01*
X19143973Y-21717063D01*
X19202063Y-21658973D01*
X19206873Y-21647359D01*
X19215084Y-21627537D01*
X19215084Y-21627535D01*
X19221177Y-21612826D01*
X19233501Y-21583076D01*
X19233501Y-21500924D01*
X19233501Y-21496981D01*
X19233500Y-21496967D01*
X19233500Y-18616924D01*
X19220478Y-18585487D01*
X19202063Y-18541027D01*
X19143973Y-18482937D01*
X19143971Y-18482936D01*
X19141180Y-18480145D01*
X19141180Y-18480144D01*
X19141176Y-18480141D01*
X18331455Y-17670420D01*
X18331455Y-17670419D01*
X18266475Y-17605438D01*
X18266473Y-17605437D01*
X18235035Y-17592415D01*
X18190577Y-17573999D01*
X18190576Y-17573999D01*
X18108424Y-17573999D01*
X18102723Y-17573999D01*
X18102715Y-17574000D01*
X17994030Y-17574000D01*
X17959382Y-17559648D01*
X17945030Y-17525000D01*
X17959382Y-17490352D01*
X17981347Y-17477670D01*
X17981405Y-17477654D01*
X17985288Y-17476614D01*
X18065212Y-17430470D01*
X18129996Y-17365684D01*
X18164644Y-17351333D01*
X18199292Y-17365685D01*
X18313355Y-17479748D01*
X18321140Y-17489892D01*
X18334490Y-17513015D01*
X18661985Y-17840510D01*
X18712430Y-17869634D01*
X18730365Y-17887569D01*
X18757501Y-17934569D01*
X18759491Y-17938015D01*
X18861985Y-18040509D01*
X18888449Y-18055788D01*
X18987512Y-18112983D01*
X18987514Y-18112983D01*
X18987515Y-18112984D01*
X19022517Y-18122363D01*
X19127522Y-18150500D01*
X19127525Y-18150500D01*
X20100500Y-18150500D01*
X20135148Y-18164852D01*
X20149500Y-18199500D01*
X20149500Y-18838149D01*
X20141242Y-18865372D01*
X20123536Y-18891870D01*
X20074500Y-19010252D01*
X20074498Y-19010258D01*
X20070747Y-19029117D01*
X20049501Y-19135931D01*
X20049501Y-19264069D01*
X20058687Y-19310250D01*
X20074498Y-19389741D01*
X20074501Y-19389751D01*
X20123533Y-19508124D01*
X20141242Y-19534627D01*
X20149500Y-19561850D01*
X20149500Y-22338149D01*
X20141242Y-22365372D01*
X20123536Y-22391870D01*
X20074500Y-22510252D01*
X20074498Y-22510258D01*
X20071479Y-22525437D01*
X20049501Y-22635931D01*
X20049501Y-22764069D01*
X20056648Y-22800000D01*
X20074498Y-22889741D01*
X20074501Y-22889751D01*
X20123533Y-23008124D01*
X20141242Y-23034627D01*
X20149500Y-23061850D01*
X20149500Y-28038149D01*
X20141243Y-28065371D01*
X20123532Y-28091877D01*
X20081551Y-28193228D01*
X20070929Y-28209124D01*
X19378437Y-28901616D01*
X18685331Y-29594723D01*
X17809122Y-30470930D01*
X17793226Y-30481552D01*
X17768308Y-30491874D01*
X17698546Y-30520770D01*
X17679798Y-30524500D01*
X13864742Y-30524500D01*
X13830094Y-30510148D01*
X13614668Y-30294722D01*
X13508129Y-30223536D01*
X13508124Y-30223534D01*
X13422377Y-30188016D01*
X13389742Y-30174498D01*
X13389737Y-30174497D01*
X13264072Y-30149500D01*
X13264069Y-30149500D01*
X12335931Y-30149500D01*
X12335927Y-30149500D01*
X12210262Y-30174497D01*
X12210257Y-30174498D01*
X12091874Y-30223534D01*
X11985331Y-30294723D01*
X11894723Y-30385331D01*
X11823534Y-30491874D01*
X11774498Y-30610257D01*
X11774498Y-30610260D01*
X11749500Y-30735927D01*
X11749500Y-30864072D01*
X11774497Y-30989737D01*
X11774498Y-30989742D01*
X11774499Y-30989744D01*
X11823535Y-31108127D01*
X11894724Y-31214669D01*
X11985331Y-31305276D01*
X12091873Y-31376465D01*
X12210256Y-31425501D01*
X12335931Y-31450500D01*
X12910258Y-31450500D01*
X12944906Y-31464852D01*
X13160331Y-31680277D01*
X13205564Y-31710500D01*
X13266873Y-31751465D01*
X13290906Y-31761419D01*
X13294251Y-31762805D01*
X13320770Y-31789323D01*
X13324500Y-31808075D01*
X13324500Y-32022377D01*
X13316997Y-32046607D01*
X13317218Y-32046705D01*
X13316377Y-32048607D01*
X13315926Y-32050067D01*
X13315384Y-32050857D01*
X13272270Y-32148499D01*
X13272268Y-32148505D01*
X13269501Y-32172359D01*
X13269500Y-32172379D01*
X13269500Y-32627617D01*
X13269501Y-32627626D01*
X13272270Y-32651499D01*
X13315384Y-32749142D01*
X13359094Y-32792852D01*
X13373446Y-32827500D01*
X13359094Y-32862148D01*
X13324446Y-32876500D01*
X5700683Y-32876500D01*
X5666035Y-32862148D01*
X5651683Y-32827500D01*
X5652182Y-32820526D01*
X5655133Y-32800001D01*
X5655133Y-32799997D01*
X5636698Y-32671776D01*
X5616531Y-32627617D01*
X5582882Y-32553937D01*
X5498049Y-32456033D01*
X5389069Y-32385996D01*
X5389066Y-32385995D01*
X5264776Y-32349500D01*
X5264772Y-32349500D01*
X5135228Y-32349500D01*
X5135223Y-32349500D01*
X5010933Y-32385995D01*
X4901950Y-32456033D01*
X4817119Y-32553936D01*
X4817118Y-32553936D01*
X4763301Y-32671776D01*
X4744867Y-32799997D01*
X4744867Y-32800002D01*
X4763301Y-32928223D01*
X4817118Y-33046063D01*
X4901951Y-33143967D01*
X5010931Y-33214004D01*
X5080093Y-33234311D01*
X5135223Y-33250499D01*
X5135228Y-33250500D01*
X5264767Y-33250500D01*
X5264772Y-33250500D01*
X5264776Y-33250498D01*
X5267996Y-33250035D01*
X5304336Y-33259302D01*
X5309627Y-33263887D01*
X5311592Y-33265852D01*
X5325944Y-33300500D01*
X5311592Y-33335148D01*
X5276944Y-33349500D01*
X2549000Y-33349500D01*
X2514352Y-33335148D01*
X2500000Y-33300500D01*
X2500000Y-28000000D01*
X3644341Y-28000000D01*
X3664937Y-28235410D01*
X3664938Y-28235416D01*
X3726094Y-28463655D01*
X3726095Y-28463660D01*
X3825963Y-28677828D01*
X3825970Y-28677840D01*
X3961500Y-28871395D01*
X3961506Y-28871402D01*
X4128597Y-29038493D01*
X4128604Y-29038499D01*
X4322159Y-29174029D01*
X4322171Y-29174036D01*
X4536339Y-29273904D01*
X4536344Y-29273905D01*
X4764583Y-29335061D01*
X4764587Y-29335061D01*
X4764592Y-29335063D01*
X5000000Y-29355659D01*
X5235408Y-29335063D01*
X5235414Y-29335061D01*
X5235416Y-29335061D01*
X5349535Y-29304483D01*
X5463657Y-29273904D01*
X5463660Y-29273904D01*
X5463660Y-29273903D01*
X5463663Y-29273903D01*
X5677830Y-29174035D01*
X5677831Y-29174034D01*
X5677840Y-29174029D01*
X5871395Y-29038499D01*
X5871401Y-29038495D01*
X6038495Y-28871401D01*
X6082943Y-28807923D01*
X6160362Y-28697358D01*
X6191991Y-28677207D01*
X6228605Y-28685325D01*
X6248756Y-28716954D01*
X6249500Y-28725463D01*
X6249500Y-29922477D01*
X6287015Y-30062483D01*
X6287016Y-30062487D01*
X6359491Y-30188015D01*
X6461985Y-30290509D01*
X6469284Y-30294723D01*
X6587512Y-30362983D01*
X6587514Y-30362983D01*
X6587515Y-30362984D01*
X6622517Y-30372363D01*
X6727522Y-30400500D01*
X6727525Y-30400500D01*
X6872477Y-30400500D01*
X6942480Y-30381742D01*
X7012485Y-30362984D01*
X7138015Y-30290509D01*
X7240509Y-30188015D01*
X7312984Y-30062485D01*
X7331742Y-29992480D01*
X7350500Y-29922477D01*
X7350500Y-27244170D01*
X7318422Y-27124457D01*
X7312984Y-27104163D01*
X7296724Y-27076000D01*
X7240510Y-26978633D01*
X6121367Y-25859490D01*
X6121364Y-25859488D01*
X6121360Y-25859485D01*
X6018328Y-25800000D01*
X7944867Y-25800000D01*
X7947769Y-25820187D01*
X7949001Y-25828751D01*
X7949500Y-25835725D01*
X7949500Y-26564273D01*
X7949001Y-26571246D01*
X7944867Y-26599998D01*
X7944867Y-26600001D01*
X7949001Y-26628751D01*
X7949500Y-26635725D01*
X7949500Y-27764273D01*
X7949001Y-27771246D01*
X7944867Y-27799998D01*
X7944867Y-27800001D01*
X7945839Y-27806761D01*
X7948228Y-27823379D01*
X7949001Y-27828751D01*
X7949500Y-27835725D01*
X7949500Y-27859310D01*
X7957147Y-27887848D01*
X7958318Y-27893557D01*
X7963303Y-27928227D01*
X7972886Y-27949211D01*
X7975644Y-27956883D01*
X7980200Y-27973885D01*
X7980202Y-27973889D01*
X7997954Y-28004637D01*
X8000091Y-28008781D01*
X8017118Y-28046063D01*
X8017118Y-28046064D01*
X8028301Y-28058969D01*
X8033705Y-28066558D01*
X8039507Y-28076608D01*
X8039509Y-28076610D01*
X8039511Y-28076614D01*
X8039514Y-28076617D01*
X8068822Y-28105925D01*
X8071206Y-28108485D01*
X8101951Y-28143967D01*
X8111270Y-28149956D01*
X8119425Y-28156528D01*
X8723386Y-28760489D01*
X8826113Y-28819799D01*
X8850326Y-28826286D01*
X8869787Y-28831500D01*
X8886932Y-28839956D01*
X8997159Y-28924536D01*
X8997161Y-28924536D01*
X8997163Y-28924538D01*
X9039470Y-28942062D01*
X9143238Y-28985044D01*
X9300000Y-29005682D01*
X9456762Y-28985044D01*
X9602841Y-28924536D01*
X9728282Y-28828282D01*
X9824536Y-28702841D01*
X9885044Y-28556762D01*
X9901419Y-28432379D01*
X9920171Y-28399902D01*
X9956396Y-28390195D01*
X9988874Y-28408947D01*
X9998581Y-28432380D01*
X10014955Y-28556761D01*
X10075461Y-28702836D01*
X10075464Y-28702841D01*
X10170185Y-28826285D01*
X10171718Y-28828282D01*
X10297159Y-28924536D01*
X10297161Y-28924536D01*
X10297163Y-28924538D01*
X10339470Y-28942062D01*
X10443238Y-28985044D01*
X10600000Y-29005682D01*
X10756762Y-28985044D01*
X10902841Y-28924536D01*
X11028282Y-28828282D01*
X11124536Y-28702841D01*
X11185044Y-28556762D01*
X11201671Y-28430460D01*
X11220422Y-28397983D01*
X11256647Y-28388276D01*
X11289126Y-28407027D01*
X11298833Y-28430461D01*
X11315443Y-28556630D01*
X11357936Y-28659218D01*
X11357937Y-28659218D01*
X11600000Y-28417155D01*
X11600000Y-28439496D01*
X11620444Y-28515796D01*
X11659940Y-28584205D01*
X11715795Y-28640060D01*
X11784204Y-28679556D01*
X11860504Y-28700000D01*
X11882843Y-28700000D01*
X11640780Y-28942061D01*
X11743371Y-28984556D01*
X11900000Y-29005176D01*
X12056628Y-28984556D01*
X12056632Y-28984555D01*
X12159218Y-28942062D01*
X12159218Y-28942061D01*
X11917157Y-28700000D01*
X11939496Y-28700000D01*
X12015796Y-28679556D01*
X12084205Y-28640060D01*
X12140060Y-28584205D01*
X12179556Y-28515796D01*
X12200000Y-28439496D01*
X12200000Y-28417157D01*
X12442061Y-28659218D01*
X12442062Y-28659218D01*
X12484555Y-28556632D01*
X12484556Y-28556628D01*
X12505176Y-28400000D01*
X12484556Y-28243371D01*
X12442061Y-28140780D01*
X12200000Y-28382841D01*
X12200000Y-28360504D01*
X12179556Y-28284204D01*
X12140060Y-28215795D01*
X12084205Y-28159940D01*
X12015796Y-28120444D01*
X11939496Y-28100000D01*
X11917157Y-28100000D01*
X12159218Y-27857937D01*
X12159218Y-27857936D01*
X12056630Y-27815443D01*
X11899999Y-27794823D01*
X11899992Y-27794823D01*
X11898797Y-27794980D01*
X11898212Y-27794823D01*
X11896789Y-27794823D01*
X11896789Y-27794441D01*
X11862574Y-27785265D01*
X11843831Y-27752782D01*
X11843831Y-27740010D01*
X11855682Y-27650000D01*
X11835044Y-27493238D01*
X11774536Y-27347159D01*
X11678282Y-27221718D01*
X11657228Y-27205563D01*
X11552841Y-27125464D01*
X11552836Y-27125461D01*
X11406761Y-27064955D01*
X11250000Y-27044318D01*
X11093238Y-27064955D01*
X10947163Y-27125461D01*
X10885329Y-27172908D01*
X10849104Y-27182614D01*
X10816625Y-27163862D01*
X10806500Y-27134033D01*
X10806500Y-27074831D01*
X10820852Y-27040183D01*
X11120683Y-26740352D01*
X11155331Y-26726000D01*
X12244669Y-26726000D01*
X12279317Y-26740352D01*
X12972641Y-27433676D01*
X12972644Y-27433680D01*
X12972645Y-27433680D01*
X12975436Y-27436471D01*
X12975437Y-27436473D01*
X13033527Y-27494563D01*
X13064962Y-27507583D01*
X13064964Y-27507585D01*
X13064964Y-27507584D01*
X13109424Y-27526001D01*
X13109425Y-27526001D01*
X13197277Y-27526001D01*
X13197285Y-27526000D01*
X14402715Y-27526000D01*
X14402723Y-27526001D01*
X14408424Y-27526001D01*
X14490575Y-27526001D01*
X14490576Y-27526001D01*
X14535035Y-27507584D01*
X14566473Y-27494563D01*
X14624563Y-27436473D01*
X14624563Y-27436472D01*
X14631452Y-27429583D01*
X14631454Y-27429580D01*
X15343080Y-26717954D01*
X15343083Y-26717952D01*
X15349972Y-26711063D01*
X15349973Y-26711063D01*
X15408063Y-26652973D01*
X15430292Y-26599305D01*
X15439500Y-26577076D01*
X15439500Y-26494924D01*
X15439500Y-25897830D01*
X15453849Y-25863185D01*
X15510082Y-25806951D01*
X15510085Y-25806950D01*
X15516972Y-25800063D01*
X15516973Y-25800063D01*
X15575063Y-25741973D01*
X15584576Y-25719005D01*
X15588517Y-25709492D01*
X15588517Y-25709491D01*
X15592181Y-25700645D01*
X15606501Y-25666076D01*
X15606501Y-25583924D01*
X15606501Y-25579981D01*
X15606500Y-25579967D01*
X15606500Y-25491280D01*
X15620852Y-25456632D01*
X15655500Y-25442280D01*
X15682723Y-25450538D01*
X15737209Y-25486944D01*
X15737208Y-25486944D01*
X15749999Y-25489488D01*
X15750000Y-25489488D01*
X15750000Y-24360510D01*
X15737205Y-24363056D01*
X15682722Y-24399460D01*
X15645940Y-24406776D01*
X15614758Y-24385940D01*
X15606500Y-24358718D01*
X15606500Y-24241280D01*
X15620852Y-24206632D01*
X15655500Y-24192280D01*
X15682723Y-24200538D01*
X15737209Y-24236944D01*
X15737208Y-24236944D01*
X15749999Y-24239488D01*
X15750000Y-24239488D01*
X15750000Y-23110510D01*
X15737205Y-23113056D01*
X15677672Y-23152834D01*
X15640890Y-23160150D01*
X15623228Y-23152834D01*
X15562987Y-23112583D01*
X15546542Y-23109312D01*
X15497211Y-23099500D01*
X15497208Y-23099500D01*
X15302791Y-23099500D01*
X15237013Y-23112583D01*
X15237010Y-23112584D01*
X15177222Y-23152533D01*
X15140440Y-23159849D01*
X15122778Y-23152533D01*
X15062987Y-23112583D01*
X15046542Y-23109312D01*
X14997211Y-23099500D01*
X14997208Y-23099500D01*
X14802791Y-23099500D01*
X14737013Y-23112583D01*
X14662422Y-23162422D01*
X14612583Y-23237013D01*
X14612583Y-23237014D01*
X14599500Y-23302789D01*
X14599500Y-23302790D01*
X14599500Y-23302792D01*
X14599500Y-24047208D01*
X14612583Y-24112986D01*
X14662420Y-24187574D01*
X14662423Y-24187577D01*
X14671721Y-24193789D01*
X14692558Y-24224971D01*
X14693500Y-24234532D01*
X14693500Y-24365466D01*
X14679148Y-24400114D01*
X14671724Y-24406207D01*
X14662423Y-24412421D01*
X14612583Y-24487013D01*
X14612583Y-24487014D01*
X14599500Y-24552789D01*
X14599500Y-24552790D01*
X14599500Y-24552792D01*
X14599500Y-25297208D01*
X14612583Y-25362986D01*
X14662420Y-25437574D01*
X14662423Y-25437577D01*
X14671721Y-25443789D01*
X14692558Y-25474971D01*
X14693500Y-25484532D01*
X14693500Y-26425169D01*
X14679148Y-26459817D01*
X14279317Y-26859648D01*
X14244669Y-26874000D01*
X13355331Y-26874000D01*
X13320683Y-26859648D01*
X12631455Y-26170420D01*
X12631455Y-26170419D01*
X12566475Y-26105438D01*
X12566473Y-26105437D01*
X12535035Y-26092415D01*
X12490577Y-26073999D01*
X12490576Y-26073999D01*
X12408424Y-26073999D01*
X12402723Y-26073999D01*
X12402715Y-26074000D01*
X10909419Y-26074000D01*
X10900913Y-26077525D01*
X10900911Y-26077526D01*
X10833527Y-26105437D01*
X10775437Y-26163527D01*
X10185938Y-26753025D01*
X10185935Y-26753030D01*
X10180503Y-26766146D01*
X10180502Y-26766148D01*
X10154498Y-26828923D01*
X10154498Y-26916777D01*
X10154499Y-26916786D01*
X10154499Y-27015366D01*
X10140147Y-27050014D01*
X10105499Y-27064366D01*
X10099104Y-27063947D01*
X9950000Y-27044318D01*
X9793238Y-27064955D01*
X9647163Y-27125461D01*
X9647158Y-27125464D01*
X9521718Y-27221717D01*
X9521717Y-27221718D01*
X9425464Y-27347158D01*
X9425461Y-27347163D01*
X9364955Y-27493238D01*
X9344318Y-27650000D01*
X9356099Y-27739488D01*
X9346392Y-27775714D01*
X9313914Y-27794465D01*
X9301134Y-27794466D01*
X9300008Y-27794318D01*
X9300001Y-27794318D01*
X9300000Y-27794318D01*
X9294972Y-27794980D01*
X9143238Y-27814955D01*
X9109012Y-27829132D01*
X9071509Y-27829132D01*
X9055613Y-27818510D01*
X8864852Y-27627749D01*
X8850500Y-27593101D01*
X8850500Y-26635725D01*
X8850999Y-26628751D01*
X8855133Y-26600001D01*
X8855133Y-26599998D01*
X8850999Y-26571246D01*
X8850500Y-26564273D01*
X8850500Y-25835725D01*
X8850999Y-25828751D01*
X8852231Y-25820187D01*
X8855133Y-25800000D01*
X8853515Y-25788749D01*
X8850999Y-25771246D01*
X8850500Y-25764273D01*
X8850500Y-25740691D01*
X8842851Y-25712148D01*
X8841682Y-25706453D01*
X8836697Y-25671774D01*
X8827111Y-25650784D01*
X8824355Y-25643120D01*
X8819799Y-25626114D01*
X8802035Y-25595347D01*
X8799907Y-25591218D01*
X8797295Y-25585499D01*
X8782882Y-25553937D01*
X8771697Y-25541029D01*
X8766292Y-25533438D01*
X8760493Y-25523393D01*
X8760490Y-25523390D01*
X8760489Y-25523387D01*
X8731182Y-25494080D01*
X8728798Y-25491520D01*
X8722469Y-25484216D01*
X8698049Y-25456033D01*
X8698048Y-25456032D01*
X8698046Y-25456031D01*
X8688727Y-25450042D01*
X8680570Y-25443468D01*
X8676616Y-25439514D01*
X8676613Y-25439511D01*
X8676609Y-25439509D01*
X8676607Y-25439507D01*
X8635581Y-25415821D01*
X8633590Y-25414608D01*
X8633581Y-25414602D01*
X8589069Y-25385996D01*
X8589066Y-25385995D01*
X8589064Y-25385994D01*
X8584209Y-25384568D01*
X8576855Y-25381419D01*
X8576851Y-25381429D01*
X8573886Y-25380201D01*
X8522360Y-25366394D01*
X8521238Y-25366079D01*
X8464776Y-25349500D01*
X8464772Y-25349500D01*
X8335228Y-25349500D01*
X8335221Y-25349500D01*
X8278769Y-25366076D01*
X8277648Y-25366391D01*
X8226117Y-25380199D01*
X8223151Y-25381428D01*
X8223146Y-25381418D01*
X8215785Y-25384570D01*
X8210936Y-25385994D01*
X8210926Y-25385998D01*
X8166415Y-25414602D01*
X8164427Y-25415814D01*
X8123385Y-25439512D01*
X8123381Y-25439515D01*
X8119423Y-25443473D01*
X8111271Y-25450042D01*
X8101952Y-25456031D01*
X8101949Y-25456033D01*
X8071205Y-25491514D01*
X8068824Y-25494072D01*
X8039512Y-25523386D01*
X8039507Y-25523393D01*
X8033703Y-25533445D01*
X8028302Y-25541028D01*
X8017119Y-25553936D01*
X8017116Y-25553940D01*
X8000092Y-25591215D01*
X7997957Y-25595356D01*
X7980202Y-25626109D01*
X7980200Y-25626115D01*
X7975643Y-25643120D01*
X7972886Y-25650789D01*
X7963303Y-25671773D01*
X7958319Y-25706435D01*
X7957149Y-25712141D01*
X7949500Y-25740691D01*
X7949500Y-25764273D01*
X7949001Y-25771246D01*
X7946485Y-25788749D01*
X7944867Y-25800000D01*
X6018328Y-25800000D01*
X5995839Y-25787016D01*
X5995836Y-25787015D01*
X5980950Y-25783027D01*
X5980949Y-25783026D01*
X5967130Y-25779323D01*
X5945167Y-25766642D01*
X5888016Y-25709491D01*
X5888008Y-25709485D01*
X5762487Y-25637016D01*
X5762483Y-25637015D01*
X5622478Y-25599500D01*
X5622475Y-25599500D01*
X5148321Y-25599500D01*
X5113673Y-25585148D01*
X4764852Y-25236327D01*
X4750500Y-25201679D01*
X4750500Y-24577522D01*
X4712984Y-24437516D01*
X4712983Y-24437512D01*
X4662168Y-24349500D01*
X4640509Y-24311985D01*
X4538015Y-24209491D01*
X4516664Y-24197164D01*
X4412487Y-24137016D01*
X4412483Y-24137015D01*
X4272478Y-24099500D01*
X4272475Y-24099500D01*
X4127525Y-24099500D01*
X4127522Y-24099500D01*
X3987516Y-24137015D01*
X3987512Y-24137016D01*
X3861984Y-24209491D01*
X3861984Y-24209492D01*
X3759492Y-24311984D01*
X3759491Y-24311984D01*
X3687016Y-24437512D01*
X3687015Y-24437516D01*
X3649500Y-24577522D01*
X3649500Y-25522476D01*
X3657929Y-25553933D01*
X3664905Y-25579967D01*
X3666388Y-25585499D01*
X3666388Y-25585500D01*
X3687014Y-25662481D01*
X3687015Y-25662483D01*
X3687016Y-25662485D01*
X3692379Y-25671774D01*
X3759485Y-25788008D01*
X3759489Y-25788013D01*
X3759490Y-25788015D01*
X4109490Y-26138015D01*
X4561985Y-26590510D01*
X4561986Y-26590511D01*
X4561988Y-26590512D01*
X4577222Y-26599307D01*
X4611807Y-26619274D01*
X4634638Y-26649027D01*
X4629744Y-26686209D01*
X4599991Y-26709040D01*
X4599990Y-26709040D01*
X4536345Y-26726093D01*
X4536339Y-26726095D01*
X4322172Y-26825963D01*
X4322160Y-26825971D01*
X4128604Y-26961500D01*
X4128597Y-26961506D01*
X3961506Y-27128597D01*
X3961500Y-27128604D01*
X3825971Y-27322160D01*
X3825963Y-27322172D01*
X3726095Y-27536339D01*
X3726094Y-27536344D01*
X3664938Y-27764583D01*
X3664937Y-27764589D01*
X3644341Y-28000000D01*
X2500000Y-28000000D01*
X2500000Y-23926034D01*
X2514352Y-23891386D01*
X2549000Y-23877034D01*
X2571245Y-23882375D01*
X2674849Y-23935163D01*
X2768519Y-23949999D01*
X4100000Y-23949999D01*
X4500000Y-23949999D01*
X5831479Y-23949999D01*
X5925147Y-23935165D01*
X6038038Y-23877645D01*
X6038045Y-23877640D01*
X6127640Y-23788045D01*
X6127645Y-23788038D01*
X6185163Y-23675150D01*
X6200000Y-23581480D01*
X6200000Y-23200000D01*
X4500000Y-23200000D01*
X4500000Y-23949999D01*
X4100000Y-23949999D01*
X4100000Y-22800000D01*
X4500000Y-22800000D01*
X6199999Y-22800000D01*
X6199999Y-22727522D01*
X6649500Y-22727522D01*
X6649500Y-22872477D01*
X6687015Y-23012483D01*
X6687016Y-23012487D01*
X6759485Y-23138008D01*
X6759488Y-23138012D01*
X6759490Y-23138015D01*
X7061985Y-23440510D01*
X7061988Y-23440511D01*
X7061991Y-23440514D01*
X7187512Y-23512983D01*
X7187514Y-23512983D01*
X7187515Y-23512984D01*
X7222517Y-23522363D01*
X7327522Y-23550500D01*
X7327525Y-23550500D01*
X7327526Y-23550500D01*
X7472474Y-23550500D01*
X7752738Y-23550500D01*
X7787386Y-23564852D01*
X7801135Y-23591836D01*
X7814353Y-23675303D01*
X7871945Y-23788335D01*
X7871950Y-23788342D01*
X7961657Y-23878049D01*
X7961664Y-23878054D01*
X8074691Y-23935644D01*
X8074692Y-23935644D01*
X8074696Y-23935646D01*
X8168481Y-23950500D01*
X9710258Y-23950499D01*
X9744906Y-23964851D01*
X9935148Y-24155093D01*
X9949500Y-24189741D01*
X9949500Y-24664072D01*
X9974497Y-24789737D01*
X9974498Y-24789742D01*
X9974499Y-24789744D01*
X10023535Y-24908127D01*
X10094724Y-25014669D01*
X10185331Y-25105276D01*
X10291873Y-25176465D01*
X10410256Y-25225501D01*
X10535931Y-25250500D01*
X10664069Y-25250500D01*
X10789744Y-25225501D01*
X10908127Y-25176465D01*
X11014669Y-25105276D01*
X11105276Y-25014669D01*
X11176465Y-24908127D01*
X11225501Y-24789744D01*
X11250500Y-24664069D01*
X11250500Y-23989343D01*
X11264852Y-23954695D01*
X11291836Y-23940946D01*
X11325304Y-23935646D01*
X11412169Y-23891386D01*
X11438335Y-23878054D01*
X11438337Y-23878052D01*
X11438342Y-23878050D01*
X11528050Y-23788342D01*
X11528054Y-23788335D01*
X11585644Y-23675309D01*
X11585644Y-23675307D01*
X11585646Y-23675304D01*
X11600500Y-23581519D01*
X11600499Y-22418482D01*
X11585646Y-22324696D01*
X11566447Y-22287016D01*
X11528054Y-22211664D01*
X11528049Y-22211657D01*
X11438342Y-22121950D01*
X11438335Y-22121945D01*
X11325308Y-22064355D01*
X11325305Y-22064354D01*
X11325304Y-22064354D01*
X11231519Y-22049500D01*
X11231517Y-22049500D01*
X8168482Y-22049500D01*
X8074696Y-22064353D01*
X7961664Y-22121945D01*
X7961657Y-22121950D01*
X7871950Y-22211657D01*
X7871945Y-22211664D01*
X7814355Y-22324690D01*
X7814355Y-22324692D01*
X7814354Y-22324694D01*
X7814354Y-22324696D01*
X7802777Y-22397792D01*
X7801134Y-22408166D01*
X7781538Y-22440142D01*
X7752737Y-22449500D01*
X7648321Y-22449500D01*
X7613673Y-22435148D01*
X7538017Y-22359492D01*
X7538015Y-22359490D01*
X7538012Y-22359488D01*
X7538008Y-22359485D01*
X7412487Y-22287016D01*
X7412483Y-22287015D01*
X7272477Y-22249500D01*
X7272474Y-22249500D01*
X7127526Y-22249500D01*
X7127523Y-22249500D01*
X6987516Y-22287015D01*
X6987512Y-22287016D01*
X6861991Y-22359485D01*
X6861982Y-22359492D01*
X6759492Y-22461982D01*
X6759485Y-22461991D01*
X6687016Y-22587512D01*
X6687015Y-22587516D01*
X6649500Y-22727522D01*
X6199999Y-22727522D01*
X6199999Y-22418520D01*
X6185165Y-22324852D01*
X6127645Y-22211961D01*
X6127640Y-22211954D01*
X6038045Y-22122359D01*
X6038038Y-22122354D01*
X5925150Y-22064836D01*
X5831480Y-22050000D01*
X4500000Y-22050000D01*
X4500000Y-22800000D01*
X4100000Y-22800000D01*
X4100000Y-22050000D01*
X2768520Y-22050000D01*
X2674855Y-22064834D01*
X2571245Y-22117625D01*
X2533858Y-22120567D01*
X2505340Y-22096210D01*
X2500000Y-22073965D01*
X2500000Y-18899500D01*
X2514352Y-18864852D01*
X2549000Y-18850500D01*
X7411772Y-18850500D01*
X7411777Y-18850500D01*
X7833720Y-18813585D01*
X7995833Y-18785000D01*
X12650001Y-18785000D01*
X12650001Y-18799772D01*
X12658703Y-18843527D01*
X12691855Y-18893144D01*
X12741474Y-18926297D01*
X12785223Y-18934999D01*
X13133274Y-18934999D01*
X13167922Y-18949351D01*
X13182274Y-18983999D01*
X13174016Y-19011222D01*
X13109223Y-19108192D01*
X13056420Y-19235670D01*
X13056417Y-19235681D01*
X13029500Y-19371001D01*
X13029500Y-20628998D01*
X13056417Y-20764318D01*
X13056420Y-20764329D01*
X13104935Y-20881454D01*
X13109225Y-20891811D01*
X13113344Y-20897975D01*
X13185883Y-21006539D01*
X13283460Y-21104116D01*
X13328133Y-21133965D01*
X13398189Y-21180775D01*
X13525672Y-21233580D01*
X13525678Y-21233581D01*
X13525681Y-21233582D01*
X13661001Y-21260499D01*
X13661007Y-21260500D01*
X13798993Y-21260500D01*
X13934328Y-21233580D01*
X14061811Y-21180775D01*
X14176542Y-21104114D01*
X14274114Y-21006542D01*
X14350775Y-20891811D01*
X14403580Y-20764328D01*
X14430500Y-20628993D01*
X14430500Y-19371007D01*
X14403580Y-19235672D01*
X14350775Y-19108189D01*
X14285984Y-19011222D01*
X14274116Y-18993460D01*
X14222822Y-18942166D01*
X14208470Y-18907518D01*
X14216728Y-18880294D01*
X14241298Y-18843523D01*
X14249999Y-18799778D01*
X14250000Y-18799775D01*
X14250000Y-18785000D01*
X13988931Y-18785000D01*
X13970180Y-18781270D01*
X13934335Y-18766422D01*
X13934329Y-18766420D01*
X13934328Y-18766420D01*
X13934325Y-18766419D01*
X13934316Y-18766417D01*
X13798998Y-18739500D01*
X13798993Y-18739500D01*
X13661007Y-18739500D01*
X13661001Y-18739500D01*
X13525683Y-18766417D01*
X13525664Y-18766422D01*
X13489820Y-18781270D01*
X13471069Y-18785000D01*
X12650001Y-18785000D01*
X7995833Y-18785000D01*
X8250841Y-18740035D01*
X8250846Y-18740033D01*
X8250849Y-18740033D01*
X8659956Y-18630413D01*
X8659957Y-18630412D01*
X8659963Y-18630411D01*
X9057974Y-18485547D01*
X9441845Y-18306545D01*
X9808655Y-18094768D01*
X10155610Y-17851826D01*
X10480072Y-17579571D01*
X10779571Y-17280072D01*
X11051826Y-16955610D01*
X11294768Y-16608655D01*
X11306114Y-16589004D01*
X11382742Y-16456279D01*
X11506545Y-16241845D01*
X11685547Y-15857974D01*
X11830411Y-15459963D01*
X11831398Y-15456279D01*
X11940033Y-15050849D01*
X11940034Y-15050844D01*
X11940035Y-15050841D01*
X12013585Y-14633720D01*
X12050500Y-14211777D01*
X12050500Y-13788223D01*
X12013585Y-13366280D01*
X11940035Y-12949159D01*
X11932142Y-12919703D01*
X11830413Y-12540043D01*
X11752198Y-12325150D01*
X11685547Y-12142026D01*
X11506545Y-11758155D01*
X11476704Y-11706469D01*
X11294771Y-11391349D01*
X11294765Y-11391340D01*
X11051831Y-11044396D01*
X11051818Y-11044380D01*
X10779589Y-10719949D01*
X10779583Y-10719942D01*
X10779571Y-10719928D01*
X10480072Y-10420429D01*
X10480059Y-10420418D01*
X10480050Y-10420410D01*
X10155619Y-10148181D01*
X10155603Y-10148168D01*
X9808659Y-9905234D01*
X9808650Y-9905228D01*
X9441849Y-9693457D01*
X9242224Y-9600370D01*
X11350000Y-9600370D01*
X11350000Y-9642500D01*
X11500000Y-9642500D01*
X11900000Y-9642500D01*
X12050000Y-9642500D01*
X12050000Y-9600376D01*
X12049999Y-9600370D01*
X12035496Y-9527457D01*
X11980240Y-9444759D01*
X11900000Y-9391144D01*
X11900000Y-9642500D01*
X11500000Y-9642500D01*
X11500000Y-9391144D01*
X11419759Y-9444759D01*
X11364503Y-9527457D01*
X11350000Y-9600370D01*
X9242224Y-9600370D01*
X9057984Y-9514457D01*
X9057970Y-9514451D01*
X8659956Y-9369586D01*
X8564114Y-9343905D01*
X8534361Y-9321075D01*
X8529466Y-9283893D01*
X8552296Y-9254140D01*
X8565062Y-9249002D01*
X8712365Y-9212696D01*
X8852240Y-9139283D01*
X8970483Y-9034530D01*
X9060220Y-8904523D01*
X9068714Y-8882126D01*
X9094419Y-8854817D01*
X9114530Y-8850500D01*
X10649826Y-8850500D01*
X10649828Y-8850500D01*
X10741897Y-8812364D01*
X11085004Y-8469254D01*
X11085007Y-8469253D01*
X11091896Y-8462364D01*
X11091897Y-8462364D01*
X11162364Y-8391897D01*
X11179511Y-8350500D01*
X11200501Y-8299828D01*
X11200501Y-8200172D01*
X11200501Y-8196229D01*
X11200500Y-8196215D01*
X11200500Y-6551280D01*
X11214852Y-6516632D01*
X11223004Y-6510061D01*
X11248049Y-6493967D01*
X11332882Y-6396063D01*
X11386697Y-6278226D01*
X11386697Y-6278224D01*
X11386698Y-6278223D01*
X11405133Y-6150002D01*
X11405133Y-6149997D01*
X11386698Y-6021776D01*
X11353690Y-5949500D01*
X11332882Y-5903937D01*
X11269757Y-5831086D01*
X11257915Y-5795503D01*
X11274702Y-5761967D01*
X11306790Y-5749999D01*
X12567156Y-5749999D01*
X11417156Y-4599999D01*
X11982843Y-4599999D01*
X11982843Y-4600000D01*
X12749999Y-5367156D01*
X12749999Y-3832843D01*
X11982843Y-4599999D01*
X11417156Y-4599999D01*
X10650000Y-3832843D01*
X10650001Y-5550500D01*
X10635649Y-5585148D01*
X10601001Y-5599500D01*
X9799500Y-5599500D01*
X9764852Y-5585148D01*
X9750500Y-5550500D01*
X9750500Y-4823180D01*
X9750499Y-4823176D01*
X9741767Y-4779278D01*
X9708504Y-4729495D01*
X9658721Y-4696232D01*
X9614823Y-4687500D01*
X9614820Y-4687500D01*
X9185180Y-4687500D01*
X9185176Y-4687500D01*
X9141278Y-4696232D01*
X9091495Y-4729495D01*
X9058232Y-4779278D01*
X9049500Y-4823176D01*
X9049500Y-4823180D01*
X9049500Y-6376820D01*
X9051251Y-6385623D01*
X9052309Y-6390941D01*
X9044992Y-6427724D01*
X9013809Y-6448559D01*
X9004250Y-6449500D01*
X8801415Y-6449500D01*
X8766767Y-6435148D01*
X8764383Y-6432588D01*
X8759775Y-6427270D01*
X8747932Y-6391686D01*
X8748749Y-6385620D01*
X8750500Y-6376820D01*
X8750500Y-4823180D01*
X8750499Y-4823176D01*
X8741767Y-4779278D01*
X8708504Y-4729495D01*
X8658721Y-4696232D01*
X8614823Y-4687500D01*
X8614820Y-4687500D01*
X8185180Y-4687500D01*
X8185176Y-4687500D01*
X8141278Y-4696232D01*
X8091495Y-4729495D01*
X8058232Y-4779278D01*
X8049500Y-4823176D01*
X8049500Y-6376819D01*
X8051251Y-6385623D01*
X8043933Y-6422405D01*
X8040225Y-6427267D01*
X8017121Y-6453932D01*
X8017118Y-6453936D01*
X7963301Y-6571776D01*
X7944867Y-6699997D01*
X7944867Y-6700002D01*
X7963301Y-6828223D01*
X8007639Y-6925307D01*
X8017118Y-6946063D01*
X8101951Y-7043967D01*
X8210931Y-7114004D01*
X8259358Y-7128223D01*
X8335223Y-7150499D01*
X8335228Y-7150500D01*
X8464772Y-7150500D01*
X8464776Y-7150499D01*
X8493036Y-7142201D01*
X8589069Y-7114004D01*
X8698049Y-7043967D01*
X8764383Y-6967412D01*
X8797919Y-6950625D01*
X8801415Y-6950500D01*
X9375942Y-6950500D01*
X9410590Y-6964851D01*
X9435148Y-6989408D01*
X9449500Y-7024056D01*
X9449500Y-7525943D01*
X9435148Y-7560591D01*
X9410591Y-7585148D01*
X9375943Y-7599500D01*
X7461837Y-7599500D01*
X7427189Y-7585148D01*
X7412837Y-7550500D01*
X7416566Y-7531751D01*
X7450500Y-7449828D01*
X7450500Y-7401280D01*
X7464852Y-7366632D01*
X7473004Y-7360061D01*
X7498049Y-7343967D01*
X7582882Y-7246063D01*
X7636697Y-7128226D01*
X7636697Y-7128224D01*
X7636698Y-7128223D01*
X7655133Y-7000002D01*
X7655133Y-6999997D01*
X7636698Y-6871776D01*
X7626831Y-6850171D01*
X7582882Y-6753937D01*
X7562467Y-6730376D01*
X7550500Y-6698289D01*
X7550500Y-6561500D01*
X7564852Y-6526852D01*
X7599500Y-6512500D01*
X7614820Y-6512500D01*
X7658722Y-6503767D01*
X7708504Y-6470504D01*
X7741767Y-6420722D01*
X7750500Y-6376820D01*
X7750500Y-4823180D01*
X7741767Y-4779278D01*
X7708504Y-4729495D01*
X7658721Y-4696232D01*
X7614823Y-4687500D01*
X7614820Y-4687500D01*
X7185180Y-4687500D01*
X7185176Y-4687500D01*
X7141278Y-4696232D01*
X7091495Y-4729495D01*
X7058232Y-4779278D01*
X7049500Y-4823176D01*
X7049500Y-6537989D01*
X7035148Y-6572637D01*
X7014310Y-6585003D01*
X7010933Y-6585994D01*
X6901950Y-6656033D01*
X6817119Y-6753936D01*
X6817118Y-6753936D01*
X6763301Y-6871776D01*
X6744867Y-6999997D01*
X6744867Y-7000002D01*
X6763301Y-7128223D01*
X6809848Y-7230144D01*
X6811187Y-7267623D01*
X6785632Y-7295072D01*
X6765276Y-7299500D01*
X6050170Y-7299500D01*
X5958101Y-7337637D01*
X5958100Y-7337637D01*
X5798103Y-7497636D01*
X5727637Y-7568100D01*
X5727637Y-7568101D01*
X5689500Y-7660170D01*
X5689500Y-7967200D01*
X5675148Y-8001848D01*
X5663272Y-8010587D01*
X5567760Y-8060716D01*
X5449520Y-8165466D01*
X5449516Y-8165471D01*
X5359780Y-8295475D01*
X5350816Y-8319113D01*
X5325110Y-8346420D01*
X5287624Y-8347553D01*
X5260317Y-8321847D01*
X5259184Y-8319113D01*
X5256670Y-8312485D01*
X5250220Y-8295477D01*
X5235070Y-8273529D01*
X5212279Y-8240510D01*
X5160483Y-8165470D01*
X5160480Y-8165467D01*
X5160479Y-8165466D01*
X5042239Y-8060716D01*
X4902364Y-7987303D01*
X4784413Y-7958232D01*
X4748985Y-7949500D01*
X4591015Y-7949500D01*
X4562933Y-7956421D01*
X4489281Y-7974574D01*
X4452205Y-7968931D01*
X4442907Y-7961646D01*
X4264852Y-7783591D01*
X4250500Y-7748943D01*
X4250500Y-7424056D01*
X4264849Y-7389411D01*
X4322186Y-7332073D01*
X4356832Y-7317723D01*
X4391480Y-7332074D01*
X4393863Y-7334634D01*
X4401949Y-7343965D01*
X4401951Y-7343967D01*
X4510931Y-7414004D01*
X4563084Y-7429317D01*
X4635223Y-7450499D01*
X4635228Y-7450500D01*
X4764772Y-7450500D01*
X4764776Y-7450499D01*
X4785324Y-7444465D01*
X4889069Y-7414004D01*
X4998049Y-7343967D01*
X5082882Y-7246063D01*
X5136697Y-7128226D01*
X5136697Y-7128224D01*
X5136698Y-7128223D01*
X5155133Y-7000001D01*
X5155133Y-6999998D01*
X5145943Y-6936087D01*
X5155217Y-6899749D01*
X5159796Y-6894464D01*
X5189410Y-6864851D01*
X5224058Y-6850500D01*
X5865826Y-6850500D01*
X5865828Y-6850500D01*
X5957897Y-6812364D01*
X6243409Y-6526852D01*
X6278057Y-6512500D01*
X6614820Y-6512500D01*
X6658722Y-6503767D01*
X6708504Y-6470504D01*
X6741767Y-6420722D01*
X6750500Y-6376820D01*
X6750500Y-4823180D01*
X6741767Y-4779278D01*
X6708504Y-4729495D01*
X6658721Y-4696232D01*
X6614823Y-4687500D01*
X6614820Y-4687500D01*
X6185180Y-4687500D01*
X6185176Y-4687500D01*
X6141278Y-4696232D01*
X6091495Y-4729495D01*
X6058232Y-4779278D01*
X6049500Y-4823176D01*
X6049500Y-5991943D01*
X6035148Y-6026591D01*
X5834148Y-6227591D01*
X5799500Y-6241943D01*
X5764852Y-6227591D01*
X5750500Y-6192943D01*
X5750500Y-4823180D01*
X5750499Y-4823176D01*
X5741767Y-4779278D01*
X5708504Y-4729495D01*
X5658721Y-4696232D01*
X5614823Y-4687500D01*
X5614820Y-4687500D01*
X5185180Y-4687500D01*
X5185176Y-4687500D01*
X5141278Y-4696232D01*
X5091495Y-4729495D01*
X5058232Y-4779278D01*
X5049500Y-4823176D01*
X5049500Y-5875943D01*
X5035148Y-5910591D01*
X5010591Y-5935148D01*
X4975943Y-5949500D01*
X3485180Y-5949500D01*
X3450532Y-5935148D01*
X3440608Y-5920855D01*
X3432882Y-5903937D01*
X3369757Y-5831086D01*
X3357915Y-5795503D01*
X3374702Y-5761967D01*
X3406790Y-5749999D01*
X4467156Y-5749999D01*
X3351805Y-4634648D01*
X3337453Y-4600000D01*
X3337453Y-4599999D01*
X3882843Y-4599999D01*
X3882843Y-4600000D01*
X4649999Y-5367156D01*
X4649999Y-3832843D01*
X3882843Y-4599999D01*
X3337453Y-4599999D01*
X3351805Y-4565352D01*
X3600000Y-4317157D01*
X4467156Y-3450000D01*
X4436528Y-3450000D01*
X4401880Y-3435648D01*
X4387528Y-3401000D01*
X4391956Y-3380645D01*
X4404058Y-3354145D01*
X4431506Y-3328590D01*
X4448630Y-3325500D01*
X5296235Y-3325500D01*
X5330883Y-3339852D01*
X5535148Y-3544117D01*
X5549500Y-3578765D01*
X5549500Y-4376823D01*
X5558232Y-4420721D01*
X5591495Y-4470504D01*
X5640573Y-4503296D01*
X5641278Y-4503767D01*
X5685180Y-4512500D01*
X6114820Y-4512500D01*
X6158722Y-4503767D01*
X6208504Y-4470504D01*
X6241767Y-4420722D01*
X6250500Y-4376820D01*
X6250500Y-3003056D01*
X6264852Y-2968408D01*
X6299500Y-2954056D01*
X6334148Y-2968408D01*
X6535148Y-3169408D01*
X6549500Y-3204056D01*
X6549500Y-4376823D01*
X6558232Y-4420721D01*
X6591495Y-4470504D01*
X6640573Y-4503296D01*
X6641278Y-4503767D01*
X6685180Y-4512500D01*
X7114820Y-4512500D01*
X7158722Y-4503767D01*
X7208504Y-4470504D01*
X7241767Y-4420722D01*
X7250500Y-4376820D01*
X7250500Y-2970300D01*
X7264852Y-2935652D01*
X7299500Y-2921300D01*
X7334148Y-2935652D01*
X7535148Y-3136652D01*
X7549500Y-3171300D01*
X7549500Y-4376823D01*
X7558232Y-4420721D01*
X7591495Y-4470504D01*
X7640573Y-4503296D01*
X7641278Y-4503767D01*
X7685180Y-4512500D01*
X8114820Y-4512500D01*
X8158722Y-4503767D01*
X8208504Y-4470504D01*
X8241767Y-4420722D01*
X8250500Y-4376820D01*
X8250500Y-2823180D01*
X8241767Y-2779278D01*
X8208504Y-2729495D01*
X8158721Y-2696232D01*
X8114823Y-2687500D01*
X8114820Y-2687500D01*
X7814814Y-2687500D01*
X7780166Y-2673148D01*
X7627369Y-2520351D01*
X7613017Y-2485703D01*
X7613514Y-2478744D01*
X7622707Y-2414817D01*
X7622707Y-2414815D01*
X7604272Y-2286593D01*
X7581858Y-2237515D01*
X7550456Y-2168754D01*
X7465623Y-2070850D01*
X7356643Y-2000813D01*
X7356642Y-2000812D01*
X7356641Y-2000812D01*
X7355018Y-2000071D01*
X7354318Y-1999319D01*
X7353695Y-1998919D01*
X7353797Y-1998759D01*
X7329464Y-1972621D01*
X7330805Y-1935142D01*
X7358255Y-1909588D01*
X7375376Y-1906500D01*
X9629424Y-1906500D01*
X9664072Y-1920852D01*
X9737937Y-1994717D01*
X9752289Y-2029365D01*
X9751790Y-2036338D01*
X9734280Y-2158125D01*
X9732703Y-2157898D01*
X9720427Y-2187537D01*
X9218933Y-2689030D01*
X9184285Y-2703382D01*
X9163583Y-2697103D01*
X9163179Y-2698079D01*
X9158721Y-2696232D01*
X9114823Y-2687500D01*
X9114820Y-2687500D01*
X8685180Y-2687500D01*
X8685176Y-2687500D01*
X8641278Y-2696232D01*
X8591495Y-2729495D01*
X8558232Y-2779278D01*
X8549500Y-2823176D01*
X8549500Y-4376823D01*
X8558232Y-4420721D01*
X8591495Y-4470504D01*
X8640573Y-4503296D01*
X8641278Y-4503767D01*
X8685180Y-4512500D01*
X9114820Y-4512500D01*
X9158722Y-4503767D01*
X9208504Y-4470504D01*
X9241767Y-4420722D01*
X9250500Y-4376820D01*
X9250500Y-4232841D01*
X9550000Y-4232841D01*
X9550000Y-4376772D01*
X9558703Y-4420527D01*
X9591855Y-4470144D01*
X9641474Y-4503297D01*
X9685223Y-4511999D01*
X10114772Y-4511999D01*
X10158527Y-4503296D01*
X10208144Y-4470144D01*
X10241297Y-4420525D01*
X10249999Y-4376778D01*
X10249999Y-4232842D01*
X9900000Y-3882843D01*
X9550000Y-4232841D01*
X9250500Y-4232841D01*
X9250500Y-3667155D01*
X9550000Y-3667155D01*
X9617156Y-3599999D01*
X10182843Y-3599999D01*
X10182843Y-3600000D01*
X10249998Y-3667156D01*
X10249999Y-3667156D01*
X10249999Y-3532843D01*
X10182843Y-3599999D01*
X9617156Y-3599999D01*
X9550000Y-3532843D01*
X9550000Y-3667155D01*
X9250500Y-3667155D01*
X9250500Y-3450000D01*
X10832843Y-3450000D01*
X11699999Y-4317156D01*
X12567156Y-3450000D01*
X10832843Y-3450000D01*
X9250500Y-3450000D01*
X9250500Y-3261830D01*
X9264851Y-3227183D01*
X9502792Y-2989241D01*
X9537438Y-2974891D01*
X9572086Y-2989243D01*
X9900000Y-3317157D01*
X9900001Y-3317157D01*
X10249998Y-2967157D01*
X10249999Y-2967156D01*
X10249999Y-2823227D01*
X10241296Y-2779472D01*
X10208144Y-2729855D01*
X10155827Y-2694899D01*
X10134992Y-2663717D01*
X10142308Y-2626934D01*
X10173490Y-2606099D01*
X10183050Y-2605157D01*
X10254684Y-2605157D01*
X10254688Y-2605156D01*
X10297971Y-2592447D01*
X10378981Y-2568661D01*
X10487961Y-2498624D01*
X10572794Y-2400720D01*
X10626609Y-2282883D01*
X10626609Y-2282881D01*
X10626610Y-2282880D01*
X10645045Y-2154659D01*
X10645045Y-2154654D01*
X10626610Y-2026433D01*
X10619056Y-2009893D01*
X10572794Y-1908594D01*
X10487961Y-1810690D01*
X10378981Y-1740653D01*
X10378978Y-1740652D01*
X10254688Y-1704157D01*
X10254684Y-1704157D01*
X10125140Y-1704157D01*
X10125138Y-1704157D01*
X10080605Y-1717232D01*
X10043317Y-1713221D01*
X10032154Y-1704864D01*
X9917210Y-1589920D01*
X9917210Y-1589919D01*
X9852230Y-1524938D01*
X9852228Y-1524937D01*
X9820790Y-1511915D01*
X9776332Y-1493499D01*
X9776331Y-1493499D01*
X9694179Y-1493499D01*
X9688478Y-1493499D01*
X9688470Y-1493500D01*
X9072532Y-1493500D01*
X9037884Y-1479148D01*
X9023532Y-1444500D01*
X9032206Y-1416665D01*
X9109773Y-1304290D01*
X9109774Y-1304288D01*
X9149325Y-1200000D01*
X8789618Y-1200000D01*
X8790064Y-1199554D01*
X8832851Y-1125445D01*
X8855000Y-1042787D01*
X8855000Y-957213D01*
X8832851Y-874555D01*
X8790064Y-800446D01*
X8789618Y-800000D01*
X9149324Y-800000D01*
X9109774Y-695711D01*
X9109773Y-695709D01*
X9027719Y-576835D01*
X9019848Y-540168D01*
X9040210Y-508674D01*
X9068045Y-500000D01*
X19538311Y-500000D01*
X19572959Y-514352D01*
G37*
%TD.AperFunction*%
%TA.AperFunction,Conductor*%
G36*
X16135148Y-17514852D02*
G01*
X16149500Y-17549500D01*
X16149500Y-17799823D01*
X16157593Y-17840507D01*
X16158233Y-17843722D01*
X16171718Y-17863905D01*
X16177647Y-17872778D01*
X16184962Y-17909561D01*
X16177647Y-17927222D01*
X16158232Y-17956280D01*
X16149500Y-18000176D01*
X16149500Y-18299823D01*
X16158232Y-18343720D01*
X16177947Y-18373226D01*
X16185263Y-18410009D01*
X16177947Y-18427671D01*
X16158702Y-18456473D01*
X16150000Y-18500221D01*
X16150000Y-18515000D01*
X17749999Y-18515000D01*
X17749999Y-18500227D01*
X17741296Y-18456472D01*
X17741295Y-18456470D01*
X17722053Y-18427671D01*
X17714737Y-18390889D01*
X17722053Y-18373226D01*
X17741767Y-18343722D01*
X17750500Y-18299820D01*
X17750500Y-18275000D01*
X17764852Y-18240352D01*
X17799500Y-18226000D01*
X17944669Y-18226000D01*
X17979317Y-18240352D01*
X18552148Y-18813183D01*
X18566500Y-18847831D01*
X18566500Y-20239749D01*
X18552148Y-20274397D01*
X18517500Y-20288749D01*
X18511364Y-20288749D01*
X18466906Y-20307165D01*
X18435469Y-20320186D01*
X18406424Y-20349231D01*
X18377379Y-20378277D01*
X18377378Y-20378278D01*
X18340220Y-20415436D01*
X18340219Y-20415437D01*
X18311174Y-20444482D01*
X18282129Y-20473526D01*
X18274530Y-20491873D01*
X18250691Y-20549422D01*
X18250691Y-20637276D01*
X18250692Y-20637285D01*
X18250692Y-20735967D01*
X18250691Y-20735981D01*
X18250691Y-20822077D01*
X18268086Y-20864069D01*
X18268086Y-20864070D01*
X18282129Y-20897973D01*
X18282130Y-20897975D01*
X18347110Y-20962954D01*
X18347112Y-20962955D01*
X18374583Y-20990426D01*
X18374586Y-20990430D01*
X18374587Y-20990430D01*
X18377378Y-20993221D01*
X18377379Y-20993223D01*
X18435469Y-21051313D01*
X18466717Y-21064256D01*
X18511366Y-21082751D01*
X18517500Y-21082751D01*
X18552148Y-21097103D01*
X18566500Y-21131751D01*
X18566500Y-21352168D01*
X18552148Y-21386816D01*
X17980873Y-21958091D01*
X17413528Y-22525436D01*
X17413527Y-22525437D01*
X17384482Y-22554482D01*
X17355437Y-22583526D01*
X17355436Y-22583528D01*
X17344367Y-22610254D01*
X17344366Y-22610256D01*
X17323999Y-22659422D01*
X17323999Y-22747276D01*
X17324000Y-22747285D01*
X17324000Y-23055068D01*
X17309648Y-23089716D01*
X17284559Y-23103127D01*
X17237013Y-23112583D01*
X17237010Y-23112584D01*
X17177222Y-23152533D01*
X17140440Y-23159849D01*
X17122778Y-23152533D01*
X17062985Y-23112582D01*
X17015441Y-23103125D01*
X16984258Y-23082290D01*
X16976000Y-23055067D01*
X16976000Y-22828424D01*
X16962978Y-22796987D01*
X16944563Y-22752527D01*
X16886473Y-22694437D01*
X16886471Y-22694436D01*
X16883680Y-22691645D01*
X16883680Y-22691644D01*
X16883676Y-22691641D01*
X16233774Y-22041739D01*
X16219422Y-22007091D01*
X16233774Y-21972443D01*
X16268422Y-21958091D01*
X16287171Y-21961820D01*
X16343238Y-21985044D01*
X16500000Y-22005682D01*
X16656762Y-21985044D01*
X16802841Y-21924536D01*
X16928282Y-21828282D01*
X17024536Y-21702841D01*
X17085044Y-21556762D01*
X17105682Y-21400000D01*
X17085044Y-21243238D01*
X17062125Y-21187907D01*
X17062125Y-21150405D01*
X17080170Y-21128416D01*
X17116542Y-21104114D01*
X17214114Y-21006542D01*
X17290775Y-20891811D01*
X17343580Y-20764328D01*
X17370500Y-20628993D01*
X17370500Y-19371007D01*
X17343580Y-19235672D01*
X17290775Y-19108189D01*
X17225984Y-19011222D01*
X17218668Y-18974439D01*
X17239503Y-18943257D01*
X17266726Y-18934999D01*
X17614772Y-18934999D01*
X17658527Y-18926296D01*
X17708144Y-18893144D01*
X17741297Y-18843525D01*
X17749999Y-18799778D01*
X17750000Y-18799775D01*
X17750000Y-18785000D01*
X16928931Y-18785000D01*
X16910180Y-18781270D01*
X16874335Y-18766422D01*
X16874329Y-18766420D01*
X16874328Y-18766420D01*
X16874325Y-18766419D01*
X16874316Y-18766417D01*
X16738998Y-18739500D01*
X16738993Y-18739500D01*
X16601007Y-18739500D01*
X16601001Y-18739500D01*
X16465683Y-18766417D01*
X16465664Y-18766422D01*
X16429820Y-18781270D01*
X16411069Y-18785000D01*
X16150001Y-18785000D01*
X16150001Y-18799772D01*
X16158703Y-18843527D01*
X16158704Y-18843530D01*
X16183270Y-18880296D01*
X16190586Y-18917078D01*
X16177177Y-18942166D01*
X16125886Y-18993457D01*
X16049223Y-19108192D01*
X15996420Y-19235670D01*
X15996417Y-19235681D01*
X15969500Y-19371001D01*
X15969500Y-20628998D01*
X15996417Y-20764318D01*
X15996420Y-20764329D01*
X16044935Y-20881454D01*
X16049225Y-20891811D01*
X16068727Y-20920998D01*
X16076043Y-20957780D01*
X16066860Y-20978049D01*
X15975461Y-21097163D01*
X15914955Y-21243238D01*
X15894318Y-21400000D01*
X15914955Y-21556761D01*
X15938178Y-21612826D01*
X15938178Y-21650329D01*
X15911659Y-21676847D01*
X15874156Y-21676847D01*
X15858260Y-21666225D01*
X15340352Y-21148317D01*
X15326000Y-21113669D01*
X15326000Y-18397285D01*
X15326001Y-18397276D01*
X15326001Y-18309424D01*
X15307584Y-18264965D01*
X15307583Y-18264962D01*
X15294563Y-18233528D01*
X15294562Y-18233526D01*
X15287036Y-18226000D01*
X15236473Y-18175437D01*
X15236471Y-18175436D01*
X15233680Y-18172645D01*
X15233680Y-18172644D01*
X15233676Y-18172641D01*
X14772183Y-17711148D01*
X14757831Y-17676500D01*
X14772183Y-17641852D01*
X14806831Y-17627500D01*
X15313491Y-17627500D01*
X15339981Y-17635278D01*
X15348891Y-17641004D01*
X15473184Y-17677499D01*
X15473189Y-17677500D01*
X15602733Y-17677500D01*
X15602737Y-17677499D01*
X15626849Y-17670419D01*
X15727030Y-17641004D01*
X15836010Y-17570967D01*
X15844213Y-17561499D01*
X15868564Y-17546256D01*
X15954583Y-17523208D01*
X15954582Y-17523208D01*
X15954587Y-17523207D01*
X15982546Y-17507065D01*
X16007046Y-17500500D01*
X16100500Y-17500500D01*
X16135148Y-17514852D01*
G37*
%TD.AperFunction*%
%TA.AperFunction,Conductor*%
G36*
X14677222Y-6747465D02*
G01*
X14737014Y-6787417D01*
X14784561Y-6796874D01*
X14815742Y-6817708D01*
X14824000Y-6844932D01*
X14824000Y-7554467D01*
X14823999Y-7554481D01*
X14823999Y-7558424D01*
X14823999Y-7640576D01*
X14832116Y-7660170D01*
X14837213Y-7672475D01*
X14837212Y-7672475D01*
X14837213Y-7672476D01*
X14855437Y-7716473D01*
X14855438Y-7716475D01*
X14920418Y-7781454D01*
X14920420Y-7781455D01*
X15259648Y-8120683D01*
X15274000Y-8155331D01*
X15274000Y-13542086D01*
X15273999Y-13542100D01*
X15273999Y-13628194D01*
X15288492Y-13663181D01*
X15288492Y-13663183D01*
X15305437Y-13704092D01*
X15305438Y-13704094D01*
X15370418Y-13769073D01*
X15370420Y-13769074D01*
X15735022Y-14133676D01*
X15735025Y-14133680D01*
X15735026Y-14133680D01*
X15737817Y-14136471D01*
X15737818Y-14136473D01*
X15795908Y-14194563D01*
X15827343Y-14207583D01*
X15827345Y-14207585D01*
X15827345Y-14207584D01*
X15871805Y-14226001D01*
X15871806Y-14226001D01*
X15930966Y-14226001D01*
X15965614Y-14240353D01*
X15979966Y-14275001D01*
X15965614Y-14309649D01*
X15943649Y-14322331D01*
X15939711Y-14323386D01*
X15939709Y-14323386D01*
X15862551Y-14367935D01*
X15838051Y-14374500D01*
X14756961Y-14374500D01*
X14743156Y-14372515D01*
X14664776Y-14349500D01*
X14664772Y-14349500D01*
X14643647Y-14349500D01*
X14619148Y-14342935D01*
X14593671Y-14328226D01*
X14585287Y-14323385D01*
X14544416Y-14312434D01*
X14514664Y-14289604D01*
X14509769Y-14252421D01*
X14532599Y-14222669D01*
X14538347Y-14219834D01*
X14567917Y-14207585D01*
X14567919Y-14207584D01*
X14599357Y-14194563D01*
X14657447Y-14136473D01*
X14657447Y-14136472D01*
X14664336Y-14129583D01*
X14664338Y-14129580D01*
X15029580Y-13764338D01*
X15029583Y-13764336D01*
X15036472Y-13757447D01*
X15036473Y-13757447D01*
X15094563Y-13699357D01*
X15116792Y-13645689D01*
X15126000Y-13623460D01*
X15126000Y-13541308D01*
X15126000Y-10809425D01*
X15121885Y-10799491D01*
X15119386Y-10793458D01*
X15111508Y-10774437D01*
X15094645Y-10733726D01*
X15094563Y-10733527D01*
X15036473Y-10675437D01*
X15036471Y-10675436D01*
X15033680Y-10672645D01*
X15033680Y-10672644D01*
X15033676Y-10672641D01*
X14240352Y-9879317D01*
X14226000Y-9844669D01*
X14226000Y-8055330D01*
X14240351Y-8020683D01*
X14379580Y-7881453D01*
X14379583Y-7881452D01*
X14386472Y-7874563D01*
X14386473Y-7874563D01*
X14444563Y-7816473D01*
X14469597Y-7756033D01*
X14476000Y-7740576D01*
X14476000Y-7658424D01*
X14476000Y-6844931D01*
X14490352Y-6810283D01*
X14515439Y-6796873D01*
X14562986Y-6787417D01*
X14622777Y-6747465D01*
X14659560Y-6740150D01*
X14677222Y-6747465D01*
G37*
%TD.AperFunction*%
%TA.AperFunction,Conductor*%
G36*
X2583648Y-5697555D02*
G01*
X2589743Y-5704982D01*
X2591855Y-5708144D01*
X2641474Y-5741297D01*
X2685222Y-5749999D01*
X2693204Y-5749999D01*
X2727854Y-5764347D01*
X2742209Y-5798994D01*
X2730241Y-5831087D01*
X2667119Y-5903936D01*
X2667118Y-5903936D01*
X2613301Y-6021776D01*
X2597501Y-6131676D01*
X2587551Y-6148445D01*
X2597501Y-6168323D01*
X2613301Y-6278223D01*
X2667118Y-6396063D01*
X2737221Y-6476968D01*
X2751951Y-6493967D01*
X2860931Y-6564004D01*
X2930093Y-6584311D01*
X2985223Y-6600499D01*
X2985228Y-6600500D01*
X3100500Y-6600500D01*
X3135148Y-6614852D01*
X3149500Y-6649500D01*
X3149500Y-7900500D01*
X3135148Y-7935148D01*
X3100500Y-7949500D01*
X2885176Y-7949500D01*
X2841278Y-7958232D01*
X2791495Y-7991495D01*
X2758232Y-8041278D01*
X2749500Y-8085176D01*
X2749500Y-9100500D01*
X2735148Y-9135148D01*
X2700500Y-9149500D01*
X2549000Y-9149500D01*
X2514352Y-9135148D01*
X2500000Y-9100500D01*
X2500000Y-6175296D01*
X2509336Y-6152755D01*
X2500000Y-6124703D01*
X2500000Y-5732203D01*
X2514352Y-5697555D01*
X2549000Y-5683203D01*
X2583648Y-5697555D01*
G37*
%TD.AperFunction*%
%TA.AperFunction,Conductor*%
G36*
X10480515Y-6114852D02*
G01*
X10493678Y-6146631D01*
X10494368Y-6146532D01*
X10494756Y-6149232D01*
X10494867Y-6149500D01*
X10494867Y-6150002D01*
X10513301Y-6278223D01*
X10567118Y-6396063D01*
X10637221Y-6476968D01*
X10651951Y-6493967D01*
X10676991Y-6510059D01*
X10698380Y-6540863D01*
X10699500Y-6551280D01*
X10699500Y-8125943D01*
X10685148Y-8160591D01*
X10510591Y-8335148D01*
X10475943Y-8349500D01*
X9114530Y-8349500D01*
X9079882Y-8335148D01*
X9068714Y-8317874D01*
X9060221Y-8295479D01*
X9060219Y-8295475D01*
X9022279Y-8240510D01*
X8978671Y-8177333D01*
X8970801Y-8140668D01*
X8991163Y-8109174D01*
X9018998Y-8100500D01*
X9549826Y-8100500D01*
X9549828Y-8100500D01*
X9641897Y-8062364D01*
X9835006Y-7869252D01*
X9835009Y-7869251D01*
X9841896Y-7862364D01*
X9841897Y-7862364D01*
X9912364Y-7791897D01*
X9928160Y-7753760D01*
X9950501Y-7699827D01*
X9950501Y-7600172D01*
X9950501Y-7596229D01*
X9950500Y-7596215D01*
X9950500Y-6955537D01*
X9950501Y-6955528D01*
X9950501Y-6850175D01*
X9950500Y-6850171D01*
X9948330Y-6844932D01*
X9912364Y-6758104D01*
X9912364Y-6758103D01*
X9841897Y-6687636D01*
X9839107Y-6684846D01*
X9839100Y-6684840D01*
X9700525Y-6546264D01*
X9686173Y-6511616D01*
X9700525Y-6476968D01*
X9707954Y-6470872D01*
X9708505Y-6470503D01*
X9737088Y-6427724D01*
X9741767Y-6420722D01*
X9750500Y-6376820D01*
X9750500Y-6149500D01*
X9764852Y-6114852D01*
X9799500Y-6100500D01*
X10445867Y-6100500D01*
X10480515Y-6114852D01*
G37*
%TD.AperFunction*%
%TA.AperFunction,Conductor*%
G36*
X14935330Y-2826461D02*
G01*
X14997414Y-2874100D01*
X14997415Y-2874101D01*
X15143369Y-2934556D01*
X15300000Y-2955176D01*
X15456630Y-2934556D01*
X15602584Y-2874101D01*
X15602585Y-2874100D01*
X15664670Y-2826461D01*
X15700895Y-2816754D01*
X15733374Y-2835505D01*
X15743500Y-2865335D01*
X15743500Y-3206170D01*
X15729148Y-3240818D01*
X15323828Y-3646138D01*
X14913528Y-4056438D01*
X14913527Y-4056439D01*
X14884482Y-4085484D01*
X14855437Y-4114528D01*
X14844445Y-4141067D01*
X14823999Y-4190424D01*
X14823999Y-4278278D01*
X14824000Y-4278287D01*
X14824000Y-4355068D01*
X14809648Y-4389716D01*
X14784559Y-4403127D01*
X14737013Y-4412583D01*
X14737010Y-4412584D01*
X14677222Y-4452533D01*
X14640440Y-4459849D01*
X14622778Y-4452533D01*
X14562985Y-4412582D01*
X14515441Y-4403125D01*
X14484258Y-4382290D01*
X14476000Y-4355067D01*
X14476000Y-3605330D01*
X14490351Y-3570683D01*
X14760080Y-3300953D01*
X14760083Y-3300952D01*
X14766972Y-3294063D01*
X14766973Y-3294063D01*
X14825063Y-3235973D01*
X14850292Y-3175063D01*
X14856500Y-3160076D01*
X14856500Y-3077924D01*
X14856500Y-2865335D01*
X14870852Y-2830687D01*
X14905500Y-2816335D01*
X14935330Y-2826461D01*
G37*
%TD.AperFunction*%
%TA.AperFunction,Conductor*%
G36*
X20425953Y-1020852D02*
G01*
X20440305Y-1055500D01*
X20440129Y-1057286D01*
X20682843Y-1300000D01*
X20660504Y-1300000D01*
X20584204Y-1320444D01*
X20515795Y-1359940D01*
X20459940Y-1415795D01*
X20420444Y-1484204D01*
X20400000Y-1560504D01*
X20400000Y-1582843D01*
X20157937Y-1340780D01*
X20157936Y-1340780D01*
X20115443Y-1443369D01*
X20094823Y-1600000D01*
X20115443Y-1756630D01*
X20157936Y-1859218D01*
X20157937Y-1859218D01*
X20400000Y-1617156D01*
X20400000Y-1639496D01*
X20420444Y-1715796D01*
X20459940Y-1784205D01*
X20515795Y-1840060D01*
X20584204Y-1879556D01*
X20660504Y-1900000D01*
X20682843Y-1900000D01*
X20440780Y-2142061D01*
X20543371Y-2184556D01*
X20700001Y-2205177D01*
X20700002Y-2205177D01*
X20701186Y-2205021D01*
X20701768Y-2205177D01*
X20703212Y-2205177D01*
X20703212Y-2205563D01*
X20737412Y-2214725D01*
X20756165Y-2247202D01*
X20756166Y-2259996D01*
X20744557Y-2348187D01*
X20744318Y-2350000D01*
X20745787Y-2361158D01*
X20764955Y-2506761D01*
X20825461Y-2652836D01*
X20825464Y-2652841D01*
X20864245Y-2703382D01*
X20872908Y-2714671D01*
X20882615Y-2750896D01*
X20863863Y-2783374D01*
X20834034Y-2793500D01*
X19646785Y-2793500D01*
X19646777Y-2793499D01*
X19641076Y-2793499D01*
X19558924Y-2793499D01*
X19558922Y-2793499D01*
X19514464Y-2811915D01*
X19483027Y-2824936D01*
X19453982Y-2853981D01*
X19424937Y-2883027D01*
X18890148Y-3417816D01*
X18855500Y-3432168D01*
X18820852Y-3417816D01*
X18806500Y-3383168D01*
X18806500Y-1905831D01*
X18820852Y-1871183D01*
X19671183Y-1020852D01*
X19705831Y-1006500D01*
X20391305Y-1006500D01*
X20425953Y-1020852D01*
G37*
%TD.AperFunction*%
%TA.AperFunction,Conductor*%
G36*
X3912148Y-1664852D02*
G01*
X3926500Y-1699500D01*
X3926500Y-2126829D01*
X3942080Y-2164441D01*
X3964636Y-2218897D01*
X3964637Y-2218898D01*
X3964637Y-2218899D01*
X4267719Y-2521980D01*
X4338183Y-2592445D01*
X4338184Y-2592445D01*
X4338186Y-2592447D01*
X4430255Y-2630583D01*
X5577998Y-2630583D01*
X5612646Y-2644935D01*
X5626998Y-2679583D01*
X5612646Y-2714231D01*
X5605221Y-2720325D01*
X5591495Y-2729495D01*
X5567296Y-2765713D01*
X5536113Y-2786549D01*
X5507803Y-2783760D01*
X5485449Y-2774501D01*
X5485447Y-2774500D01*
X5485446Y-2774500D01*
X5485444Y-2774500D01*
X4247628Y-2774500D01*
X4221137Y-2766721D01*
X4187069Y-2744827D01*
X4187068Y-2744826D01*
X4187067Y-2744826D01*
X4062776Y-2708331D01*
X4062772Y-2708331D01*
X3933228Y-2708331D01*
X3933223Y-2708331D01*
X3808933Y-2744826D01*
X3808931Y-2744826D01*
X3808931Y-2744827D01*
X3776432Y-2765713D01*
X3699950Y-2814864D01*
X3655279Y-2866419D01*
X3621743Y-2883206D01*
X3618247Y-2883331D01*
X3074500Y-2883331D01*
X3039852Y-2868979D01*
X3025500Y-2834331D01*
X3025500Y-1699500D01*
X3039852Y-1664852D01*
X3074500Y-1650500D01*
X3877500Y-1650500D01*
X3912148Y-1664852D01*
G37*
%TD.AperFunction*%
%TA.AperFunction,Conductor*%
G36*
X5399683Y-1278151D02*
G01*
X5400816Y-1280887D01*
X5409779Y-1304522D01*
X5409780Y-1304524D01*
X5420769Y-1320444D01*
X5499517Y-1434530D01*
X5499519Y-1434531D01*
X5499520Y-1434533D01*
X5617761Y-1539284D01*
X5713271Y-1589411D01*
X5737281Y-1618220D01*
X5739500Y-1632798D01*
X5739500Y-1789829D01*
X5760727Y-1841076D01*
X5777636Y-1881897D01*
X5836336Y-1940597D01*
X5850688Y-1975245D01*
X5836337Y-2009893D01*
X5828179Y-2016466D01*
X5797612Y-2036110D01*
X5797605Y-2036115D01*
X5731271Y-2112671D01*
X5697735Y-2129458D01*
X5694239Y-2129583D01*
X4604140Y-2129583D01*
X4569492Y-2115231D01*
X4441852Y-1987591D01*
X4427500Y-1952943D01*
X4427500Y-1667057D01*
X4441852Y-1632409D01*
X4447178Y-1627083D01*
X4481826Y-1612731D01*
X4493552Y-1614155D01*
X4596369Y-1639496D01*
X4641015Y-1650500D01*
X4641016Y-1650500D01*
X4798983Y-1650500D01*
X4798985Y-1650500D01*
X4952365Y-1612696D01*
X5092240Y-1539283D01*
X5210483Y-1434530D01*
X5300220Y-1304523D01*
X5309184Y-1280887D01*
X5334889Y-1253579D01*
X5372375Y-1252446D01*
X5399683Y-1278151D01*
G37*
%TD.AperFunction*%
%TA.AperFunction,Conductor*%
G36*
X21677334Y-1020852D02*
G01*
X21691686Y-1055500D01*
X21677334Y-1090148D01*
X21672515Y-1094374D01*
X21571718Y-1171717D01*
X21571717Y-1171718D01*
X21475464Y-1297158D01*
X21475461Y-1297163D01*
X21414955Y-1443238D01*
X21398328Y-1569538D01*
X21379576Y-1602016D01*
X21343351Y-1611723D01*
X21310873Y-1592971D01*
X21301166Y-1569538D01*
X21284556Y-1443370D01*
X21242061Y-1340780D01*
X21000000Y-1582841D01*
X21000000Y-1560504D01*
X20979556Y-1484204D01*
X20940060Y-1415795D01*
X20884205Y-1359940D01*
X20815796Y-1320444D01*
X20739496Y-1300000D01*
X20717158Y-1300000D01*
X20962756Y-1054399D01*
X20967952Y-1028277D01*
X20999134Y-1007442D01*
X21008694Y-1006500D01*
X21642686Y-1006500D01*
X21677334Y-1020852D01*
G37*
%TD.AperFunction*%
%TD*%
M02*
