%TF.GenerationSoftware,KiCad,Pcbnew,8.0.4*%
%TF.CreationDate,2024-08-20T00:23:40+03:00*%
%TF.ProjectId,Shield_Emergent_4,53686965-6c64-45f4-956d-657267656e74,rev?*%
%TF.SameCoordinates,Original*%
%TF.FileFunction,Legend,Top*%
%TF.FilePolarity,Positive*%
%FSLAX46Y46*%
G04 Gerber Fmt 4.6, Leading zero omitted, Abs format (unit mm)*
G04 Created by KiCad (PCBNEW 8.0.4) date 2024-08-20 00:23:40*
%MOMM*%
%LPD*%
G01*
G04 APERTURE LIST*
%ADD10C,0.150000*%
%ADD11C,0.120000*%
G04 APERTURE END LIST*
D10*
X9766666Y-8154819D02*
X9766666Y-8869104D01*
X9766666Y-8869104D02*
X9719047Y-9011961D01*
X9719047Y-9011961D02*
X9623809Y-9107200D01*
X9623809Y-9107200D02*
X9480952Y-9154819D01*
X9480952Y-9154819D02*
X9385714Y-9154819D01*
X10671428Y-8488152D02*
X10671428Y-9154819D01*
X10433333Y-8107200D02*
X10195238Y-8821485D01*
X10195238Y-8821485D02*
X10814285Y-8821485D01*
X15788095Y-3104819D02*
X15788095Y-3914342D01*
X15788095Y-3914342D02*
X15835714Y-4009580D01*
X15835714Y-4009580D02*
X15883333Y-4057200D01*
X15883333Y-4057200D02*
X15978571Y-4104819D01*
X15978571Y-4104819D02*
X16169047Y-4104819D01*
X16169047Y-4104819D02*
X16264285Y-4057200D01*
X16264285Y-4057200D02*
X16311904Y-4009580D01*
X16311904Y-4009580D02*
X16359523Y-3914342D01*
X16359523Y-3914342D02*
X16359523Y-3104819D01*
X16740476Y-3104819D02*
X17359523Y-3104819D01*
X17359523Y-3104819D02*
X17026190Y-3485771D01*
X17026190Y-3485771D02*
X17169047Y-3485771D01*
X17169047Y-3485771D02*
X17264285Y-3533390D01*
X17264285Y-3533390D02*
X17311904Y-3581009D01*
X17311904Y-3581009D02*
X17359523Y-3676247D01*
X17359523Y-3676247D02*
X17359523Y-3914342D01*
X17359523Y-3914342D02*
X17311904Y-4009580D01*
X17311904Y-4009580D02*
X17264285Y-4057200D01*
X17264285Y-4057200D02*
X17169047Y-4104819D01*
X17169047Y-4104819D02*
X16883333Y-4104819D01*
X16883333Y-4104819D02*
X16788095Y-4057200D01*
X16788095Y-4057200D02*
X16740476Y-4009580D01*
X10790476Y-18454819D02*
X11457142Y-19454819D01*
X11457142Y-18454819D02*
X10790476Y-19454819D01*
X12361904Y-19454819D02*
X11790476Y-19454819D01*
X12076190Y-19454819D02*
X12076190Y-18454819D01*
X12076190Y-18454819D02*
X11980952Y-18597676D01*
X11980952Y-18597676D02*
X11885714Y-18692914D01*
X11885714Y-18692914D02*
X11790476Y-18740533D01*
X11816666Y-1404819D02*
X11816666Y-2119104D01*
X11816666Y-2119104D02*
X11769047Y-2261961D01*
X11769047Y-2261961D02*
X11673809Y-2357200D01*
X11673809Y-2357200D02*
X11530952Y-2404819D01*
X11530952Y-2404819D02*
X11435714Y-2404819D01*
X12435714Y-1833390D02*
X12340476Y-1785771D01*
X12340476Y-1785771D02*
X12292857Y-1738152D01*
X12292857Y-1738152D02*
X12245238Y-1642914D01*
X12245238Y-1642914D02*
X12245238Y-1595295D01*
X12245238Y-1595295D02*
X12292857Y-1500057D01*
X12292857Y-1500057D02*
X12340476Y-1452438D01*
X12340476Y-1452438D02*
X12435714Y-1404819D01*
X12435714Y-1404819D02*
X12626190Y-1404819D01*
X12626190Y-1404819D02*
X12721428Y-1452438D01*
X12721428Y-1452438D02*
X12769047Y-1500057D01*
X12769047Y-1500057D02*
X12816666Y-1595295D01*
X12816666Y-1595295D02*
X12816666Y-1642914D01*
X12816666Y-1642914D02*
X12769047Y-1738152D01*
X12769047Y-1738152D02*
X12721428Y-1785771D01*
X12721428Y-1785771D02*
X12626190Y-1833390D01*
X12626190Y-1833390D02*
X12435714Y-1833390D01*
X12435714Y-1833390D02*
X12340476Y-1881009D01*
X12340476Y-1881009D02*
X12292857Y-1928628D01*
X12292857Y-1928628D02*
X12245238Y-2023866D01*
X12245238Y-2023866D02*
X12245238Y-2214342D01*
X12245238Y-2214342D02*
X12292857Y-2309580D01*
X12292857Y-2309580D02*
X12340476Y-2357200D01*
X12340476Y-2357200D02*
X12435714Y-2404819D01*
X12435714Y-2404819D02*
X12626190Y-2404819D01*
X12626190Y-2404819D02*
X12721428Y-2357200D01*
X12721428Y-2357200D02*
X12769047Y-2309580D01*
X12769047Y-2309580D02*
X12816666Y-2214342D01*
X12816666Y-2214342D02*
X12816666Y-2023866D01*
X12816666Y-2023866D02*
X12769047Y-1928628D01*
X12769047Y-1928628D02*
X12721428Y-1881009D01*
X12721428Y-1881009D02*
X12626190Y-1833390D01*
X12738095Y-23954819D02*
X12738095Y-24764342D01*
X12738095Y-24764342D02*
X12785714Y-24859580D01*
X12785714Y-24859580D02*
X12833333Y-24907200D01*
X12833333Y-24907200D02*
X12928571Y-24954819D01*
X12928571Y-24954819D02*
X13119047Y-24954819D01*
X13119047Y-24954819D02*
X13214285Y-24907200D01*
X13214285Y-24907200D02*
X13261904Y-24859580D01*
X13261904Y-24859580D02*
X13309523Y-24764342D01*
X13309523Y-24764342D02*
X13309523Y-23954819D01*
X14214285Y-24288152D02*
X14214285Y-24954819D01*
X13976190Y-23907200D02*
X13738095Y-24621485D01*
X13738095Y-24621485D02*
X14357142Y-24621485D01*
X21816666Y-24254819D02*
X21816666Y-24969104D01*
X21816666Y-24969104D02*
X21769047Y-25111961D01*
X21769047Y-25111961D02*
X21673809Y-25207200D01*
X21673809Y-25207200D02*
X21530952Y-25254819D01*
X21530952Y-25254819D02*
X21435714Y-25254819D01*
X22245238Y-24350057D02*
X22292857Y-24302438D01*
X22292857Y-24302438D02*
X22388095Y-24254819D01*
X22388095Y-24254819D02*
X22626190Y-24254819D01*
X22626190Y-24254819D02*
X22721428Y-24302438D01*
X22721428Y-24302438D02*
X22769047Y-24350057D01*
X22769047Y-24350057D02*
X22816666Y-24445295D01*
X22816666Y-24445295D02*
X22816666Y-24540533D01*
X22816666Y-24540533D02*
X22769047Y-24683390D01*
X22769047Y-24683390D02*
X22197619Y-25254819D01*
X22197619Y-25254819D02*
X22816666Y-25254819D01*
X24616666Y-29504819D02*
X24616666Y-30219104D01*
X24616666Y-30219104D02*
X24569047Y-30361961D01*
X24569047Y-30361961D02*
X24473809Y-30457200D01*
X24473809Y-30457200D02*
X24330952Y-30504819D01*
X24330952Y-30504819D02*
X24235714Y-30504819D01*
X25521428Y-29504819D02*
X25330952Y-29504819D01*
X25330952Y-29504819D02*
X25235714Y-29552438D01*
X25235714Y-29552438D02*
X25188095Y-29600057D01*
X25188095Y-29600057D02*
X25092857Y-29742914D01*
X25092857Y-29742914D02*
X25045238Y-29933390D01*
X25045238Y-29933390D02*
X25045238Y-30314342D01*
X25045238Y-30314342D02*
X25092857Y-30409580D01*
X25092857Y-30409580D02*
X25140476Y-30457200D01*
X25140476Y-30457200D02*
X25235714Y-30504819D01*
X25235714Y-30504819D02*
X25426190Y-30504819D01*
X25426190Y-30504819D02*
X25521428Y-30457200D01*
X25521428Y-30457200D02*
X25569047Y-30409580D01*
X25569047Y-30409580D02*
X25616666Y-30314342D01*
X25616666Y-30314342D02*
X25616666Y-30076247D01*
X25616666Y-30076247D02*
X25569047Y-29981009D01*
X25569047Y-29981009D02*
X25521428Y-29933390D01*
X25521428Y-29933390D02*
X25426190Y-29885771D01*
X25426190Y-29885771D02*
X25235714Y-29885771D01*
X25235714Y-29885771D02*
X25140476Y-29933390D01*
X25140476Y-29933390D02*
X25092857Y-29981009D01*
X25092857Y-29981009D02*
X25045238Y-30076247D01*
X11933333Y-9054819D02*
X11600000Y-8578628D01*
X11361905Y-9054819D02*
X11361905Y-8054819D01*
X11361905Y-8054819D02*
X11742857Y-8054819D01*
X11742857Y-8054819D02*
X11838095Y-8102438D01*
X11838095Y-8102438D02*
X11885714Y-8150057D01*
X11885714Y-8150057D02*
X11933333Y-8245295D01*
X11933333Y-8245295D02*
X11933333Y-8388152D01*
X11933333Y-8388152D02*
X11885714Y-8483390D01*
X11885714Y-8483390D02*
X11838095Y-8531009D01*
X11838095Y-8531009D02*
X11742857Y-8578628D01*
X11742857Y-8578628D02*
X11361905Y-8578628D01*
X12885714Y-9054819D02*
X12314286Y-9054819D01*
X12600000Y-9054819D02*
X12600000Y-8054819D01*
X12600000Y-8054819D02*
X12504762Y-8197676D01*
X12504762Y-8197676D02*
X12409524Y-8292914D01*
X12409524Y-8292914D02*
X12314286Y-8340533D01*
X11233333Y-21559580D02*
X11185714Y-21607200D01*
X11185714Y-21607200D02*
X11042857Y-21654819D01*
X11042857Y-21654819D02*
X10947619Y-21654819D01*
X10947619Y-21654819D02*
X10804762Y-21607200D01*
X10804762Y-21607200D02*
X10709524Y-21511961D01*
X10709524Y-21511961D02*
X10661905Y-21416723D01*
X10661905Y-21416723D02*
X10614286Y-21226247D01*
X10614286Y-21226247D02*
X10614286Y-21083390D01*
X10614286Y-21083390D02*
X10661905Y-20892914D01*
X10661905Y-20892914D02*
X10709524Y-20797676D01*
X10709524Y-20797676D02*
X10804762Y-20702438D01*
X10804762Y-20702438D02*
X10947619Y-20654819D01*
X10947619Y-20654819D02*
X11042857Y-20654819D01*
X11042857Y-20654819D02*
X11185714Y-20702438D01*
X11185714Y-20702438D02*
X11233333Y-20750057D01*
X12090476Y-20988152D02*
X12090476Y-21654819D01*
X11852381Y-20607200D02*
X11614286Y-21321485D01*
X11614286Y-21321485D02*
X12233333Y-21321485D01*
X16083333Y-33004819D02*
X15750000Y-32528628D01*
X15511905Y-33004819D02*
X15511905Y-32004819D01*
X15511905Y-32004819D02*
X15892857Y-32004819D01*
X15892857Y-32004819D02*
X15988095Y-32052438D01*
X15988095Y-32052438D02*
X16035714Y-32100057D01*
X16035714Y-32100057D02*
X16083333Y-32195295D01*
X16083333Y-32195295D02*
X16083333Y-32338152D01*
X16083333Y-32338152D02*
X16035714Y-32433390D01*
X16035714Y-32433390D02*
X15988095Y-32481009D01*
X15988095Y-32481009D02*
X15892857Y-32528628D01*
X15892857Y-32528628D02*
X15511905Y-32528628D01*
X16416667Y-32004819D02*
X17083333Y-32004819D01*
X17083333Y-32004819D02*
X16654762Y-33004819D01*
X10616666Y-654819D02*
X10616666Y-1369104D01*
X10616666Y-1369104D02*
X10569047Y-1511961D01*
X10569047Y-1511961D02*
X10473809Y-1607200D01*
X10473809Y-1607200D02*
X10330952Y-1654819D01*
X10330952Y-1654819D02*
X10235714Y-1654819D01*
X10997619Y-654819D02*
X11664285Y-654819D01*
X11664285Y-654819D02*
X11235714Y-1654819D01*
X18983333Y-4159580D02*
X18935714Y-4207200D01*
X18935714Y-4207200D02*
X18792857Y-4254819D01*
X18792857Y-4254819D02*
X18697619Y-4254819D01*
X18697619Y-4254819D02*
X18554762Y-4207200D01*
X18554762Y-4207200D02*
X18459524Y-4111961D01*
X18459524Y-4111961D02*
X18411905Y-4016723D01*
X18411905Y-4016723D02*
X18364286Y-3826247D01*
X18364286Y-3826247D02*
X18364286Y-3683390D01*
X18364286Y-3683390D02*
X18411905Y-3492914D01*
X18411905Y-3492914D02*
X18459524Y-3397676D01*
X18459524Y-3397676D02*
X18554762Y-3302438D01*
X18554762Y-3302438D02*
X18697619Y-3254819D01*
X18697619Y-3254819D02*
X18792857Y-3254819D01*
X18792857Y-3254819D02*
X18935714Y-3302438D01*
X18935714Y-3302438D02*
X18983333Y-3350057D01*
X19935714Y-4254819D02*
X19364286Y-4254819D01*
X19650000Y-4254819D02*
X19650000Y-3254819D01*
X19650000Y-3254819D02*
X19554762Y-3397676D01*
X19554762Y-3397676D02*
X19459524Y-3492914D01*
X19459524Y-3492914D02*
X19364286Y-3540533D01*
D11*
%TO.C,J4*%
X2640000Y-9710000D02*
X2640000Y-8600000D01*
X3400000Y-9710000D02*
X2640000Y-9710000D01*
X4160000Y-7490000D02*
X9175000Y-7490000D01*
X4160000Y-8036529D02*
X4160000Y-7490000D01*
X4160000Y-9710000D02*
X4160000Y-9163471D01*
X4160000Y-9710000D02*
X9175000Y-9710000D01*
X9175000Y-8292470D02*
X9175000Y-7490000D01*
X9175000Y-9710000D02*
X9175000Y-8907530D01*
%TO.C,U3*%
X13540000Y-6275000D02*
X13540000Y-4925000D01*
X17260000Y-6275000D02*
X17260000Y-4925000D01*
X13630000Y-7100000D02*
X13350000Y-6820000D01*
X13630000Y-6820000D01*
X13630000Y-7100000D01*
G36*
X13630000Y-7100000D02*
G01*
X13350000Y-6820000D01*
X13630000Y-6820000D01*
X13630000Y-7100000D01*
G37*
%TO.C,X1*%
X12550000Y-9750000D02*
X12550000Y-11400000D01*
X12550000Y-20400000D02*
X12550000Y-21600000D01*
X12550000Y-21600000D02*
X13000000Y-22050000D01*
X17400000Y-22050000D02*
X13000000Y-22050000D01*
X17850000Y-9750000D02*
X12550000Y-9750000D01*
X17850000Y-9750000D02*
X17850000Y-11400000D01*
X17850000Y-20400000D02*
X17850000Y-21600000D01*
X17850000Y-21600000D02*
X17400000Y-22050000D01*
D10*
X17811803Y-12400000D02*
G75*
G02*
X17588197Y-12400000I-111803J0D01*
G01*
X17588197Y-12400000D02*
G75*
G02*
X17811803Y-12400000I111803J0D01*
G01*
D11*
%TO.C,J8*%
X2400000Y-2600000D02*
X12900000Y-2600000D01*
X2400000Y-6600000D02*
X2400000Y-2600000D01*
X12900000Y-2600000D02*
X12900000Y-6600000D01*
X12900000Y-6600000D02*
X2400000Y-6600000D01*
%TO.C,U4*%
X14540000Y-23625000D02*
X14540000Y-24975000D01*
X18260000Y-23625000D02*
X18260000Y-24975000D01*
X18450000Y-23080000D02*
X18170000Y-23080000D01*
X18170000Y-22800000D01*
X18450000Y-23080000D01*
G36*
X18450000Y-23080000D02*
G01*
X18170000Y-23080000D01*
X18170000Y-22800000D01*
X18450000Y-23080000D01*
G37*
%TO.C,J2*%
X22895000Y-18470000D02*
X22895000Y-26150000D01*
X22895000Y-18470000D02*
X25555000Y-18470000D01*
X22895000Y-26150000D02*
X25555000Y-26150000D01*
X24225000Y-15870000D02*
X25555000Y-15870000D01*
X25555000Y-15870000D02*
X25555000Y-17200000D01*
X25555000Y-18470000D02*
X25555000Y-26150000D01*
%TO.C,J6*%
X19530000Y-30270000D02*
X19530000Y-32930000D01*
X22130000Y-30270000D02*
X19530000Y-30270000D01*
X22130000Y-30270000D02*
X22130000Y-32930000D01*
X22130000Y-32930000D02*
X19530000Y-32930000D01*
X24730000Y-31600000D02*
X24730000Y-32930000D01*
X24730000Y-32930000D02*
X23400000Y-32930000D01*
%TO.C,C4*%
X3590000Y-19590000D02*
X3590000Y-21940000D01*
X3590000Y-26410000D02*
X3590000Y-24060000D01*
X9345563Y-19590000D02*
X3590000Y-19590000D01*
X9345563Y-26410000D02*
X3590000Y-26410000D01*
X10410000Y-20654437D02*
X9345563Y-19590000D01*
X10410000Y-20654437D02*
X10410000Y-21940000D01*
X10410000Y-25345563D02*
X9345563Y-26410000D01*
X10410000Y-25345563D02*
X10410000Y-24060000D01*
X11043750Y-25241250D02*
X11043750Y-24453750D01*
X11437500Y-24847500D02*
X10650000Y-24847500D01*
%TO.C,R7*%
X14353641Y-32020000D02*
X14046359Y-32020000D01*
X14353641Y-32780000D02*
X14046359Y-32780000D01*
%TO.C,J7*%
X2690000Y-2110000D02*
X2690000Y-1000000D01*
X3450000Y-2110000D02*
X2690000Y-2110000D01*
X4210000Y110000D02*
X9225000Y110000D01*
X4210000Y-436529D02*
X4210000Y110000D01*
X4210000Y-2110000D02*
X4210000Y-1563471D01*
X4210000Y-2110000D02*
X9225000Y-2110000D01*
X9225000Y-692470D02*
X9225000Y110000D01*
X9225000Y-2110000D02*
X9225000Y-1307530D01*
%TO.C,C1*%
X18590000Y-5654437D02*
X18590000Y-11410000D01*
X18590000Y-11410000D02*
X20940000Y-11410000D01*
X19654437Y-4590000D02*
X18590000Y-5654437D01*
X19654437Y-4590000D02*
X20940000Y-4590000D01*
X23847500Y-3562500D02*
X23847500Y-4350000D01*
X24241250Y-3956250D02*
X23453750Y-3956250D01*
X24345563Y-4590000D02*
X23060000Y-4590000D01*
X24345563Y-4590000D02*
X25410000Y-5654437D01*
X25410000Y-5654437D02*
X25410000Y-11410000D01*
X25410000Y-11410000D02*
X23060000Y-11410000D01*
%TD*%
M02*
