%TF.GenerationSoftware,KiCad,Pcbnew,8.0.4*%
%TF.CreationDate,2024-08-20T00:23:40+03:00*%
%TF.ProjectId,Shield_Emergent_4,53686965-6c64-45f4-956d-657267656e74,rev?*%
%TF.SameCoordinates,Original*%
%TF.FileFunction,Soldermask,Top*%
%TF.FilePolarity,Negative*%
%FSLAX46Y46*%
G04 Gerber Fmt 4.6, Leading zero omitted, Abs format (unit mm)*
G04 Created by KiCad (PCBNEW 8.0.4) date 2024-08-20 00:23:40*
%MOMM*%
%LPD*%
G01*
G04 APERTURE LIST*
G04 Aperture macros list*
%AMRoundRect*
0 Rectangle with rounded corners*
0 $1 Rounding radius*
0 $2 $3 $4 $5 $6 $7 $8 $9 X,Y pos of 4 corners*
0 Add a 4 corners polygon primitive as box body*
4,1,4,$2,$3,$4,$5,$6,$7,$8,$9,$2,$3,0*
0 Add four circle primitives for the rounded corners*
1,1,$1+$1,$2,$3*
1,1,$1+$1,$4,$5*
1,1,$1+$1,$6,$7*
1,1,$1+$1,$8,$9*
0 Add four rect primitives between the rounded corners*
20,1,$1+$1,$2,$3,$4,$5,0*
20,1,$1+$1,$4,$5,$6,$7,0*
20,1,$1+$1,$6,$7,$8,$9,0*
20,1,$1+$1,$8,$9,$2,$3,0*%
G04 Aperture macros list end*
%ADD10R,1.000000X1.000000*%
%ADD11O,1.000000X1.000000*%
%ADD12RoundRect,0.075000X0.075000X-0.350000X0.075000X0.350000X-0.075000X0.350000X-0.075000X-0.350000X0*%
%ADD13C,0.900000*%
%ADD14R,1.300000X0.270000*%
%ADD15O,1.100000X2.220000*%
%ADD16R,1.800000X2.000000*%
%ADD17R,0.400000X1.524000*%
%ADD18RoundRect,0.075000X-0.075000X0.350000X-0.075000X-0.350000X0.075000X-0.350000X0.075000X0.350000X0*%
%ADD19R,1.700000X1.700000*%
%ADD20O,1.700000X1.700000*%
%ADD21RoundRect,0.100000X0.100000X-0.217500X0.100000X0.217500X-0.100000X0.217500X-0.100000X-0.217500X0*%
%ADD22RoundRect,0.250000X1.500000X0.550000X-1.500000X0.550000X-1.500000X-0.550000X1.500000X-0.550000X0*%
%ADD23RoundRect,0.135000X0.135000X0.185000X-0.135000X0.185000X-0.135000X-0.185000X0.135000X-0.185000X0*%
%ADD24RoundRect,0.250000X-0.550000X1.500000X-0.550000X-1.500000X0.550000X-1.500000X0.550000X1.500000X0*%
%ADD25R,1.350000X1.350000*%
%ADD26O,1.350000X1.350000*%
G04 APERTURE END LIST*
D10*
%TO.C,J4*%
X3400000Y-8600000D03*
D11*
X4670000Y-8600000D03*
X5940000Y-8600000D03*
X7210000Y-8600000D03*
X8480000Y-8600000D03*
%TD*%
D12*
%TO.C,U3*%
X13900000Y-6225000D03*
X14400000Y-6225000D03*
X14900000Y-6225000D03*
X15400000Y-6225000D03*
X15900000Y-6225000D03*
X16400000Y-6225000D03*
X16900000Y-6225000D03*
X16900000Y-4975000D03*
X16400000Y-4975000D03*
X15900000Y-4975000D03*
X15400000Y-4975000D03*
X14900000Y-4975000D03*
X14400000Y-4975000D03*
X13900000Y-4975000D03*
%TD*%
D13*
%TO.C,X1*%
X16500000Y-10400000D03*
X16500000Y-21400000D03*
D14*
X16950000Y-13150000D03*
X16950000Y-13650000D03*
X16950000Y-14150000D03*
X16950000Y-14650000D03*
X16950000Y-15150000D03*
X16950000Y-15650000D03*
X16950000Y-16150000D03*
X16950000Y-16650000D03*
X16950000Y-17150000D03*
X16950000Y-17650000D03*
X16950000Y-18150000D03*
X16950000Y-18650000D03*
X13450000Y-18650000D03*
X13450000Y-18150000D03*
X13450000Y-17650000D03*
X13450000Y-17150000D03*
X13450000Y-16650000D03*
X13450000Y-16150000D03*
X13450000Y-15650000D03*
X13450000Y-15150000D03*
X13450000Y-14650000D03*
X13450000Y-14150000D03*
X13450000Y-13650000D03*
X13450000Y-13150000D03*
D15*
X16670000Y-11800000D03*
X13730000Y-11800000D03*
X16670000Y-20000000D03*
X13730000Y-20000000D03*
%TD*%
D16*
%TO.C,J8*%
X3600000Y-4600000D03*
X11700000Y-4600000D03*
D17*
X5400000Y-5600000D03*
X5900000Y-3600000D03*
X6400000Y-5600000D03*
X6900000Y-3600000D03*
X7400000Y-5600000D03*
X7900000Y-3600000D03*
X8400000Y-5600000D03*
X8900000Y-3600000D03*
X9400000Y-5600000D03*
X9900000Y-3600000D03*
%TD*%
D18*
%TO.C,U4*%
X17900000Y-23675000D03*
X17400000Y-23675000D03*
X16900000Y-23675000D03*
X16400000Y-23675000D03*
X15900000Y-23675000D03*
X15400000Y-23675000D03*
X14900000Y-23675000D03*
X14900000Y-24925000D03*
X15400000Y-24925000D03*
X15900000Y-24925000D03*
X16400000Y-24925000D03*
X16900000Y-24925000D03*
X17400000Y-24925000D03*
X17900000Y-24925000D03*
%TD*%
D19*
%TO.C,J2*%
X24225000Y-17200000D03*
D20*
X24225000Y-19740000D03*
X24225000Y-22280000D03*
X24225000Y-24820000D03*
%TD*%
D19*
%TO.C,J6*%
X23400000Y-31600000D03*
D20*
X20860000Y-31600000D03*
%TD*%
D21*
%TO.C,R1*%
X11700000Y-10657500D03*
X11700000Y-9842500D03*
%TD*%
D22*
%TO.C,C4*%
X9700000Y-23000000D03*
X4300000Y-23000000D03*
%TD*%
D23*
%TO.C,R7*%
X14710000Y-32400000D03*
X13690000Y-32400000D03*
%TD*%
D10*
%TO.C,J7*%
X3450000Y-1000000D03*
D11*
X4720000Y-1000000D03*
X5990000Y-1000000D03*
X7260000Y-1000000D03*
X8530000Y-1000000D03*
%TD*%
D24*
%TO.C,C1*%
X22000000Y-5300000D03*
X22000000Y-10700000D03*
%TD*%
D25*
%TO.C,J5*%
X24600000Y-15000000D03*
D26*
X24600000Y-13000000D03*
%TD*%
D13*
%TO.C,J3*%
X9300000Y-28400000D03*
X9950000Y-27650000D03*
X10600000Y-28400000D03*
X11250000Y-27650000D03*
X11900000Y-28400000D03*
X16000000Y-27650000D03*
X16650000Y-28400000D03*
X17300000Y-27650000D03*
X17950000Y-28400000D03*
X18600000Y-27650000D03*
%TD*%
%TO.C,J1*%
X23300000Y-1600000D03*
X22650000Y-2350000D03*
X22000000Y-1600000D03*
X21350000Y-2350000D03*
X20700000Y-1600000D03*
X16600000Y-2350000D03*
X15950000Y-1600000D03*
X15300000Y-2350000D03*
X14650000Y-1600000D03*
X14000000Y-2350000D03*
%TD*%
M02*
